<svg xmlns="http://www.w3.org/2000/svg" xmlns:xlink="http://www.w3.org/1999/xlink" width="0" height="0" style="position:absolute">
	
		<symbol id="body" viewBox="0 0 45 61">
			<path d="M23.173 45.164c3.512-6.294 9.62-11.692 16.772-14.817l-1.355-2.274c-.393.058-.724.068-1.032.158-1.259.367-2.54.685-3.758 1.158-2.507.973-4.97 2.06-7.47 3.052-2.078.825-4.214 1.46-6.463 1.621-3.515.252-6.748-.736-9.866-2.236-.28-.134-.564-.261-.901-.418-.123.401-.185.69-.301.957-.21.48-.104.838.248 1.236 2.436 2.758 4.927 5.461 7.716 7.873 1.343 1.162 2.728 2.266 4.317 3.082.641.329 1.29.646 2.093.608zM9.577 29.91c4.48 2.457 9.063 3.607 13.985 1.897 2.51-.871 4.94-1.967 7.427-2.902 1.963-.738 3.961-1.386 5.944-2.073.175-.06.353-.114.667-.216-.514-.72-.956-1.356-1.417-1.98-.897-1.217-1.763-2.459-2.715-3.63-2.154-2.65-2.638-5.699-2.044-8.928.535-2.903 1.283-5.767 1.937-8.648.182-.8.36-1.602.542-2.402.036-.16.07-.323.13-.474.153-.377.432-.596.845-.504.406.09.62.391.563.802a18.15 18.15 0 0 1-.315 1.643c-.696 2.974-1.423 5.94-2.09 8.92-.192.861-.262 1.756-.312 2.64-.117 2.105.42 4.005 1.71 5.723a206.583 206.583 0 0 1 5.355 7.435c1.544 2.258 2.8 4.679 3.575 7.323.922 3.143 1.098 6.35.64 9.57-.703 4.943-1.51 9.871-2.275 14.805a2.86 2.86 0 0 1-.17.666c-.14.335-.41.532-.78.454-.347-.073-.598-.298-.6-.68-.003-.294.036-.59.082-.882.727-4.608 1.484-9.21 2.18-13.823.517-3.42.42-6.82-.657-10.141-.281-.871-.647-1.715-.97-2.56-.77-.137-1.364.168-1.953.424-1.635.712-3.117 1.687-4.538 2.754-2.928 2.2-5.618 4.653-7.872 7.554-.462.595-.869 1.236-1.263 1.88-.543.885-.792 1.845-.795 2.902-.005 2.137-.112 4.273-.123 6.41-.008 1.61.069 3.22.109 4.83.004.197.025.394.018.59-.015.417-.237.701-.644.747-.409.045-.7-.174-.77-.595a8.177 8.177 0 0 1-.13-1.173c-.018-.915-.006-1.83-.006-2.745l-.197-.051c-.109.171-.232.335-.324.514-.613 1.2-1.204 2.41-1.835 3.599-.242.456-.622.568-.98.39-.403-.2-.512-.563-.303-1.09.109-.274.25-.535.383-.799.37-.733.782-1.448 1.108-2.2.679-1.565 1.314-3.15 1.962-4.728.074-.18.163-.374.165-.562.014-1.245.008-2.491.008-3.819-.372-.114-.807-.235-1.232-.383-1.829-.64-3.37-1.758-4.854-2.96-2.872-2.322-5.392-5.004-7.85-7.749-.175-.195-.349-.393-.533-.58-.04-.04-.119-.04-.287-.091-.276 1.272-.593 2.53-.818 3.805-.657 3.72-1.313 7.44-1.903 11.17-.472 2.984-.846 5.984-1.263 8.977-.009.065-.008.131-.017.196-.09.586-.427.936-.851.89-.439-.05-.715-.468-.648-1.047.114-.979.232-1.958.383-2.931.777-5.032 1.528-10.067 2.36-15.09.73-4.412 1.864-8.729 3.237-12.989a57.316 57.316 0 0 0 2.146-9.102c.303-2.029.09-4.07-.223-6.089-.502-3.246-1.042-6.486-1.549-9.73-.106-.682-.152-1.373-.203-2.06C8.683.404 8.954.02 9.404 0c.402-.019.716.299.796.836.635 4.256 1.246 8.515 1.905 12.767.53 3.421.025 6.75-.822 10.048-.49 1.908-1.047 3.799-1.572 5.697-.042.154-.075.31-.134.561z" fill="#fff"></path><path d="M39.924 11.286l1.158 1.13 1.281-1.262-1.107-1.289c-.443.473-.97 1.036-1.332 1.42zm1.196 3.877c-.298-.198-.594-.34-.814-.558-.179-.176-.281-.437-.395-.672-.325-.672-.8-1.171-1.495-1.488-.532-.242-1.115-.517-1.12-1.23-.006-.71.553-.994 1.096-1.243.72-.329 1.22-.856 1.553-1.565.11-.236.231-.478.4-.671.455-.518 1.178-.503 1.627.02.127.147.244.316.315.495.346.875.983 1.446 1.824 1.822a2 2 0 0 1 .496.315c.524.46.523 1.164.003 1.623a1.59 1.59 0 0 1-.41.267c-.912.392-1.584 1.017-1.96 1.952a1.175 1.175 0 0 1-.333.479c-.221.173-.49.287-.787.454zM4.32 27.19l-.23.143-.834-1.258-.896.951.9 1.112 1.06-.948zm2.405-.074c-.256.347-.4.736-.673.878-.847.442-1.448 1.058-1.908 1.9-.406.744-1.335.72-1.737-.04a4.115 4.115 0 0 0-1.753-1.778c-.875-.476-.872-1.368.008-1.849.787-.43 1.327-.998 1.748-1.783.407-.758 1.313-.761 1.747-.018.459.787.979 1.444 1.83 1.843.283.133.453.508.738.847zM20.057 20.61c-.01.194 0 .393-.04.58-.077.372-.349.534-.707.534-.366 0-.639-.18-.686-.555a4.418 4.418 0 0 1-.015-1.061c.046-.393.285-.656.716-.643.417.013.65.257.709.66.023.158.004.323.004.485h.02z" fill="#fff"></path>
		</symbol>
	
		<symbol id="face" viewBox="0 0 55 55">
			<path d="M48.093 28.467c-.713.022-1.301.63-1.294 1.34a1.323 1.323 0 0 0 1.41 1.3 1.294 1.294 0 0 0 1.237-1.37 1.323 1.323 0 0 0-1.353-1.27zM11.965 44.922l2.497-2.828c-.44-.406-.936-.794-1.345-1.258-.423-.483-.763-1.04-1.097-1.506L9.53 42.15l2.436 2.772zm38.29-12.377c-.87.18-1.526.386-2.195.439-.856.068-1.096.209-1.233 1.032-.128.767 1.17 2.475 1.944 2.558 1.101.118 2.036-.431 2.403-1.41.395-1.06.015-2.03-.92-2.619zm-9.757-1.372c.32-.358.656-.683.93-1.054.952-1.286 1.21-2.797 1.316-4.338.082-1.192-.002-2.382-.436-3.513-.256-.665-.555-.84-1.12-.737-.691.126-.797.308-.858 1.08-.19 2.368-.36 4.74-.64 7.097-.086.71.012 1.144.808 1.465zM5.556 21.871c-.076-.04-.232-.148-.406-.213-.873-.327-1.25-.147-1.577.748a3.863 3.863 0 0 0-.153.541c-.29 1.4-.273 2.8-.052 4.209.163 1.04.48 2.014 1.084 2.878.542.776 1.199 1.428 2.108 1.74l-1.004-9.903zm36.655 13.09c.128 2.608-.787 4.696-2.899 6.186.89 1.626 3.007 2.306 4.84 1.586a4.054 4.054 0 0 0 2.461-4.651c-.46-2.027-2.228-3.325-4.402-3.121zM17.137 8.714c.257.144.411.242.576.32 1.768.83 3.662 1.04 5.58 1.09 1.91.05 3.822.048 5.732.074.381.005.762.034 1.215.056-1.299-1.716-5.657-5.216-7.388-5.953-2.01 1.263-3.944 2.67-5.715 4.413zm14.114 27.079a4.519 4.519 0 0 0 4.583 4.499c2.465-.036 4.48-2.073 4.481-4.534.003-2.511-2.039-4.538-4.564-4.53-2.547.009-4.517 2.006-4.5 4.565zM21.05 3.174c-.759-.355-1.357-.608-1.929-.91-.496-.263-.928-.21-1.412.053-2.453 1.329-4.607 3.024-6.424 5.145-.183.214-.36.44-.58.613-.391.31-.853.281-1.2-.04-.344-.32-.383-.712-.189-1.116.094-.193.254-.355.392-.525 1.22-1.489 2.631-2.773 4.17-3.921.187-.139.364-.29.665-.533H2.413c-1.457 5.873.502 13.626 3.885 17.48 1.83-3.173 3.908-6.147 6.325-8.875 2.443-2.758 5.16-5.209 8.427-7.37zm18.606 16.303c3.84-4.924 5.159-12.527 3.784-17.532-1.967-.198-19.766-.11-20.41.105 7.07 4.324 12.394 10.308 16.626 17.427zM10.56 37.314c.122-.4.197-.572.224-.75.086-.59.132-1.184.236-1.77.145-.817.977-1.189 1.527-.666.198.189.302.54.333.83.118 1.099.301 2.178.762 3.188.754 1.651 1.966 2.732 3.816 2.985.342.047.687.068 1.026.125.508.085.796.412.807.883.01.463-.27.836-.755.944-.242.053-.5.031-.748.058-.818.09-1.598.284-2.335.872 2.937 2.35 6.216 3.129 9.826 2.482 3.197-.573 5.622-2.376 7.598-4.91-3.151-2.184-4.273-5.017-3.22-7.964.49-1.372 1.336-2.479 2.564-3.273 1.704-1.102 3.553-1.29 5.517-.757.06-.215.126-.358.139-.505.193-2.28.375-4.561.57-6.84.054-.62-.103-1.16-.412-1.698-1.282-2.235-2.692-4.38-4.281-6.41-1.335-1.705-1.325-1.77-3.49-1.896-2.44-.141-4.887-.181-7.332-.221-2.36-.039-4.605-.498-6.701-1.61-.186-.098-.39-.164-.557-.233-.1.068-.159.096-.2.14-3.006 3.105-5.545 6.557-7.657 10.323a1.833 1.833 0 0 0-.214.889c.05 3.55.313 7.083 1.13 10.55.409 1.736.948 3.435 1.826 5.234zM3.934 19.588c-1.173-1.907-2.086-3.763-2.705-5.747C-.056 9.722-.422 5.547.557 1.304.84.08.945.004 2.21.004h40.298c.502 0 1.004-.01 1.506.002.838.019 1.072.168 1.249.97.21.947.422 1.904.503 2.868.462 5.45-.675 10.543-3.508 15.24-.08.132-.148.272-.255.471 1.881.66 2.308 2.228 2.535 3.943.217 1.642.108 3.26-.268 4.861-.36 1.53-1.083 2.87-2.236 3.96-.136.128-.269.26-.4.393-.02.021-.023.058-.082.222.6.022 1.166.003 1.722.074.553.07 1.095.23 1.67.357l.68-1.421c-1.002-1.865-.952-3.141.155-4.351a3.21 3.21 0 0 1 3.627-.76c1.441.627 1.993 1.784 1.863 3.986 1.644 1.265 2.398 2.936 1.652 5-.69 1.908-2.232 2.699-4.236 2.745-.152 3.033-1.444 5.302-4.48 6.117-2.83.76-5.105-.27-6.723-2.605-.818.037-1.565.093-2.312.098-.394.003-.533.283-.72.523-1.148 1.47-2.457 2.764-4.032 3.78-4.762 3.071-11.234 2.809-15.728-.643-.17-.13-.345-.256-.563-.418-.609.841-.875 1.762-1.065 2.708-.092.46-.115.933-.18 1.398-.079.555-.425.905-.895.921-.46.016-.854-.33-.96-.867-.042-.214-.036-.438-.055-.657-.098-1.106-.374-2.162-.896-3.147-.846-1.596-2.175-2.467-3.972-2.63-.28-.024-.573-.014-.835-.098-.426-.138-.67-.464-.663-.925.006-.438.36-.794.843-.864.465-.066.94-.078 1.396-.177 1.043-.225 1.917-.741 2.564-1.588-.525-1.24-1.131-2.42-1.518-3.669-.356-1.146-.87-1.88-2.09-2.312-1.79-.633-2.975-2.05-3.69-3.811-.976-2.408-1.013-4.897-.495-7.4.259-1.254.907-2.27 2.32-2.71zM52.208 48.54c-.017-1.5-1.196-2.651-2.715-2.646-1.502.004-2.696 1.183-2.705 2.67-.008 1.517 1.237 2.728 2.774 2.7a2.676 2.676 0 0 0 2.646-2.723zm-2.674 4.633c-2.55.013-4.632-2.034-4.647-4.567-.014-2.525 2.052-4.623 4.583-4.652 2.524-.029 4.621 2.048 4.635 4.588a4.587 4.587 0 0 1-4.57 4.63z" fill="#fff"></path><path d="M39.464 47.702c-.446-.021-.832.332-.87.793-.04.518.31.92.813.932.45.01.851-.34.892-.78.042-.46-.368-.924-.835-.945zm-2.818.906c-.02-1.494 1.207-2.766 2.707-2.809a2.795 2.795 0 0 1 2.86 2.744c.021 1.526-1.269 2.827-2.796 2.819-1.488-.008-2.75-1.262-2.77-2.754zM7.426 51.361c-.311 0-.626.03-.933-.006-.597-.07-.968-.452-.967-.949 0-.517.348-.877.974-.912.62-.035 1.245-.035 1.865.012.548.042.88.43.877.907-.003.433-.31.79-.792.916a.754.754 0 0 1-.184.03c-.28.004-.56.002-.84.002zM5.564 47.69c0 .311.03.626-.006.933-.064.531-.449.891-.907.9a.947.947 0 0 1-.945-.864c-.055-.68-.058-1.372.008-2.05.05-.519.522-.835.992-.796.449.037.783.345.846.851.041.337.007.684.007 1.026h.005zM1.87 51.398c-.398-.03-.75-.017-1.082-.09-.497-.11-.768-.49-.745-.947.023-.462.316-.815.838-.849a18.907 18.907 0 0 1 2.065.003c.483.02.715.359.778.804.063.45-.212.868-.694.975-.393.086-.807.076-1.16.104zM5.56 53.12c0 .341.032.687-.008 1.024-.062.512-.386.812-.84.852-.442.04-.917-.229-.96-.7a12.594 12.594 0 0 1 .008-2.314c.041-.446.442-.664.885-.683.426-.019.8.33.903.795.014.06.024.123.024.185.003.28.001.56.001.84H5.56zM25.572 37.675c-.81-.301-1.619-.607-2.432-.899a.586.586 0 0 0-.366-.004c-.815.292-1.625.599-2.435.901 1.757.99 3.472.988 5.233.002zm-2.615 2.669c-1.508-.001-2.931-.337-4.187-1.19-.431-.291-.844-.673-1.128-1.104-.492-.751-.136-1.468.721-1.742.891-.285 1.798-.559 2.638-.962 1.316-.63 2.562-.641 3.883-.015.87.413 1.808.686 2.725.996.761.258 1.11.937.686 1.62a4.174 4.174 0 0 1-1.155 1.2c-1.248.863-2.675 1.193-4.183 1.197zM33.675 25.095c.01.478.326.487.565.604.57.277.777.72.594 1.206-.174.461-.707.773-1.237.564-.506-.2-1.047-.496-1.379-.906-.416-.514-.835-.592-1.443-.58-.994.018-1.992-.099-2.986-.178a1.819 1.819 0 0 1-.625-.192c-.451-.218-.643-.634-.531-1.083.107-.431.509-.728.992-.689.279.022.552.113.828.164 1.66.308 3.251.172 4.695-.78.575-.38 1.065-.378 1.623.062.33.262.772.39 1.174.553.59.24.86.636.733 1.132-.13.51-.549.797-1.16.694-.425-.072-.83-.262-1.244-.396-.184-.059-.37-.109-.6-.175zM12.256 25.092c-.258.073-.443.121-.626.178-.445.138-.88.336-1.334.405-.554.084-.953-.226-1.063-.7-.116-.495.11-.864.633-1.105.504-.232 1.01-.469 1.489-.749.428-.25.83-.262 1.23.009 1.644 1.117 3.438 1.21 5.309.788.122-.027.242-.072.366-.08.49-.032.885.24.998.672.12.454-.045.923-.505 1.085a7.008 7.008 0 0 1-1.728.388c-.744.06-1.5.033-2.248-.015-.384-.025-.631.067-.885.365-.3.351-.66.67-1.045.922-.245.161-.582.23-.883.249-.457.03-.776-.225-.9-.669-.125-.447.054-.792.427-1.046.255-.174.695-.12.765-.697zM31.825 17.6c.597.123 1.24.243 1.875.39.21.049.414.15.601.258.539.314.715.779.494 1.254-.205.444-.629.62-1.185.48-.15-.037-.293-.107-.44-.16a4.077 4.077 0 0 0-2.759-.045c-1.039.341-2.073.698-3.116 1.029-.87.276-1.38.104-1.575-.493-.187-.577.14-1.024.998-1.311 1.156-.387 2.31-.777 3.478-1.12.504-.15 1.04-.184 1.628-.281zM14.222 17.595c.64.129 1.293.213 1.917.397 1.048.308 2.077.68 3.113 1.028.147.05.3.095.434.171.448.258.615.646.492 1.104-.117.437-.497.696-1.01.644-.244-.024-.486-.11-.723-.188-.89-.29-1.784-.578-2.668-.888-1.073-.376-2.137-.43-3.202.021a1.873 1.873 0 0 1-.355.119c-.55.112-.956-.094-1.136-.57-.16-.42-.037-.905.423-1.114.59-.267 1.231-.43 1.86-.6.266-.072.56-.045.84-.063l.015-.061zM22.92 32.964c-1.068-.03-2.06-.288-2.964-.836-.666-.404-.853-.875-.583-1.384.267-.504.814-.646 1.463-.287 1.41.78 2.801.797 4.203.006.082-.046.165-.093.252-.124.524-.184 1.001-.031 1.224.387.222.417.111.927-.332 1.24-.978.69-2.089.974-3.262.998zM22.94 42.168c.344 0 .693-.035 1.031.008.503.066.813.424.828.872.014.45-.268.883-.76.931-.713.069-1.44.07-2.153.004-.509-.047-.777-.447-.773-.912.004-.502.315-.839.888-.905.31-.036.626-.007.939-.007v.01zM7.357 9.173a.935.935 0 0 1 .957.927c0 .523-.432.95-.95.938a.931.931 0 0 1-.905-.884.932.932 0 0 1 .898-.981zM32.997 36.458c-.013-1.82 1.656-3.496 3.474-3.49.656.002 1.097.328 1.149.858.045.459-.328.969-.962 1.05-1.271.165-1.558.496-1.775 1.766-.107.63-.54 1.037-1.038.977-.515-.063-.843-.512-.848-1.16z" fill="#fff"></path>
		</symbol>
	
		<symbol id="hair" viewBox="0 0 52 60">
			<path d="M41.929 6.545l2.084 2.107 2.099-2.107L44.01 4.45l-2.082 2.095zm-.598 18.731c.878-2.443 2.437-4.01 4.68-4.796-.984-.676-2.046-1.213-2.845-2.011-.783-.783-1.3-1.833-1.971-2.823-.771 2.36-2.431 3.818-4.72 4.721 2.978 1.488 3.485 1.994 4.856 4.91zM32.136 0c.5.094.997.2 1.499.28C36.457.733 39 1.823 41.247 3.598c.186.147.387.274.71.5.258-.556.48-1.073.734-1.574.502-.991 1.658-1.209 2.363-.442.157.17.29.392.356.613.376 1.244 1.181 2.037 2.411 2.442.668.22 1.125.67 1.112 1.426-.011.748-.472 1.164-1.136 1.413-.74.277-1.46.59-1.872 1.39 1.294 2.956 1.938 6.027 1.39 9.31.192.176.407.339.58.538.779.892.588 2.203-.502 2.662-.717.303-.853.75-.903 1.406-.219 2.877.515 5.548 1.673 8.14.863 1.93 1.78 3.844 2.525 5.82.797 2.115.658 4.23-.518 6.216a5.648 5.648 0 0 1-.518.761c-.305.364-.723.4-1.119.211-.433-.207-.513-.62-.401-1.053.05-.193.158-.378.27-.546 1.05-1.568 1.186-3.251.566-4.992a39.33 39.33 0 0 0-1.33-3.212c-1.04-2.264-2.2-4.487-2.653-6.964-.243-1.33-.325-2.69-.489-4.108-.438.259-.673.71-.895 1.144-.246.485-.434 1-.637 1.507-.293.734-.81 1.179-1.61 1.225-.753.042-1.338-.402-1.7-1.24-.04-.094-.082-.188-.112-.285-.584-1.91-1.829-3.16-3.732-3.758a3.886 3.886 0 0 1-.66-.278c-.6-.321-.886-.85-.877-1.513.008-.662.308-1.187.915-1.49.304-.152.627-.269.949-.383 1.617-.574 2.704-1.675 3.284-3.286.116-.321.223-.65.38-.95.312-.592.826-.91 1.495-.91.71-.002 1.25.326 1.553.977.216.463.322.99.597 1.41.443.675.974 1.296 1.495 1.916.11.13.336.163.62.29.314-2.306-.018-4.414-.778-6.481-.156-.007-.255-.02-.352-.015-1.102.058-1.484-.131-1.861-1.179-.415-1.153-1.183-1.853-2.31-2.288-1.438-.556-1.572-1.727-.366-2.708.05-.041.081-.106.165-.22-1.128-1.003-2.437-1.702-3.845-2.194-5.219-1.823-10.026-1.011-14.343 2.426-1.196.952-2.457 1.249-3.916 1.026a12.212 12.212 0 0 0-4.584.154c-1.05.241-2.049.717-3.067 1.095-.126.047-.232.146-.355.204-.526.25-1.02.162-1.28-.219-.287-.419-.175-.973.343-1.327a9.67 9.67 0 0 1 4.883-1.673c1.56-.1 3.135-.055 4.701-.004.792.026 1.438-.126 2.069-.65 2.534-2.107 5.453-3.34 8.738-3.69.231-.025.455-.123.682-.188h2.05z" fill="#fff"></path><path d="M29.733 58.142c-.592-1.167-1.353-2.007-2.15-2.819-.95.695-1.889 1.919-2.156 2.82h4.306zM25.8 10.783c-1.152-1.194-2.832-1.447-4.318-.748-1.36.64-2.28 2.02-2.116 3.25 1.905-1.367 4.015-2.166 6.434-2.502zM13.374 25.438c-1.117.273-2.034.816-2.7 1.73-.72.988-.593 2.048.305 2.848.034-.1.057-.2.1-.29.28-.596.628-.84 1.06-.75.455.097.705.454.739 1.084.016.307.005.615.008.922.004.495.283.638.716.584l-.228-6.128zm8.143 23.655c1.032 1.625 2.197 3.015 3.923 3.835 1.303.62 2.646.654 3.965.085 1.824-.788 3.035-2.232 4.07-3.866-1.431-.978-1.544-1.196-1.546-2.913v-2.661c-5.35 1.596-3.89 1.45-8.818.017 0 .902-.045 1.781.01 2.654.084 1.283-.277 2.29-1.604 2.849zm3.703 5.762c-2.524-1.033-4.168-3.001-5.559-5.266-1.867.502-3.683.989-5.342 1.874-.983.524-1.953 1.141-2.776 1.886-1.37 1.242-1.828 2.887-1.694 4.783h13.252l2.119-3.277zm6.703 3.266H45.16c.194-2.256-.58-4.023-2.287-5.357-2.203-1.72-4.846-2.417-7.504-3.185-1.4 2.3-3.056 4.25-5.565 5.277l2.119 3.265zm6.317-23.645c-1.015-.275-1.915-.463-2.779-.76-4.791-1.642-8.155-6.299-8.217-11.39-.034-2.764-.004-5.53-.015-8.296-.002-.467-.066-.932-.104-1.421-.26-.026-.426-.068-.587-.053-4.415.388-7.622 2.563-9.555 6.553-1.21 2.5-1.603 5.183-1.736 7.94-.188 3.905.972 7.338 3.408 10.348 1.834 2.266 4.058 4.035 6.827 5.056 1.336.493 2.655.512 4.003.026 1.895-.682 3.54-1.756 5.017-3.1 1.523-1.388 2.805-2.967 3.738-4.903zM11.51 50.912c-1.293-.736-2.49-1.38-3.649-2.085-2.081-1.266-3.942-2.813-5.673-4.526C.32 42.45-.082 40.319.943 37.926c.401-.94.9-1.836 1.363-2.748.14-.273.296-.54.468-.794 1.764-2.6 2.406-5.419 1.984-8.563-.3-2.228-.35-4.495-.414-6.747-.077-2.67.068-5.33.96-7.888a9.29 9.29 0 0 1 .6-1.41c.306-.557.823-.712 1.286-.459.415.227.529.675.342 1.25-.347 1.068-.771 2.12-1.005 3.213-.446 2.082-.47 4.207-.346 6.327.12 2.046.22 4.096.446 6.131.343 3.08-.271 5.897-1.955 8.503-.591.915-1.091 1.891-1.593 2.86a10.727 10.727 0 0 0-.657 1.607c-.445 1.363-.151 2.595.875 3.573 1.16 1.105 2.35 2.187 3.608 3.178 1.83 1.443 3.872 2.552 6.008 3.485.383.168.73.261 1.171.11 2.158-.744 4.332-1.445 6.5-2.162.19-.063.38-.132.7-.244 0-.792.002-1.6-.001-2.408-.003-.752.202-1.6-.08-2.227-.276-.616-1.05-1.01-1.606-1.5-2.157-1.902-3.849-4.146-4.97-6.806-.066-.156-.145-.305-.231-.487l-1.518-.291c0 .47.022.87-.004 1.268-.043.639-.408 1.01-.932.99-.49-.017-.834-.357-.874-.952-.047-.68.153-1.45-.105-2.022-.256-.567-.996-.895-1.443-1.4-1.61-1.822-1.501-4.174.233-5.884a6.92 6.92 0 0 1 3.175-1.792c.612-.157.892-.418 1.013-1.06.483-2.55 1.433-4.913 3.07-6.956.312-.389.329-.8.326-1.248-.007-.957.013-1.906.387-2.819 1.063-2.593 3.765-4.14 6.424-3.651 2.86.525 4.876 2.836 4.915 5.723.039 2.87-.014 5.74.02 8.61.054 4.79 3.345 8.938 7.99 10.052.855.205 1.754.255 2.636.302.954.052 1.913-.009 2.868.03.57.024.93.424.931.903.001.482-.361.868-.925.906-.544.036-1.093.03-1.638.008-.422-.019-.683.103-.881.515-1.36 2.823-3.327 5.147-5.829 7.029-.216.163-.453.468-.46.713-.042 1.466-.021 2.933-.021 4.461.422.141.801.277 1.186.394 1.436.437 2.883.836 4.304 1.317.506.17.92.153 1.355-.109 1.521-.911 3.055-1.802 4.562-2.737.766-.475 1.268-.526 1.612-.042.334.471.167 1.033-.555 1.521-1.074.726-2.183 1.4-3.278 2.094-.222.141-.449.277-.751.462.621.433 1.184.795 1.714 1.2 2.099 1.598 3.13 3.732 3.142 6.364.008 1.67-.675 2.373-2.364 2.375-5.875.009-11.75.004-17.624.004H10.969c-.273 0-.546.006-.82-.003-1.43-.048-2.134-.746-2.16-2.164-.05-2.583.866-4.733 2.888-6.381.184-.15.361-.307.632-.538z" fill="#fff"></path><path d="M27.523 36.443c-1.11-.047-2.212-.237-3.238-.746-.625-.31-.826-.72-.623-1.206.226-.544.698-.736 1.349-.445 1.691.755 3.357.735 5.044-.011.607-.27 1.05-.096 1.286.395.234.487.053.945-.539 1.242-1.022.512-2.122.717-3.28.77zM21.455 22.208c.85.24 1.665.45 2.465.708.247.079.477.262.674.441.335.305.452.68.182 1.094-.253.39-.62.517-1.06.384-.193-.058-.366-.177-.55-.26-1.115-.51-2.233-.52-3.352-.016-.215.098-.421.233-.647.29-.446.116-.8-.047-1.027-.455-.216-.389-.1-.737.188-1.017.191-.185.425-.364.673-.445.798-.263 1.61-.48 2.454-.724zM22.394 27.272c.004.743-.373 1.212-.954 1.186-.538-.025-.88-.47-.887-1.155-.008-.745.363-1.204.956-1.181.552.02.882.45.885 1.15z" fill="#fff"></path>
		</symbol>
	
		<symbol id="hands" viewBox="0 0 65 65">
			<path d="M35.35 64.03c-1.258.678-2.354.454-3.318-.585-1.247.687-2.342.434-3.301-.57-.187.073-.35.143-.518.202-1.328.467-2.702-.177-3.068-1.533-.14-.52-.427-.771-.837-1.009-2.39-1.383-4.773-2.775-7.159-4.165-.222-.13-.453-.25-.66-.403-.342-.255-.425-.635-.234-.945.196-.32.533-.396.952-.21.118.053.228.123.34.188 2.72 1.584 5.438 3.172 8.161 4.752.426.247.723.514.712 1.083-.01.602.358.952.87.997.543.047.945-.28 1.072-.893.126-.608-.024-1.179-.266-1.731-.082-.189-.203-.361-.28-.551-.133-.329-.044-.614.24-.82.274-.199.7-.16.899.148.262.408.52.85.637 1.312.137.54.124 1.12.168 1.682.007.1-.038.204-.043.307-.036.642.316 1.095.89 1.15a.954.954 0 0 0 1.053-.907c.035-.635-.04-1.28-.11-1.916-.027-.248-.167-.485-.256-.727-.219-.593-.123-.956.293-1.11.416-.154.78.02.987.606.221.626.39 1.28.485 1.937.072.504-.026 1.03-.013 1.545.006.248.037.527.157.733.194.33.537.5.927.424.402-.078.705-.3.808-.735.26-1.093.115-2.152-.254-3.194-.06-.17-.154-.33-.195-.504-.091-.384.067-.683.414-.81.334-.122.617-.033.808.263.11.172.192.366.26.56.402 1.135.595 2.296.403 3.501a3.057 3.057 0 0 0-.046.462c-.002.56.33.965.838 1.039.511.073.967-.215 1.084-.77.19-.893.183-1.8-.004-2.693-.11-.528-.304-1.038-.434-1.563-.094-.375.082-.692.414-.806.337-.115.61-.011.808.277.072.105.136.226.165.349.183.801.433 1.598.508 2.41.05.563.235.88.726 1.126 1.05.526 2.217.36 2.97-.477.7-.779.569-1.644-.302-2.218-1.335-.879-2.697-1.725-3.97-2.688-2.342-1.772-4.313-3.92-6.033-6.298-.12-.166-.244-.336-.333-.52-.15-.314-.098-.609.175-.837.26-.217.64-.189.916.07.11.104.194.24.284.365 2.554 3.589 5.724 6.508 9.573 8.65 1.669.928 1.853 2.91 1.008 4.039-.393.526-.863.957-1.466 1.23-.934.424-1.887.495-2.862.158-.218-.075-.432-.16-.703-.262-.372.889-.905 1.61-1.92 1.805-.986.19-1.765-.175-2.42-.92zM7.269 36.478l-2.031-3.527c-1.613-2.794-3.228-5.586-4.84-8.38-.116-.2-.241-.4-.326-.614-.161-.408-.033-.745.318-.916.316-.155.64-.081.866.274.388.61.74 1.241 1.1 1.867 2.026 3.509 4.036 7.026 6.084 10.522.37.629.356 1.102-.094 1.676a102.343 102.343 0 0 0-2.775 3.726c-1.946 2.727-1.217 6.165 1.675 7.882 2.44 1.45 4.9 2.866 7.35 4.3.177.103.37.194.519.331.252.233.326.53.135.839-.184.296-.46.413-.797.296-.168-.058-.327-.151-.482-.241-2.476-1.44-4.959-2.867-7.423-4.327-3.619-2.144-4.523-6.575-2.048-9.968.896-1.229 1.81-2.445 2.769-3.74zM32.834 47.44c-.174.201-.3.473-.498.542-.202.07-.501-.005-.706-.115-.161-.086-.256-.313-.358-.49-3.833-6.637-7.664-13.275-11.494-19.912-.606-1.05-1.216-2.098-1.818-3.15-.364-.639-.32-1.039.12-1.266.405-.207.712-.045 1.074.581 4.44 7.687 8.879 15.374 13.315 23.062.127.22.223.455.365.748z" fill="#fff"></path><path d="M27.75 48.817c.365 0 .619-.008.872.002.56.02.863.254.875.663.013.428-.319.689-.912.708-.252.008-.503.001-.834.001v1.45c-.002.181.01.365-.019.542-.061.383-.33.633-.66.645-.361.012-.658-.257-.685-.687-.031-.514-.013-1.032-.02-1.547-.002-.1-.024-.2-.042-.346-.213-.02-.409-.05-.606-.055-.768-.019-1.09-.21-1.105-.67-.017-.474.309-.688 1.064-.708.201-.006.402-.025.693-.044 0-.485-.002-.943 0-1.4.002-.207-.004-.416.028-.618.054-.35.282-.55.632-.566.355-.015.603.185.67.52.06.3.043.616.048.925.007.358.002.717.002 1.185zM43.498 42.613c.387 0 .695-.018 1 .004.443.032.705.288.715.658.01.372-.242.64-.681.702-.178.024-.36.004-.54.015-.15.007-.298.029-.532.053v1.32c0 .18.01.36-.007.54-.042.445-.29.709-.658.717-.348.008-.679-.276-.708-.68-.036-.488-.013-.979-.019-1.469-.001-.125-.017-.25-.032-.448-.29-.013-.562-.02-.835-.038-.56-.036-.856-.274-.861-.686-.005-.417.29-.664.842-.69.255-.01.511-.001.858-.001l.03-1.32c.006-.232-.016-.468.022-.694.066-.412.38-.652.754-.618.347.032.573.262.602.68.028.411.008.825.014 1.237.003.202.02.404.036.718zM1.752 56.978v-1.26c0-.207-.01-.414.007-.619.04-.463.265-.705.646-.72.403-.013.687.257.727.735.026.307.008.618.01.928v.947c.333.01.63.012.926.03.52.03.786.25.801.647.017.423-.275.69-.82.724-.276.018-.553.004-.907.004l-.001 1.372c-.001.206.015.416-.017.618-.062.392-.405.67-.749.638-.338-.032-.586-.28-.61-.68-.028-.464-.01-.929-.014-1.393-.002-.15-.016-.3-.027-.51-.283-.016-.531-.032-.779-.043-.618-.028-.944-.254-.945-.682 0-.41.302-.76.91-.704.248.023.502-.017.842-.032zM29.097 32.403a.646.646 0 0 0-.628.653.62.62 0 0 0 .612.58c.366.006.63-.27.613-.642a.612.612 0 0 0-.597-.591zm1.992.596a1.981 1.981 0 0 1-1.973 2.03c-1.106.01-2.036-.888-2.052-1.982-.017-1.07.923-2.028 2.003-2.041a2.007 2.007 0 0 1 2.023 1.993zM11.291 56.465c0-.339-.319-.645-.653-.627a.618.618 0 0 0-.57.62.582.582 0 0 0 .564.612.612.612 0 0 0 .66-.605zm1.38.017a1.994 1.994 0 0 1-2.04 1.988 2.022 2.022 0 0 1-1.974-1.989c-.01-1.096.922-2.043 2.013-2.042 1.107.002 2.01.924 2.002 2.043zM10.404 38.77c-.04-.53.205-1.255.58-1.942.097-.179.216-.355.358-.499.24-.245.528-.308.837-.107.303.198.37.486.264.809-.056.167-.173.314-.258.472-.765 1.42-.422 3.006.862 3.991.59.453.718.821.415 1.197-.271.337-.702.319-1.231-.082-1.179-.895-1.804-2.078-1.827-3.838zM54.614 22.181c.151.598.257 1.037.375 1.474.376 1.403.774 2.8 1.13 4.208.306 1.205-.229 2.377-1.288 2.933-1.045.549-2.33.353-3.084-.558-.312-.377-.512-.87-.67-1.342-.244-.735-.41-1.496-.719-2.242-.017.165-.049.33-.05.495-.003 1.409-.001 2.817-.003 4.225 0 .634-.095 1.244-.49 1.77-.639.854-1.496 1.231-2.54 1.036-1.102-.205-1.803-.891-2.05-1.995-.07-.311-.076-.64-.078-.963-.008-1.292-.002-2.586-.005-3.879 0-.217-.02-.435-.157-.665-.165.613-.329 1.227-.496 1.84-.08.288-.155.58-.256.861-.456 1.268-1.771 1.973-3.053 1.645-1.275-.325-2.124-1.596-1.88-2.912.148-.791.388-1.567.614-2.341.13-.445.453-.63.83-.544.398.09.6.435.486.916-.16.673-.372 1.333-.534 2.005-.222.925.422 1.676 1.308 1.543.546-.082.845-.443.987-.946.2-.71.386-1.424.575-2.137.493-1.85.983-3.7 1.476-5.548.048-.178.089-.36.162-.528.16-.367.427-.524.76-.461.34.065.516.292.55.623.023.23.022.461.022.692.001 3.232 0 6.465.003 9.697 0 .276-.003.558.05.827a1.157 1.157 0 0 0 2.269.014c.053-.268.05-.55.05-.827.003-3.232.002-6.465.003-9.697 0-.23-.008-.464.02-.692.05-.383.283-.623.61-.645.34-.024.577.133.698.451.057.15.098.307.14.462.684 2.538 1.362 5.078 2.058 7.612.077.278.214.566.4.782.312.361.854.442 1.272.239.424-.206.7-.535.686-1.031a2.967 2.967 0 0 0-.105-.679c-.669-2.518-1.344-5.035-2.015-7.553-.048-.177-.096-.357-.114-.539-.029-.28.092-.539.347-.615a1.15 1.15 0 0 1 .715.033c.2.08.346.297.509.46l4.21 4.21c.05.05.096.1.147.148.514.49 1.1.55 1.542.16.427-.377.44-.985.004-1.55a652.878 652.878 0 0 0-4.426-5.68 1.791 1.791 0 0 1-.414-1.2c.017-1.846-.003-3.694.01-5.54.008-1.11-.308-2.093-1.053-2.922-.23-.255-.33-.53-.329-.876.01-1.824.005-3.648.006-5.472 0-.138-.006-.28.024-.413a.665.665 0 0 1 .7-.544c.344.021.556.218.63.542.04.177.026.367.027.551.002 1.593.007 3.187-.005 4.78-.002.34.076.615.288.89.744.964 1.093 2.07 1.093 3.287 0 1.778.008 3.556-.005 5.334-.003.389.091.7.338 1.011a565.124 565.124 0 0 1 4.257 5.46c.824 1.067.767 2.386-.111 3.273-.948.956-2.415.976-3.42.016-.833-.797-1.635-1.628-2.454-2.442-.144-.143-.3-.274-.577-.527zM45.01 3.23c-.001.762-.015 1.523.004 2.284.012.465-.15.781-.573 1.006-.928.495-1.632 1.242-1.996 2.217-.423 1.132-1.198 1.826-2.24 2.383-1.888 1.013-3.72 2.13-5.58 3.196-.465.267-.796.628-.898 1.163-.245 1.272.902 2.306 2.125 1.875 1.15-.406 2.274-.888 3.411-1.334.343-.134.685-.276 1.037-.383a2.35 2.35 0 0 1 3.013 2.724c-.122.61-.292 1.21-.47 1.806-.145.48-.5.69-.873.568-.393-.128-.564-.463-.451-.952.103-.449.235-.89.361-1.334.133-.465.179-.916-.224-1.28-.4-.36-.836-.284-1.292-.098-1.237.505-2.483.99-3.721 1.491-.954.386-1.895.4-2.8-.111-1.968-1.108-2.092-3.865-.209-5.13.898-.604 1.863-1.106 2.8-1.65 1.277-.74 2.552-1.48 3.835-2.21.273-.156.46-.351.584-.645.56-1.315 1.3-2.498 2.542-3.286.269-.17.224-.43.224-.68.003-1.222 0-2.445.003-3.669 0-.207-.004-.419.036-.62.073-.368.338-.57.68-.56.341.01.585.227.648.6.027.157.023.321.023.483.002.715 0 1.43 0 2.146zM31.647 26.021c-.196-.024-.385-.023-.559-.074-.32-.092-.517-.327-.506-.66.01-.327.193-.591.535-.627.386-.04.781-.042 1.167-.003.342.034.522.292.532.626.01.336-.17.58-.496.664-.22.057-.455.053-.673.074zM36.272 26.017c-.154-.02-.39-.019-.606-.082-.33-.096-.462-.352-.442-.691.018-.316.177-.543.486-.58a5.163 5.163 0 0 1 1.096-.025c.393.036.648.35.635.687-.013.309-.26.582-.614.65-.156.03-.32.025-.555.04zM59.092 31.473c-.184 0-.373.026-.55-.006-.327-.058-.535-.256-.564-.603-.028-.345.124-.632.449-.683a4.336 4.336 0 0 1 1.294-.01c.315.047.495.328.47.674-.026.338-.218.557-.548.618-.178.033-.367.007-.55.007v.003zM59.099 3.617c.16 0 .323-.012.482.002.34.032.545.228.603.563.056.324-.132.692-.468.746a4.243 4.243 0 0 1-1.231.008c-.353-.05-.537-.377-.506-.717.03-.349.241-.556.636-.602.16-.018.322-.002.483-.002v.002zM60.73 6.611c0-.183-.014-.368.002-.55.032-.35.26-.529.585-.58a.622.622 0 0 1 .718.503c.062.357.068.733.034 1.095a.675.675 0 0 1-.704.622c-.356-.012-.602-.266-.643-.676-.013-.136-.002-.276-.002-.414h.01zM60.724 33.111c0-.16-.01-.322.001-.482.026-.339.203-.553.546-.61.349-.058.693.1.747.448.065.42.064.868-.002 1.289-.05.316-.34.481-.676.466-.336-.015-.568-.256-.613-.63-.019-.158-.003-.32-.003-.481zM63.69 5.003c-.202-.02-.413-.011-.609-.064-.334-.09-.554-.421-.5-.73.058-.322.238-.56.584-.584.343-.023.69-.025 1.032-.003.341.023.539.233.584.573.046.343-.136.65-.472.745-.196.053-.408.044-.618.063zM63.697 31.471c-.184 0-.371.023-.55-.004-.338-.05-.518-.284-.569-.606-.044-.284.155-.64.457-.682a4.819 4.819 0 0 1 1.292-.008c.331.045.473.338.46.675a.627.627 0 0 1-.541.618c-.179.03-.366.005-.55.005v.002zM34.71 27.631c-.011.191.002.38-.038.557a.665.665 0 0 1-.714.52c-.335-.034-.575-.22-.611-.554a5.249 5.249 0 0 1 0-1.1c.037-.349.342-.571.68-.557.341.015.565.203.643.524.048.197.03.411.04.61zM34.708 22.992c-.008.183.006.37-.03.547-.064.324-.388.571-.69.558a.694.694 0 0 1-.647-.603 5.251 5.251 0 0 1-.01-.892c.026-.456.273-.706.668-.711.393-.006.651.244.697.69.014.135.002.274.002.411h.01zM60.73 1.995c0-.182-.017-.367.003-.547.04-.337.242-.537.578-.576.338-.04.639.111.688.427.07.44.072.906-.003 1.343-.052.308-.357.466-.696.417-.331-.047-.534-.246-.57-.585-.016-.158-.003-.32-.003-.479h.003zM60.724 28.492c0-.162-.012-.324.002-.484.03-.34.213-.553.557-.606.35-.054.68.11.74.465.065.4.066.826.006 1.228-.051.345-.409.537-.734.481-.334-.057-.536-.257-.568-.6-.015-.16-.002-.323-.002-.484h-.001z" fill="#fff"></path><path d="M41.362 22.32c.41-.006.699.287.685.69-.013.347-.327.664-.664.668-.357.006-.71-.359-.696-.716a.67.67 0 0 1 .675-.643z" fill="#fff"></path>
		</symbol>
	
		<symbol id="men" viewBox="0 0 41 55">
			<path d="M10.761 51.515l-.518 1.54h2.024l-1.506-1.54zm15.585 1.499c.68.124 1.284.18 1.951-.06l-.497-1.412-1.454 1.472zm-6.204.044c0-.887.02-1.72-.006-2.553-.02-.656-.347-.984-.881-.97-.525.015-.826.352-.842 1.014-.02.825-.005 1.652-.005 2.509h1.734zM3.041 25.265l1.451-.513.624-3.954c-.954-.364-1.87-.838-3.003-.888.08 1.835.42 3.566.928 5.355zm30.711-11.647c.78 1.14 1.543 2.13 2.17 3.203.953 1.634 1.459 3.447 1.882 5.282.045.195.14.379.276.736.323-1.54.438-2.9.347-4.28-.072-1.08-.33-2.102-.89-3.03-.755-1.253-1.84-2.08-3.235-2.524l-.55.613zm-2.314 2.774c1.956 2.501 2.31 5.425 2.576 8.294l2.45 1.075c-.126-.843-.217-1.649-.368-2.443-.453-2.382-1.127-4.69-2.519-6.717-.325-.474-.728-.893-1.144-1.396l-.995 1.187zm-23.334.138c-1.692-1.433-3.228-3.144-5.757-3.422-.362 1.593-.527 3.168-.356 4.668l3.973 1.213 2.14-2.459zm24.038-4.057c.958-.86.892-.969.703-2.04-.697-3.939-2.951-6.626-6.707-8.015-.653-.241-1.34-.445-2.169-.377.75 1.606 1.412 3.16 2.194 4.65a21.796 21.796 0 0 0 1.963 3.084c1.01 1.324 2.358 2.223 4.016 2.698zM5.228 7.266C4.253 8.451 3.494 9.724 2.963 11.2c.378.122.697.23 1.018.327a9.236 9.236 0 0 1 3.778 2.201c1.177 1.13 2.5 1.975 4.128 2.292.891.174 1.773.394 2.662.578.181.037.377.005.789.005-2.126-1.488-3.394-3.385-4.626-5.317a12.762 12.762 0 0 0-1.127-1.5c-1.137-1.306-2.458-2.32-4.357-2.52zm1.626-1.64c2.581.94 4.244 2.72 5.6 4.852.353.554.727 1.094 1.085 1.646 2.143 3.301 5.19 4.434 8.991 3.74.167-.03.322-.125.607-.24-1.695-.857-3.035-1.976-4.111-3.377-.78-1.015-1.478-2.095-2.19-3.16-.887-1.325-1.726-2.683-2.632-3.994-.753-1.088-1.879-1.623-3.142-1.884-.2-.041-.447-.048-.625.032-1.285.58-2.473 1.312-3.583 2.384zm23.962 8.521c-.804-.482-1.53-.857-2.19-1.324-1.917-1.36-3.165-3.268-4.192-5.334-.821-1.653-1.609-3.323-2.407-4.988-.189-.393-.425-.64-.924-.63-1.909.043-3.82.036-5.728.073-.457.01-.912.12-1.319.177.867 1.02 1.746 1.983 2.539 3.012.532.691.93 1.484 1.413 2.216.844 1.279 1.64 2.598 2.579 3.805 1.519 1.952 3.484 3.203 6.018 3.432 1.112.1 2.218.266 3.49.42.15-.177.425-.505.72-.858zm1.214 21.687c-.235-.028-.357-.056-.479-.056-.97 0-1.228.249-1.256 1.21-.008.283-.013.566 0 .847.034.757-.292 1.33-.88 1.774-.526.395-1.043.804-1.586 1.177-1.367.938-2.693.417-3.065-1.188-.222-.953-.37-1.093-1.32-1.097-2.76-.009-5.518-.008-8.278 0-1.006.002-1.164.144-1.392 1.134-.356 1.552-1.675 2.079-3 1.18-.57-.386-1.114-.813-1.663-1.23-.593-.447-.876-1.044-.853-1.79.01-.344.018-.69-.004-1.035-.044-.677-.315-.94-1.004-.979-.212-.012-.426.026-.703.046-.015.338-.039.644-.04.95-.003 1.6.094 3.207-.025 4.797-.16 2.15.573 3.784 2.18 5.221 2.052 1.838 3.951 3.85 5.919 5.782.345.34.72.633 1.25.423.555-.22.68-.687.677-1.223-.002-.47-.011-.941.007-1.411.063-1.594 1.218-2.756 2.742-2.77 1.528-.016 2.7 1.133 2.766 2.726.024.564-.003 1.13.026 1.693.022.431.21.785.631.97.43.188.794.056 1.12-.24.14-.126.274-.257.408-.389 2.08-2.044 4.133-4.115 6.246-6.123 1.124-1.069 1.647-2.317 1.626-3.85-.027-1.882-.005-3.764-.008-5.646 0-.278-.026-.556-.042-.903zm-5.303 3.34c1.069-.58 1.82-1.194 1.713-2.611-.11-1.492 1.062-2.553 2.592-2.671.717-.056 1.441-.023 2.161-.055 1.022-.047 1.871-.474 2.55-1.237 1.72-1.936.804-5.103-1.768-5.751 0 .517.035 1.012-.008 1.5-.06.685-.53 1.042-1.145.933-.489-.086-.72-.372-.737-1.04-.025-1.034.012-2.07-.016-3.104-.06-2.208-.31-4.382-1.342-6.385-1.023-1.985-2.66-2.633-4.794-1.948-1.342.431-2.687.852-4.042 1.236-2.412.685-4.864.93-7.346.47a56.71 56.71 0 0 1-3.753-.853c-.44-.113-.777-.064-1.137.199a7.164 7.164 0 0 0-2.14 2.463c-.721 1.36-1 2.825-1.007 4.351-.005 1.192.015 2.384-.013 3.575-.016.705-.36 1.049-.942 1.05-.58.002-.894-.34-.928-1.051-.02-.456-.004-.915-.004-1.393-2.534.57-3.507 3.668-1.886 5.648.745.91 1.72 1.327 2.878 1.358.72.018 1.446-.011 2.16.068 1.33.149 2.268 1.18 2.355 2.516.024.375-.014.756.027 1.128.022.199.1.444.241.566.44.383.924.716 1.467 1.126.08-.293.12-.467.175-.638.392-1.224 1.356-2.007 2.651-2.019 3.072-.028 6.145-.037 9.217.006 1.242.017 2.114.695 2.57 1.868.088.227.166.459.25.695zm8.123-28.076c.709.383 1.397.694 2.021 1.102 1.895 1.235 3.005 3.016 3.335 5.231.515 3.46-.106 6.744-1.763 9.822-.254.472-.314.874-.16 1.412.86 3.003-.689 5.838-3.685 6.84-.179.06-.354.128-.613.222v1.003c0 1.977.006 3.953-.003 5.93-.008 1.844-.642 3.421-1.992 4.71-.881.841-1.724 1.724-2.633 2.636.249.77.49 1.545.749 2.312.489 1.446-.272 2.59-1.793 2.676-.187.01-.376.004-.564.004-5.645 0-11.29.002-16.935-.005-.404 0-.824-.01-1.207-.12-1.027-.291-1.539-1.253-1.238-2.281a28.93 28.93 0 0 1 .68-2.051c.155-.415.069-.697-.25-.995-.756-.707-1.47-1.459-2.22-2.17-1.297-1.233-1.966-2.726-1.96-4.521.005-2.008 0-4.016-.001-6.024v-1.075c-.318-.112-.605-.214-.893-.314C.323 34.252-1.06 30.159.977 27.18c.345-.506.378-.91.226-1.463C.186 22.028-.277 18.271.17 14.454c.488-4.162 2.37-7.637 5.518-10.39C8.73 1.407 12.294.038 16.35.015 18.512 0 20.677.04 22.84.001c5.963-.108 11.357 4.479 11.954 10.775.01.092.032.184.055.321z" fill="#fff"></path><path d="M25.708 25.686H23.45c-.188 0-.378.01-.563-.016-.526-.074-.888-.461-.89-.93-.002-.47.355-.862.883-.932.247-.032.5-.017.75-.017h4.138c.22 0 .44-.013.658.01.6.066.939.436.916.98-.022.498-.35.866-.909.888-.907.035-1.817.01-2.726.01v.007zM12.838 25.686c-.784 0-1.568.004-2.351-.003-.218-.002-.454.011-.65-.064-.408-.16-.667-.467-.641-.938.023-.425.28-.698.657-.83.2-.07.433-.057.651-.058 1.567-.004 3.135-.007 4.702 0 .905.004 1.338.323 1.332.953-.006.624-.44.931-1.35.939-.783.006-1.567.001-2.35.001zM26.77 29.344c-.158.235-.257.438-.407.59-.433.438-1.036.451-1.379-.056-.279-.413-.559-.575-1.053-.58-.656-.008-.988-.355-1.001-.877-.013-.548.366-.942 1.043-.96a59.392 59.392 0 0 1 3.475.004c.628.02.975.394.984.918.009.537-.316.856-.959.927-.217.023-.436.022-.702.034zM13.912 29.349c-.123.214-.192.395-.312.531-.434.496-1.097.532-1.438-.02-.28-.451-.591-.573-1.065-.554-.448.018-.792-.185-.944-.627-.193-.564.174-1.165.84-1.195a47.536 47.536 0 0 1 3.76-.004c.552.019.881.444.875.929-.005.492-.33.823-.902.896-.247.03-.499.028-.814.044zM19.317 32.923c.344.018.692.008 1.03.06.46.07.713.378.766.831.055.455-.217.915-.704.965-.74.076-1.5.075-2.243.003-.49-.049-.753-.493-.725-.952.028-.454.334-.77.842-.864a1.07 1.07 0 0 1 .187-.02c.282-.002.564 0 .847 0v-.023zM19.267 40.242c.752 0 1.505-.003 2.257.002.218.002.443.004.653.054.497.117.78.474.775.928-.006.453-.296.802-.794.92a2.49 2.49 0 0 1-.56.044c-1.537.003-3.073.008-4.61 0-.884-.006-1.358-.338-1.386-.937-.029-.63.472-.996 1.407-1.009.752-.01 1.505-.002 2.258-.002zM19.316 43.938c.31 0 .625-.029.931.006.53.06.87.44.874.923.006.48-.33.902-.852.939-.65.046-1.307.045-1.957.001-.535-.036-.866-.434-.871-.919-.005-.49.319-.875.85-.939.337-.04.683-.007 1.024-.007v-.004z" fill="#fff"></path>
		</symbol>
	
		<symbol id="other" viewBox="0 0 47 50">
			<path d="M10.133 47.929h4.817V46.15h-4.817v1.778zm-4.788-7.084v3.173c0 .825-.019 1.651.011 2.475.027.743.406 1.29 1.013 1.417.545.115 1.11.156 1.693-.053 0-.51-.004-.992.001-1.474.018-1.518.802-2.31 2.32-2.322 1.28-.01 2.56.001 3.84-.006.243-.001.486-.042.73-.065v-3.145H5.345zM2.115 4.4h20.764c.046-.22.096-.407.125-.599.22-1.494-.035-1.794-1.53-1.794-5.952-.002-11.902 0-17.853 0-.228 0-.457-.01-.683.015-.644.073-.916.36-.915 1.005 0 .424.054.848.091 1.373zM30.146 36.17c-3.878 0-7.757-.003-11.636.002-1.203.001-1.513.315-1.516 1.526-.005 2.197.034 4.394-.011 6.59-.046 2.26 1.637 3.728 3.674 3.71 6.33-.055 12.663-.056 18.993 0 2.14.019 3.715-1.588 3.655-3.632-.058-1.995-.012-3.994-.012-5.99 0-.372.016-.744-.008-1.113-.044-.69-.381-1.025-1.075-1.084-.227-.02-.456-.009-.684-.009h-11.38zM2.32 6.52L5.264 38.72c1.18.205 9.13.143 9.76-.08-.198-1.185.166-2.362.04-3.597-.176-1.75-.079-3.534-.022-5.301.045-1.396 1.155-2.433 2.564-2.484.855-.03 1.71-.003 2.566-.012.22-.002.44-.038.7-.063l1.89-20.665H2.32zm40.922 27.526c.017-.207.048-.428.05-.65.006-.77-.006-1.54.003-2.31.023-1.843.042-1.815-1.758-1.804-2.082.013-4.164.003-6.246.003-.2 0-.4.008-.599-.004-.72-.044-1.14-.42-1.141-1.014 0-.59.43-.987 1.137-1.01.598-.02 1.198-.006 1.797-.006 1.996 0 3.993-.011 5.989.004 1.687.012 2.794 1.088 2.826 2.774.031 1.626.099 3.26-.03 4.876-.066.82.011 1.609.024 2.414.037 2.424.046 4.85.004 7.274-.055 3.164-2.355 5.4-5.533 5.401-10.923.009-21.847.007-32.77.001-2.22 0-3.62-1.394-3.66-3.634a69.806 69.806 0 0 1 .001-3.594c.092-2.747-.232-5.468-.475-8.194-.26-2.925-.528-5.85-.798-8.774-.257-2.782-.528-5.563-.783-8.346-.258-2.81-.5-5.623-.755-8.434C.372 7.315.208 5.613.052 3.909A10.341 10.341 0 0 1 0 2.97C0 1.327 1.179.09 2.809.01c.142-.006.285-.004.427-.004C9.454.006 15.671.013 21.89 0c1.321-.003 2.35.472 2.908 1.695.205.449.328.998.288 1.485-.275 3.324-.609 6.643-.913 9.965-.364 3.975-.717 7.951-1.075 11.927-.061.68-.126 1.358-.2 2.14.365.015.667.033.969.037.656.008 1.314-.024 1.967.022.545.039.888.45.902.961.015.528-.288.918-.838 1.02-.249.047-.511.032-.767.032-2.31.002-4.62-.001-6.93.002-1.072.002-1.2.127-1.205 1.164-.006 1.193-.001 2.385-.001 3.553.724.196 25.354.223 26.248.043z" fill="#fff"></path><path d="M31.727 19.724c.779.118 1.418.278 2.063.302 3.477.13 6.605-1.961 7.851-5.232.378-.993.827-1.937 1.514-2.757.12-.144.216-.308.36-.515-2.747-1.677-5.515-1.893-8.318-.396-2.336 1.248-3.711 3.222-4.056 5.88.229-.094.378-.26.554-.39.64-.473 1.263-.974 1.942-1.383.46-.277.984-.07 1.258.366.276.437.193.934-.237 1.296-.173.146-.38.25-.567.38-.891.62-1.696 1.326-2.364 2.449zm-.959 1.808c-.134.652-.242 1.208-.364 1.76-.094.417-.325.733-.759.839-.394.096-.786 0-.983-.341-.159-.272-.254-.651-.208-.957.101-.672.33-1.323.467-1.99.084-.408.178-.844.12-1.245-.573-3.9 1.271-7.873 4.65-9.95 3.641-2.237 8.156-1.986 11.522.644.18.14.359.284.517.447.493.509.484 1.06-.01 1.574-.413.43-.89.819-1.218 1.307a9.497 9.497 0 0 0-.97 1.89c-1.874 4.878-7.015 7.523-12.06 6.18-.188-.05-.38-.085-.704-.159zM31.143 28.233c.018.557-.452 1.043-1.003 1.036-.502-.006-.975-.47-.993-.972-.019-.535.477-1.04 1.014-1.034.516.006.964.448.982.97zM12.555 18.229c-.417.488-.75.873-1.077 1.262-.22.26-.454.514-.648.795a2.078 2.078 0 0 0 .329 2.785 2.063 2.063 0 0 0 2.67.072c.842-.668 1.085-1.859.47-2.76-.495-.725-1.104-1.372-1.744-2.154zm-.176 7.354c-1.503-.022-2.725-.761-3.47-2.19-.726-1.393-.696-2.833.206-4.133.68-.979 1.479-1.88 2.282-2.764.649-.714 1.616-.719 2.27-.012.791.856 1.58 1.73 2.247 2.683.943 1.348 1.005 2.835.225 4.286-.765 1.424-2.004 2.13-3.76 2.13zM34.666 40.992h-8.982v2.12c1.167.164 8.348.117 8.982-.058v-2.062zm-4.622 4.24c-1.654 0-3.309.004-4.963 0-1.202-.004-1.478-.271-1.485-1.44-.006-1.17-.008-2.34.001-3.509.009-1.043.332-1.362 1.4-1.364 3.45-.006 6.901-.007 10.352 0 1.014.003 1.346.326 1.36 1.323.016 1.226.016 2.453 0 3.68-.014 1.004-.332 1.304-1.36 1.308-1.768.008-3.537.002-5.305.002z" fill="#fff"></path>
		</symbol>
	
</svg>
