<svg width="45" height="61" viewBox="0 0 45 61" fill="none" xmlns="http://www.w3.org/2000/svg">
<path d="M23.173 45.1638C26.6854 38.8696 32.7922 33.4718 39.9451 30.3471C39.4926 29.5875 39.0466 28.8389 38.5899 28.0732C38.1974 28.1307 37.8657 28.1406 37.5578 28.2306C36.2992 28.5981 35.0184 28.9158 33.7996 29.3889C31.2927 30.3619 28.8302 31.4482 26.3306 32.4405C24.252 33.2659 22.1162 33.9017 19.8666 34.0624C16.3522 34.314 13.119 33.3259 10.0012 31.8264C9.7213 31.6916 9.43727 31.5646 9.09981 31.4084C8.9765 31.8091 8.91484 32.0989 8.79893 32.3649C8.58971 32.8458 8.69535 33.203 9.04679 33.6013C11.4834 36.3593 13.9739 39.0623 16.7628 41.4739C18.1057 42.6355 19.4913 43.7396 21.08 44.5559C21.7212 44.8847 22.3698 45.2021 23.173 45.1638ZM9.57703 29.9101C14.0578 32.3673 18.6396 33.5174 23.5623 31.8071C26.0713 30.9357 28.5013 29.8402 30.9889 28.9047C32.9525 28.1669 34.9501 27.5191 36.933 26.8318C37.1081 26.7714 37.2857 26.7176 37.5997 26.616C37.0863 25.8967 36.6436 25.2596 36.1833 24.6356C35.2864 23.4194 34.4199 22.1772 33.4675 21.0053C31.3137 18.3554 30.8299 15.3071 31.4238 12.0784C31.9586 9.17518 32.7071 6.31147 33.3611 3.43007C33.5427 2.62978 33.7203 1.82824 33.9028 1.02795C33.939 0.868053 33.9727 0.705284 34.0339 0.55402C34.186 0.177097 34.4655 -0.0419846 34.8782 0.0496788C35.2839 0.139694 35.4981 0.440983 35.4409 0.852432C35.3645 1.40405 35.2527 1.95238 35.1257 2.49495C34.4298 5.46883 33.7026 8.43572 33.0368 11.4158C32.8444 12.2761 32.7737 13.1713 32.7244 14.0542C32.6072 16.1596 33.1444 18.0602 34.4343 19.7776C36.2684 22.2191 38.065 24.6924 39.7893 27.2133C41.3328 29.4707 42.5885 31.8917 43.3641 34.5364C44.2857 37.6788 44.462 40.8865 44.0041 44.1058C43.3008 49.049 42.4948 53.9774 41.7286 58.9115C41.6937 59.1376 41.646 59.3682 41.5584 59.5774C41.4191 59.912 41.1495 60.1088 40.7791 60.0308C40.4322 59.9576 40.181 59.7327 40.1786 59.3505C40.1765 59.0566 40.2152 58.7602 40.2612 58.4688C40.9883 53.8614 41.7451 49.2582 42.4418 44.6459C42.9584 41.2261 42.8602 37.8263 41.7845 34.5047C41.503 33.6337 41.1371 32.7903 40.8136 31.9444C40.0442 31.8083 39.4502 32.1129 38.8612 32.369C37.2257 33.0805 35.7435 34.0559 34.3225 35.1233C31.3951 37.3236 28.7052 39.7763 26.4515 42.677C25.9895 43.2718 25.5825 43.913 25.1879 44.5563C24.6454 45.4421 24.3959 46.4023 24.3934 47.4595C24.3885 49.5961 24.2808 51.7323 24.2705 53.8693C24.2623 55.4789 24.3387 57.0889 24.3786 58.6986C24.3831 58.8955 24.4045 59.0932 24.3975 59.2892C24.3819 59.706 24.1599 59.9901 23.7526 60.0357C23.344 60.0813 23.0534 59.8622 22.9827 59.4413C22.9182 59.0537 22.8614 58.6603 22.8536 58.2682C22.8347 57.3532 22.8475 56.4378 22.8475 55.5225L22.6502 55.4719C22.5412 55.6433 22.4183 55.8073 22.3263 55.9865C21.7134 57.1855 21.1223 58.3956 20.4914 59.5848C20.2493 60.0406 19.8695 60.1532 19.5111 59.9749C19.1082 59.7751 18.9989 59.4125 19.2081 58.8852C19.3166 58.6114 19.4576 58.3496 19.5908 58.0861C19.9611 57.3528 20.3734 56.6384 20.699 55.8866C21.378 54.321 22.0131 52.7368 22.6609 51.158C22.7353 50.9776 22.8236 50.784 22.8257 50.5957C22.8405 49.3507 22.8335 48.1048 22.8335 46.7772C22.4619 46.6625 22.027 46.5425 21.602 46.3941C19.7733 45.7549 18.2323 44.6356 16.7476 43.4346C13.8757 41.1118 11.3556 38.4298 8.89799 35.6852C8.72289 35.4896 8.54902 35.2923 8.36528 35.1048C8.32582 35.0654 8.24649 35.065 8.07796 35.0136C7.80174 36.2862 7.48524 37.5448 7.25999 38.8194C6.60274 42.5385 5.94672 46.2588 5.35687 49.989C4.885 52.9732 4.51095 55.973 4.09375 58.9657C4.08512 59.0307 4.08635 59.0973 4.0769 59.1622C3.98647 59.7475 3.64982 60.0982 3.22563 60.0513C2.78705 60.0028 2.51083 59.5844 2.57824 59.0048C2.6921 58.0261 2.81007 57.047 2.96051 56.0737C3.73779 51.0425 4.48917 46.0073 5.32029 40.9848C6.05071 36.5723 7.18518 32.2555 8.55806 27.9955C9.51619 25.0237 10.2413 21.9824 10.7037 18.893C11.0074 16.8645 10.7933 14.8229 10.4813 12.8043C9.97903 9.55827 9.43933 6.31845 8.93211 3.07328C8.82565 2.39219 8.77961 1.70124 8.72864 1.01315C8.68343 0.405224 8.95389 0.0213127 9.40398 0.000762939C9.80639 -0.0177345 10.12 0.299591 10.2002 0.837231C10.8352 5.09273 11.446 9.35193 12.1045 13.6041C12.6343 17.0252 12.13 20.3534 11.2828 23.652C10.7929 25.5601 10.2363 27.4505 9.71103 29.3495C9.66869 29.5032 9.63622 29.6598 9.57703 29.9101Z" fill="white"/>
<path d="M39.9237 11.2859C40.2168 11.572 40.7832 12.1249 41.0816 12.4163C41.4635 12.0402 42.0295 11.4828 42.3633 11.154C42.0554 10.796 41.5354 10.1905 41.2559 9.86537C40.8128 10.3381 40.2851 10.9008 39.9237 11.2859ZM41.1195 15.1633C40.8215 14.9651 40.5263 14.8229 40.3064 14.6055C40.1272 14.4287 40.0249 14.1677 39.9114 13.933C39.5855 13.2606 39.1107 12.7616 38.4165 12.4455C37.8842 12.203 37.3009 11.928 37.2951 11.2152C37.2898 10.5045 37.8492 10.2209 38.3918 9.97224C39.1115 9.643 39.6122 9.11563 39.9451 8.40659C40.0553 8.17106 40.1765 7.92896 40.3455 7.73577C40.7997 7.21786 41.5231 7.23348 41.9715 7.75591C42.0986 7.90347 42.2157 8.07241 42.2868 8.25121C42.6333 9.12591 43.2696 9.69725 44.1114 10.0734C44.2886 10.1523 44.4608 10.2608 44.6067 10.3882C45.1308 10.8486 45.1304 11.5523 44.6096 12.0106C44.4884 12.117 44.3482 12.2141 44.2002 12.2778C43.2877 12.6703 42.6161 13.2947 42.2408 14.2298C42.1697 14.4074 42.0546 14.5936 41.9074 14.7087C41.6859 14.8817 41.4179 14.9956 41.1195 15.1633Z" fill="white"/>
<path d="M4.31937 27.1901C4.24333 27.2374 4.16688 27.2847 4.09084 27.3328C3.81133 26.9118 3.53182 26.4914 3.2556 26.075C2.88402 26.4696 2.55807 26.8153 2.35953 27.0265C2.70234 27.4495 3.0061 27.8235 3.26094 28.138C3.60499 27.8301 3.96218 27.5099 4.31937 27.1901ZM6.72478 27.1157C6.46912 27.4631 6.32525 27.8515 6.05232 27.9941C5.20517 28.4364 4.60381 29.0525 4.14386 29.8948C3.73775 30.6379 2.8088 30.6145 2.40721 29.8537C1.99001 29.0641 1.44086 28.5034 0.653715 28.0755C-0.220568 27.6003 -0.218102 26.7084 0.662347 26.2271C1.44908 25.7967 1.98877 25.229 2.41009 24.4436C2.81702 23.6856 3.72295 23.6827 4.1566 24.4263C4.61573 25.2134 5.1357 25.8699 5.98614 26.2694C6.26976 26.4022 6.43993 26.7766 6.72478 27.1157Z" fill="white"/>
<path d="M20.0573 20.61C20.0462 20.8036 20.0577 21.0026 20.0179 21.1904C19.9398 21.5624 19.6681 21.724 19.3101 21.7244C18.9442 21.7244 18.6713 21.5443 18.624 21.1695C18.5801 20.8197 18.5673 20.4567 18.6088 20.1077C18.6549 19.7148 18.8937 19.4517 19.3249 19.4649C19.7421 19.478 19.9747 19.7222 20.0339 20.1246C20.0569 20.2828 20.0376 20.4477 20.0376 20.6096C20.0442 20.6096 20.0508 20.61 20.0573 20.61Z" fill="white"/>
</svg>
