<svg width="147" height="196" viewBox="0 0 147 196" fill="none" xmlns="http://www.w3.org/2000/svg">
<path d="M75.9779 147.455C87.3712 127.038 107.181 109.528 130.383 99.3924C128.915 96.9284 127.469 94.5004 125.987 92.0164C124.714 92.2031 123.638 92.2351 122.639 92.5271C118.557 93.7191 114.402 94.7497 110.449 96.2844C102.317 99.4404 94.3285 102.964 86.2205 106.183C79.4779 108.86 72.5499 110.923 65.2525 111.444C53.8525 112.26 43.3645 109.055 33.2512 104.191C32.3432 103.754 31.4219 103.342 30.3272 102.835C29.9272 104.135 29.7272 105.075 29.3512 105.938C28.6725 107.498 29.0152 108.656 30.1552 109.948C38.0592 118.895 46.1379 127.663 55.1845 135.486C59.5405 139.254 64.0352 142.835 69.1885 145.483C71.2685 146.55 73.3725 147.579 75.9779 147.455ZM31.8752 97.9751C46.4099 105.946 61.2725 109.676 77.2405 104.128C85.3792 101.302 93.2619 97.7484 101.331 94.7137C107.701 92.3204 114.181 90.2191 120.613 87.9897C121.181 87.7937 121.757 87.6191 122.775 87.2897C121.11 84.9564 119.674 82.8897 118.181 80.8657C115.271 76.9204 112.461 72.8911 109.371 69.0897C102.385 60.4937 100.815 50.6057 102.742 40.1324C104.477 30.7151 106.905 21.4257 109.026 12.0791C109.615 9.48308 110.191 6.88306 110.783 4.28706C110.901 3.7684 111.01 3.2404 111.209 2.74973C111.702 1.52707 112.609 0.816406 113.947 1.11374C115.263 1.40575 115.958 2.38306 115.773 3.71773C115.525 5.50706 115.162 7.28574 114.75 9.04573C112.493 18.6924 110.134 28.3164 107.974 37.9831C107.35 40.7737 107.121 43.6777 106.961 46.5417C106.581 53.3711 108.323 59.5364 112.507 65.1071C118.457 73.0271 124.285 81.0497 129.878 89.2271C134.885 96.5497 138.958 104.403 141.474 112.982C144.463 123.175 145.035 133.58 143.55 144.023C141.269 160.058 138.654 176.044 136.169 192.05C136.055 192.783 135.901 193.531 135.617 194.21C135.165 195.295 134.29 195.934 133.089 195.68C131.963 195.443 131.149 194.714 131.141 193.474C131.134 192.52 131.259 191.559 131.409 190.614C133.767 175.668 136.222 160.736 138.482 145.775C140.158 134.682 139.839 123.654 136.35 112.879C135.437 110.054 134.25 107.318 133.201 104.574C130.705 104.132 128.778 105.12 126.867 105.951C121.562 108.259 116.754 111.423 112.145 114.886C102.649 122.023 93.9232 129.979 86.6125 139.388C85.1139 141.318 83.7939 143.398 82.5139 145.484C80.7539 148.358 79.9445 151.472 79.9365 154.902C79.9205 161.832 79.5712 168.762 79.5379 175.694C79.5112 180.915 79.7592 186.138 79.8885 191.359C79.9032 191.998 79.9725 192.639 79.9499 193.275C79.8992 194.627 79.1792 195.548 77.8579 195.696C76.5325 195.844 75.5899 195.134 75.3605 193.768C75.1512 192.511 74.9672 191.235 74.9419 189.963C74.8805 186.995 74.9219 184.026 74.9219 181.056L74.2819 180.892C73.9285 181.448 73.5299 181.98 73.2312 182.562C71.2432 186.451 69.3259 190.376 67.2792 194.234C66.4939 195.712 65.2619 196.078 64.0992 195.499C62.7925 194.851 62.4379 193.675 63.1165 191.964C63.4685 191.076 63.9259 190.227 64.3579 189.372C65.5592 186.994 66.8965 184.676 67.9525 182.238C70.1552 177.159 72.2152 172.02 74.3165 166.899C74.5579 166.314 74.8445 165.686 74.8512 165.075C74.8992 161.036 74.8765 156.995 74.8765 152.688C73.6712 152.316 72.2605 151.927 70.8819 151.446C64.9499 149.372 59.9512 145.742 55.1352 141.846C45.8192 134.311 37.6445 125.611 29.6725 116.708C29.1045 116.074 28.5405 115.434 27.9445 114.826C27.8165 114.698 27.5592 114.696 27.0125 114.53C26.1165 118.658 25.0899 122.74 24.3592 126.875C22.2272 138.939 20.0992 151.007 18.1859 163.107C16.6552 172.787 15.4419 182.518 14.0885 192.226C14.0605 192.436 14.0645 192.652 14.0339 192.863C13.7405 194.762 12.6485 195.899 11.2725 195.747C9.84985 195.59 8.95385 194.232 9.17252 192.352C9.54185 189.178 9.92452 186.002 10.4125 182.844C12.9339 166.524 15.3712 150.191 18.0672 133.899C20.4365 119.586 24.1165 105.583 28.5699 91.7644C31.6779 82.1244 34.0299 72.2591 35.5299 62.2377C36.5152 55.6577 35.8205 49.0351 34.8085 42.4871C33.1792 31.9577 31.4285 21.4484 29.7832 10.9217C29.4379 8.71239 29.2885 6.47107 29.1232 4.23907C28.9765 2.26707 29.8539 1.02174 31.3139 0.955078C32.6192 0.895065 33.6365 1.92441 33.8965 3.66841C35.9565 17.4724 37.9379 31.2884 40.0739 45.0817C41.7925 56.1791 40.1565 66.9751 37.4085 77.6751C35.8192 83.8644 34.0139 89.9964 32.3099 96.1564C32.1725 96.6551 32.0672 97.1631 31.8752 97.9751Z" fill="black"/>
<path d="M130.314 37.5619C131.265 38.4899 133.102 40.2832 134.07 41.2286C135.309 40.0086 137.145 38.2006 138.227 37.1339C137.229 35.9726 135.542 34.0086 134.635 32.9539C133.198 34.4872 131.486 36.3126 130.314 37.5619ZM134.193 50.1392C133.226 49.4966 132.269 49.0352 131.555 48.3299C130.974 47.7566 130.642 46.9099 130.274 46.1486C129.217 43.9672 127.677 42.3486 125.425 41.3232C123.698 40.5366 121.806 39.6446 121.787 37.3326C121.77 35.0272 123.585 34.1072 125.345 33.3006C127.679 32.2326 129.303 30.5219 130.383 28.2219C130.741 27.4579 131.134 26.6726 131.682 26.0459C133.155 24.3659 135.502 24.4166 136.957 26.1112C137.369 26.5899 137.749 27.1379 137.979 27.7179C139.103 30.5552 141.167 32.4086 143.898 33.6286C144.473 33.8846 145.031 34.2366 145.505 34.6499C147.205 36.1432 147.203 38.4259 145.514 39.9126C145.121 40.2579 144.666 40.5726 144.186 40.7792C141.226 42.0526 139.047 44.0779 137.83 47.1112C137.599 47.6872 137.226 48.2912 136.749 48.6646C136.03 49.2259 135.161 49.5952 134.193 50.1392Z" fill="black"/>
<path d="M14.8204 89.1518C14.5737 89.3051 14.3257 89.4584 14.0791 89.6144C13.1724 88.2491 12.2657 86.8851 11.3697 85.5344C10.1644 86.8144 9.10706 87.9358 8.46306 88.6211C9.57506 89.9931 10.5604 91.2064 11.3871 92.2264C12.5031 91.2278 13.6617 90.1891 14.8204 89.1518ZM22.6231 88.9104C21.7937 90.0371 21.3271 91.2971 20.4417 91.7598C17.6937 93.1944 15.7431 95.1931 14.2511 97.9251C12.9337 100.336 9.92039 100.26 8.61773 97.7918C7.26439 95.2304 5.48306 93.4118 2.92973 92.0238C0.0937254 90.4824 0.101725 87.5891 2.95773 86.0278C5.50973 84.6318 7.26039 82.7904 8.62706 80.2424C9.94706 77.7838 12.8857 77.7744 14.2924 80.1864C15.7817 82.7398 17.4684 84.8691 20.2271 86.1651C21.1471 86.5958 21.6991 87.8104 22.6231 88.9104Z" fill="black"/>
<path d="M65.8712 67.8074C65.8352 68.4354 65.8725 69.0807 65.7432 69.6901C65.4899 70.8967 64.6085 71.4207 63.4472 71.4221C62.2605 71.4221 61.3752 70.8381 61.2219 69.6221C61.0792 68.4874 61.0379 67.3101 61.1725 66.1781C61.3219 64.9034 62.0965 64.0501 63.4952 64.0927C64.8485 64.1354 65.6032 64.9274 65.7952 66.2327C65.8699 66.7461 65.8072 67.2807 65.8072 67.8061C65.8285 67.8061 65.8499 67.8074 65.8712 67.8074Z" fill="black"/>
</svg>
