<svg width="161" height="160" viewBox="0 0 161 160" fill="none" xmlns="http://www.w3.org/2000/svg">
<path d="M124.178 53.8119C120.136 55.7612 116.392 57.6039 112.609 59.3639C111.726 59.7759 111.43 60.2626 111.437 61.2319C111.481 68.2786 111.461 75.3226 111.461 82.3679V84.2932C115.661 82.2666 119.654 80.3612 123.613 78.3812C123.932 78.2212 124.142 77.5519 124.153 77.1132C124.208 74.9906 124.178 72.8652 124.178 70.7412V53.8119ZM42.3104 23.6119C42.697 23.8412 42.945 24.0159 43.2157 24.1466C64.817 34.5839 86.417 45.0239 108.04 55.4159C108.57 55.6719 109.449 55.6026 110.006 55.3426C113.713 53.6239 117.376 51.8132 121.052 50.0279C121.442 49.8372 121.817 49.6132 122.378 49.3079C121.693 48.9452 121.21 48.6706 120.712 48.4292C112.562 44.4932 104.408 40.5626 96.2584 36.6279C83.1717 30.3079 70.089 23.9799 56.9877 17.6879C56.4437 17.4252 55.6157 17.2212 55.1304 17.4466C50.8717 19.4226 46.6597 21.5026 42.3104 23.6119ZM61.213 14.3692C61.9504 14.7612 62.433 15.0399 62.933 15.2826C84.2024 25.5546 105.476 35.8172 126.733 46.1146C127.682 46.5746 128.421 46.5212 129.333 46.0746C134.812 43.3879 140.316 40.7532 145.808 38.0946C146.213 37.8986 146.597 37.6559 147.157 37.3426C142.274 34.9826 137.58 32.7119 132.884 30.4452C115.793 22.1959 98.7037 13.9426 81.597 5.72389C81.0277 5.45056 80.1517 5.26256 79.6397 5.50389C73.5624 8.36522 67.5264 11.3132 61.213 14.3692ZM150.378 41.2799C150.004 41.4026 149.758 41.4532 149.538 41.5599C142.973 44.7292 136.421 47.9292 129.833 51.0532C128.904 51.4932 128.892 52.1039 128.893 52.9052C128.905 61.5119 128.865 70.1186 128.929 78.7266C128.942 80.4799 128.273 81.5052 126.726 82.2332C121.534 84.6799 116.377 87.1986 111.208 89.6932C108.144 91.1719 106.693 90.2839 106.69 86.8999C106.682 78.5012 106.661 70.1012 106.717 61.7012C106.725 60.4959 106.374 59.8772 105.269 59.3452C82.749 48.5212 60.2477 37.6599 37.757 26.7772C36.9277 26.3746 36.3077 26.3586 35.4744 26.7679C29.2064 29.8399 22.9104 32.8532 16.6224 35.8866C15.6784 36.3426 14.7384 36.8052 13.573 37.3732C14.2744 37.7252 14.7264 37.9586 15.1837 38.1799C31.013 45.8279 46.8437 53.4746 62.6717 61.1226C63.1837 61.3706 63.721 61.5906 64.1837 61.9119C65.2717 62.6719 65.5597 63.7572 65.013 64.9199C64.4864 66.0426 63.4677 66.4052 62.2677 66.1039C61.8237 65.9919 61.4037 65.7692 60.9864 65.5679C47.521 59.0746 34.057 52.5786 20.593 46.0812C17.2517 44.4692 13.9117 42.8572 10.3717 41.1479V42.8879C10.3717 68.2946 10.3837 93.7026 10.3357 119.109C10.333 120.363 10.7664 120.905 11.8184 121.411C30.4144 130.349 48.9917 139.323 67.5744 148.287C70.961 149.921 74.3464 151.557 77.9597 153.3V151.265V77.9999C77.9597 76.9106 78.0504 75.8106 77.9184 74.7372C77.857 74.2372 77.473 73.5919 77.045 73.3572C75.4584 72.4892 73.7824 71.7879 72.1637 70.9786C70.6437 70.2159 70.1437 68.9679 70.7704 67.6786C71.3864 66.4106 72.697 66.0252 74.229 66.7226C75.6877 67.3866 77.185 67.9999 78.5464 68.8306C79.8717 69.6399 80.9597 69.4639 82.2784 68.8012C86.9477 66.4586 91.669 64.2226 96.381 61.9666C97.9224 61.2279 99.201 61.5359 99.885 62.7279C100.649 64.0586 100.118 65.3892 98.4104 66.2239C93.717 68.5146 89.029 70.8186 84.2944 73.0226C83.1464 73.5586 82.7597 74.1866 82.761 75.4559C82.801 100.811 82.7904 126.167 82.7944 151.521C82.7944 152.057 82.8464 152.591 82.8824 153.251C83.4384 152.993 83.8104 152.827 84.177 152.649C105.84 142.191 127.498 131.725 149.178 121.3C150.13 120.841 150.402 120.321 150.401 119.308C150.373 93.7452 150.378 68.1826 150.378 42.6199V41.2799ZM81.309 0.135895C85.6544 2.28522 89.9837 4.46922 94.3477 6.57855C113.81 15.9826 133.276 25.3799 152.762 34.7346C154.43 35.5346 155.092 36.5772 155.088 38.4626C155.036 66.0506 155.037 93.6386 155.085 121.228C155.088 123.056 154.409 124.055 152.806 124.825C129.32 136.121 105.849 147.453 82.3904 158.811C81.0117 159.477 79.8384 159.515 78.4357 158.836C54.9677 147.468 31.485 136.129 7.98237 124.835C6.3037 124.027 5.66237 122.983 5.66504 121.109C5.71437 93.5719 5.71704 66.0359 5.66237 38.4999C5.65837 36.5399 6.38237 35.5146 8.09837 34.6906C31.4637 23.4666 54.8024 12.1892 78.1437 0.918564C78.597 0.69989 79.0104 0.39856 79.4424 0.135895H81.309Z" fill="black"/>
<path d="M38.1095 109.74C37.8455 109.65 37.2895 109.518 36.7868 109.275C30.3601 106.186 23.9401 103.084 17.5241 99.975C15.8601 99.1683 15.2748 97.9696 15.8601 96.6656C16.4868 95.267 17.8468 94.8816 19.5521 95.7003C26.0241 98.8056 32.4855 101.935 38.9535 105.05C40.1241 105.614 40.9655 106.434 40.7028 107.823C40.4788 109.012 39.6815 109.71 38.1095 109.74Z" fill="black"/>
<path d="M30.9421 113.277C30.9061 115.475 29.3301 116.638 27.8075 115.947C24.1475 114.285 20.5288 112.529 16.9341 110.733C15.6515 110.091 15.3128 108.734 15.9315 107.566C16.5475 106.405 17.7861 105.961 19.1008 106.578C22.5995 108.222 26.0981 109.87 29.5301 111.645C30.2381 112.013 30.6581 112.934 30.9421 113.277Z" fill="black"/>
</svg>
