<svg width="185" height="188" viewBox="0 0 185 188" fill="none" xmlns="http://www.w3.org/2000/svg">
<path d="M163.762 97.3171C161.342 97.3904 159.343 99.4584 159.366 101.869C159.391 104.43 161.567 106.44 164.16 106.289C166.65 106.146 168.468 104.128 168.359 101.629C168.251 99.1704 166.196 97.2437 163.762 97.3171ZM41.0192 153.224C43.7565 150.122 46.6525 146.842 49.5018 143.616C48.0045 142.236 46.3205 140.918 44.9338 139.34C43.4938 137.698 42.3405 135.805 41.2058 134.224C38.3485 137.458 35.4498 140.742 32.7405 143.808C35.4738 146.917 38.3112 150.144 41.0192 153.224ZM171.106 111.173C168.155 111.785 165.923 112.482 163.65 112.662C160.742 112.893 159.928 113.372 159.462 116.168C159.027 118.776 163.436 124.577 166.067 124.86C169.807 125.261 172.986 123.396 174.23 120.069C175.572 116.472 174.282 113.173 171.106 111.173ZM137.96 106.51C139.043 105.294 140.187 104.189 141.122 102.928C144.352 98.5597 145.23 93.4251 145.588 88.1904C145.867 84.1397 145.583 80.0997 144.108 76.2557C143.239 73.9957 142.222 73.3997 140.303 73.7504C137.955 74.1797 137.595 74.7971 137.387 77.4211C136.746 85.4664 136.164 93.5224 135.211 101.533C134.923 103.948 135.255 105.42 137.96 106.51ZM19.2445 74.9064C18.9858 74.7691 18.4538 74.4037 17.8645 74.1837C14.8965 73.0717 13.6178 73.6824 12.5058 76.7251C12.2872 77.3224 12.1152 77.9411 11.9858 78.5637C11.0005 83.3171 11.0578 88.0744 11.8098 92.8611C12.3645 96.3931 13.4432 99.7064 15.4912 102.64C17.3338 105.277 19.5658 107.492 22.6552 108.553C21.5192 97.3477 20.3952 86.2504 19.2445 74.9064ZM143.78 119.378C144.215 128.24 141.106 135.336 133.931 140.396C136.956 145.921 144.144 148.23 150.375 145.785C156.644 143.325 160.228 136.553 158.735 129.984C157.172 123.096 151.166 118.686 143.78 119.378ZM58.5912 30.2064C59.4618 30.6944 59.9872 31.0291 60.5458 31.2917C66.5525 34.1158 72.9898 34.8277 79.5032 34.9971C85.9938 35.1664 92.4885 35.1597 98.9805 35.2478C100.275 35.2651 101.567 35.3651 103.106 35.4384C98.6952 29.6091 83.8885 17.7157 78.0072 15.2144C71.1752 19.5038 64.6058 24.2811 58.5912 30.2064ZM106.543 122.206C106.599 130.764 113.579 137.617 122.112 137.492C130.49 137.37 137.331 130.45 137.338 122.089C137.346 113.556 130.41 106.672 121.831 106.698C113.178 106.726 106.486 113.514 106.543 122.206ZM71.8832 11.3851C69.3058 10.1784 67.2752 9.31709 65.3312 8.29042C63.6445 7.39842 62.1778 7.58109 60.5352 8.47041C52.2005 12.9864 44.8818 18.7464 38.7085 25.9531C38.0872 26.6784 37.4818 27.4491 36.7392 28.0358C35.4085 29.0878 33.8378 28.9904 32.6632 27.8984C31.4925 26.8091 31.3578 25.4798 32.0192 24.1077C32.3365 23.4518 32.8805 22.8997 33.3512 22.3251C37.4925 17.2651 42.2898 12.9037 47.5205 9.00108C48.1525 8.53043 48.7538 8.01442 49.7765 7.19176H8.56449C3.61516 27.1451 10.2698 53.4864 21.7632 66.5824C27.9805 55.7984 35.0418 45.6958 43.2525 36.4277C51.5552 27.0571 60.7872 18.7304 71.8832 11.3851ZM135.099 66.7717C148.146 50.0437 152.624 24.2131 147.955 7.20775C141.271 6.53709 80.8005 6.83308 78.6138 7.56642C102.63 22.2571 120.719 42.5878 135.099 66.7717ZM36.2432 127.374C36.6578 126.013 36.9138 125.432 37.0045 124.825C37.2978 122.825 37.4552 120.802 37.8072 118.814C38.2992 116.038 41.1258 114.773 42.9952 116.55C43.6698 117.192 44.0205 118.388 44.1272 119.373C44.5285 123.102 45.1498 126.77 46.7165 130.202C49.2765 135.81 53.3952 139.482 59.6818 140.344C60.8418 140.501 62.0138 140.574 63.1672 140.768C64.8938 141.057 65.8698 142.166 65.9072 143.766C65.9445 145.34 64.9898 146.609 63.3445 146.973C62.5218 147.154 61.6472 147.081 60.8018 147.173C58.0232 147.474 55.3738 148.136 52.8685 150.136C62.8472 158.117 73.9885 160.764 86.2512 158.568C97.1152 156.621 105.355 150.494 112.067 141.885C101.36 134.466 97.5498 124.84 101.127 114.828C102.794 110.166 105.666 106.405 109.839 103.706C115.626 99.9637 121.908 99.3224 128.582 101.134C128.788 100.405 129.01 99.9197 129.052 99.4197C129.71 91.6731 130.327 83.9237 130.994 76.1784C131.175 74.0757 130.64 72.2397 129.592 70.4118C125.236 62.8184 120.444 55.5304 115.046 48.6357C110.511 42.8424 110.543 42.6184 103.187 42.1931C94.8978 41.7131 86.5845 41.5771 78.2792 41.4411C70.2632 41.3104 62.6338 39.7491 55.5112 35.9744C54.8792 35.6384 54.1858 35.4144 53.6205 35.1797C53.2818 35.4117 53.0805 35.5064 52.9378 35.6557C42.7285 46.2051 34.1018 57.9344 26.9258 70.7291C26.4352 71.6024 26.1818 72.7384 26.1978 73.7477C26.3712 85.8117 27.2605 97.8131 30.0365 109.592C31.4272 115.49 33.2578 121.261 36.2432 127.374ZM13.7352 67.1504C9.75117 60.6718 6.64983 54.3651 4.54583 47.6251C0.176496 33.6317 -1.0675 19.4451 2.2605 5.03175C3.22183 0.870422 3.57783 0.61441 7.87383 0.613083C53.5112 0.610413 99.1458 0.611755 144.783 0.611755C146.488 0.611755 148.195 0.581085 149.9 0.619751C152.748 0.683746 153.543 1.19176 154.144 3.91576C154.855 7.13441 155.578 10.3851 155.855 13.6597C157.424 32.1771 153.559 49.4784 143.936 65.4357C143.664 65.8864 143.434 66.3611 143.067 67.0397C149.46 69.2784 150.911 74.6064 151.68 80.4344C152.418 86.0117 152.05 91.5131 150.771 96.9504C149.547 102.148 147.091 106.702 143.175 110.404C142.712 110.84 142.262 111.289 141.816 111.741C141.747 111.81 141.738 111.937 141.536 112.493C143.574 112.568 145.499 112.504 147.386 112.744C149.266 112.984 151.107 113.528 153.06 113.957C153.855 112.294 154.626 110.686 155.372 109.129C151.968 102.794 152.136 98.4584 155.896 94.3464C158.979 90.9744 163.991 89.9251 168.219 91.7637C173.118 93.8957 174.992 97.8251 174.551 105.308C180.136 109.605 182.699 115.284 180.163 122.296C177.818 128.777 172.58 131.465 165.771 131.622C165.255 141.925 160.864 149.636 150.548 152.405C140.936 154.985 133.207 151.484 127.71 143.552C124.93 143.68 122.392 143.869 119.852 143.886C118.514 143.896 118.043 144.846 117.406 145.662C113.507 150.654 109.06 155.054 103.71 158.505C87.5298 168.94 65.5405 168.049 50.2725 156.321C49.6938 155.877 49.1018 155.452 48.3592 154.901C46.2925 157.758 45.3872 160.888 44.7418 164.1C44.4285 165.662 44.3512 167.27 44.1285 168.853C43.8632 170.736 42.6845 171.926 41.0912 171.981C39.5298 172.034 38.1872 170.86 37.8285 169.033C37.6845 168.306 37.7058 167.548 37.6405 166.804C37.3098 163.045 36.3698 159.457 34.5978 156.112C31.7232 150.688 27.2085 147.728 21.1018 147.178C20.1512 147.093 19.1538 147.129 18.2645 146.841C16.8192 146.373 15.9912 145.265 16.0112 143.7C16.0325 142.212 17.2325 141.004 18.8765 140.765C20.4552 140.538 22.0672 140.5 23.6205 140.164C27.1618 139.397 30.1312 137.644 32.3298 134.769C30.5485 130.553 28.4872 126.544 27.1738 122.304C25.9645 118.408 24.2192 115.916 20.0712 114.448C13.9912 112.296 9.9645 107.484 7.53783 101.498C4.21917 93.3184 4.0925 84.8611 5.8525 76.3544C6.73383 72.0971 8.9365 68.6451 13.7352 67.1504Z" fill="black"/>
<path d="M177.742 165.517C177.688 160.416 173.68 156.508 168.52 156.524C163.416 156.54 159.36 160.544 159.33 165.596C159.302 170.749 163.53 174.866 168.753 174.773C173.834 174.681 177.796 170.602 177.742 165.517ZM168.66 181.254C159.998 181.3 152.921 174.345 152.872 165.741C152.822 157.16 159.842 150.033 168.441 149.934C177.016 149.837 184.142 156.892 184.19 165.522C184.238 174.2 177.32 181.209 168.66 181.254Z" fill="black"/>
<path d="M134.447 162.666C132.931 162.596 131.619 163.796 131.493 165.364C131.355 167.122 132.543 168.485 134.252 168.528C135.783 168.565 137.144 167.374 137.283 165.877C137.425 164.317 136.033 162.74 134.447 162.666ZM124.873 165.746C124.805 160.67 128.972 156.348 134.069 156.204C139.308 156.057 143.716 160.284 143.788 165.525C143.859 170.71 139.475 175.129 134.288 175.102C129.231 175.076 124.944 170.814 124.873 165.746Z" fill="black"/>
<path d="M25.5977 175.1C24.5404 175.1 23.4711 175.198 22.4271 175.078C20.3991 174.844 19.1391 173.544 19.1417 171.856C19.1444 170.1 20.3231 168.877 22.4497 168.756C24.5551 168.636 26.6817 168.637 28.7857 168.797C30.6497 168.94 31.7764 170.256 31.7657 171.877C31.7564 173.35 30.7111 174.562 29.0751 174.989C28.8724 175.044 28.6604 175.093 28.4524 175.096C27.5004 175.106 26.5484 175.1 25.5977 175.1Z" fill="black"/>
<path d="M19.2723 162.626C19.2723 163.684 19.3749 164.754 19.2496 165.796C19.0336 167.602 17.7256 168.825 16.1683 168.854C14.6429 168.884 13.0976 167.678 12.9576 165.918C12.7723 163.609 12.7603 161.257 12.9843 158.953C13.1549 157.192 14.7589 156.118 16.3563 156.25C17.8803 156.377 19.0176 157.424 19.2296 159.141C19.3696 160.286 19.2549 161.464 19.2549 162.626H19.2723Z" fill="black"/>
<path d="M6.72009 175.225C5.36676 175.123 4.17343 175.167 3.04409 174.919C1.35476 174.549 0.436094 173.257 0.513428 171.703C0.590761 170.131 1.58676 168.934 3.35876 168.818C5.68943 168.665 8.04009 168.726 10.3774 168.829C12.0188 168.898 12.8041 170.046 13.0188 171.558C13.2348 173.089 12.2988 174.51 10.6601 174.871C9.32543 175.165 7.91876 175.129 6.72009 175.225Z" fill="black"/>
<path d="M19.2553 181.073C19.2553 182.236 19.3673 183.41 19.2287 184.556C19.018 186.293 17.918 187.314 16.3767 187.45C14.8753 187.582 13.2593 186.673 13.1113 185.073C12.87 182.472 12.8993 179.813 13.1407 177.21C13.282 175.696 14.6433 174.954 16.15 174.889C17.5967 174.825 18.8633 176.008 19.218 177.59C19.2647 177.796 19.2967 178.009 19.298 178.218C19.3073 179.17 19.302 180.121 19.302 181.073H19.2553Z" fill="black"/>
<path d="M87.2475 128.6C84.4955 127.577 81.7488 126.54 78.9862 125.548C78.6115 125.414 78.1102 125.4 77.7408 125.533C74.9728 126.525 72.2222 127.568 69.4675 128.594C75.4395 131.957 81.2648 131.952 87.2475 128.6ZM78.3635 137.668C73.2395 137.665 68.4048 136.522 64.1368 133.629C62.6728 132.637 61.2702 131.341 60.3075 129.874C58.6328 127.324 59.8435 124.886 62.7555 123.957C65.7835 122.989 68.8635 122.058 71.7182 120.689C76.1875 118.546 80.4235 118.509 84.9102 120.637C87.8688 122.04 91.0542 122.969 94.1688 124.022C96.7555 124.898 97.9395 127.204 96.4995 129.528C95.5275 131.101 94.1062 132.544 92.5768 133.601C88.3342 136.533 83.4875 137.656 78.3635 137.668Z" fill="black"/>
<path d="M114.777 85.8602C114.815 87.4828 115.887 87.5162 116.699 87.9122C118.633 88.8548 119.337 90.3602 118.715 92.0108C118.124 93.5762 116.315 94.6375 114.513 93.9255C112.795 93.2468 110.957 92.2415 109.828 90.8482C108.416 89.1028 106.989 88.8362 104.925 88.8748C101.548 88.9375 98.1575 88.5428 94.7788 88.2722C94.0561 88.2135 93.3161 87.9415 92.6561 87.6215C91.1241 86.8815 90.4721 85.4655 90.8521 83.9402C91.2175 82.4748 92.5815 81.4682 94.2241 81.6002C95.1708 81.6748 96.0975 81.9828 97.0375 82.1575C102.675 83.2042 108.081 82.7428 112.987 79.5042C114.94 78.2148 116.605 78.2215 118.5 79.7175C119.624 80.6068 121.124 81.0428 122.489 81.5962C124.496 82.4108 125.409 83.7588 124.98 85.4415C124.537 87.1748 123.116 88.1508 121.037 87.8002C119.595 87.5562 118.221 86.9095 116.813 86.4562C116.189 86.2548 115.553 86.0855 114.777 85.8602Z" fill="black"/>
<path d="M42.0054 85.851C41.132 86.099 40.5014 86.263 39.88 86.455C38.3694 86.923 36.892 87.5977 35.3467 87.831C33.4654 88.115 32.1107 87.0643 31.7347 85.4523C31.3427 83.771 32.108 82.5177 33.8867 81.699C35.6 80.9097 37.3174 80.1057 38.9454 79.155C40.4014 78.303 41.768 78.2643 43.1227 79.1843C48.7107 82.979 54.804 83.2923 61.1614 81.863C61.576 81.7697 61.984 81.6163 62.404 81.5897C64.0694 81.483 65.4107 82.403 65.7974 83.8737C66.2014 85.415 65.644 87.0083 64.0787 87.559C62.196 88.2217 60.1934 88.7123 58.208 88.8763C55.68 89.0843 53.1107 88.9897 50.572 88.827C49.2654 88.743 48.4267 89.055 47.5654 90.067C46.548 91.2603 45.3254 92.3403 44.016 93.2003C43.1827 93.747 42.0387 93.9777 41.0147 94.0443C39.4627 94.1443 38.3774 93.2817 37.956 91.7737C37.532 90.2537 38.14 89.083 39.408 88.2177C40.2747 87.627 41.7694 87.8083 42.0054 85.851Z" fill="black"/>
<path d="M108.491 60.3992C110.522 60.8139 112.704 61.2206 114.864 61.7206C115.575 61.8859 116.268 62.2299 116.906 62.5992C118.735 63.6632 119.332 65.2446 118.584 66.8592C117.887 68.3659 116.447 68.9646 114.558 68.4912C114.046 68.3646 113.562 68.1272 113.064 67.9432C109.958 66.7926 106.828 66.7619 103.69 67.7912C100.159 68.9512 96.6443 70.1646 93.1016 71.2886C90.1469 72.2272 88.4109 71.6432 87.7509 69.6139C87.1149 67.6526 88.2296 66.1339 91.1429 65.1592C95.0683 63.8459 98.9896 62.5179 102.959 61.3512C104.67 60.8472 106.494 60.7299 108.491 60.3992Z" fill="black"/>
<path d="M48.6876 60.3776C50.8623 60.8163 53.0809 61.1016 55.1996 61.7269C58.7596 62.7763 62.2556 64.0389 65.7756 65.2203C66.2756 65.3883 66.7956 65.5429 67.2503 65.8029C68.7729 66.6789 69.3383 67.9963 68.9209 69.5536C68.5236 71.0363 67.2343 71.9163 65.4916 71.7416C64.6596 71.6576 63.8396 71.3643 63.0356 71.1016C60.0076 70.1136 56.9743 69.1376 53.9689 68.0843C50.3223 66.8069 46.7103 66.6243 43.0916 68.1563C42.7023 68.3216 42.2983 68.4749 41.8849 68.5589C40.0129 68.9403 38.6356 68.2403 38.0236 66.6269C37.4809 65.1963 37.8983 63.5496 39.4636 62.8403C41.4689 61.9336 43.6449 61.3776 45.7809 60.8003C46.6863 60.5576 47.6809 60.6483 48.6343 60.5869C48.6529 60.5163 48.6689 60.4469 48.6876 60.3776Z" fill="black"/>
<path d="M78.2395 112.594C74.6102 112.49 71.2422 111.616 68.1688 109.754C65.9062 108.382 65.2702 106.782 66.1875 105.052C67.0942 103.341 68.9528 102.858 71.1568 104.078C75.9502 106.729 80.6742 106.785 85.4382 104.097C85.7155 103.941 85.9969 103.781 86.2942 103.676C88.0742 103.05 89.6955 103.57 90.4515 104.992C91.2062 106.409 90.8288 108.14 89.3249 109.202C86.0022 111.549 82.2275 112.513 78.2395 112.594Z" fill="black"/>
<path d="M78.3048 143.867C79.4741 143.867 80.6608 143.746 81.8101 143.895C83.5181 144.117 84.5714 145.333 84.6208 146.858C84.6701 148.383 83.7114 149.858 82.0368 150.019C79.6181 150.253 77.1461 150.255 74.7261 150.033C72.9968 149.874 72.0848 148.513 72.0981 146.933C72.1114 145.229 73.1674 144.085 75.1141 143.858C76.1661 143.737 77.2408 143.837 78.3048 143.837V143.867Z" fill="black"/>
<path d="M25.3619 31.765C27.1259 31.7143 28.6086 33.1503 28.6126 34.9143C28.6153 36.6903 27.1473 38.1423 25.3859 38.1023C23.7406 38.065 22.3939 36.7503 22.3099 35.0983C22.2193 33.325 23.5993 31.817 25.3619 31.765Z" fill="black"/>
<path d="M112.475 124.468C112.43 118.286 118.102 112.588 124.277 112.608C126.506 112.616 128.003 113.725 128.179 115.524C128.334 117.082 127.066 118.816 124.911 119.094C120.594 119.653 119.621 120.777 118.883 125.092C118.518 127.229 117.045 128.616 115.357 128.41C113.606 128.197 112.491 126.672 112.475 124.468Z" fill="black"/>
</svg>
