<svg width="55" height="55" viewBox="0 0 55 55" fill="none" xmlns="http://www.w3.org/2000/svg">
<path d="M48.0926 28.4671C47.3803 28.4887 46.792 29.0973 46.7987 29.8069C46.8062 30.5608 47.4466 31.1522 48.2099 31.1078C48.9426 31.0658 49.4779 30.4717 49.4458 29.7362C49.414 29.0126 48.8092 28.4455 48.0926 28.4671ZM11.9653 44.9223C12.771 44.0095 13.6234 43.0441 14.462 42.0943C14.0213 41.6882 13.5256 41.3004 13.1175 40.8358C12.6937 40.3527 12.3542 39.7954 12.0202 39.33C11.1792 40.282 10.326 41.2486 9.5286 42.1508C10.3331 43.066 11.1682 44.0157 11.9653 44.9223ZM50.2542 32.5454C49.3857 32.7255 48.7288 32.9307 48.0596 32.9837C47.2037 33.0516 46.9643 33.1925 46.827 34.0155C46.699 34.7831 47.9968 36.4906 48.7711 36.5738C49.872 36.6919 50.8075 36.1429 51.1737 35.1638C51.5689 34.1049 51.189 33.134 50.2542 32.5454ZM40.4984 31.173C40.8171 30.8151 41.1538 30.4897 41.4289 30.1185C42.3798 28.8328 42.638 27.3215 42.7436 25.7808C42.8256 24.5885 42.742 23.3994 42.308 22.268C42.0521 21.6028 41.7527 21.4274 41.1879 21.5306C40.4968 21.657 40.3909 21.8387 40.3297 22.611C40.1409 24.979 39.9698 27.3502 39.6892 29.708C39.6044 30.4187 39.7021 30.852 40.4984 31.173ZM5.55627 21.8709C5.48013 21.8304 5.32355 21.7229 5.15009 21.6582C4.2765 21.3309 3.90015 21.5106 3.57285 22.4062C3.50849 22.582 3.45786 22.7641 3.4198 22.9473C3.12978 24.3464 3.14666 25.7466 3.36799 27.1555C3.53125 28.1951 3.84874 29.1703 4.45153 30.0337C4.99389 30.81 5.65085 31.4618 6.56014 31.7742C6.22578 28.4761 5.89495 25.2098 5.55627 21.8709ZM42.2114 34.9605C42.3394 37.5687 41.4242 39.6573 39.3124 41.1466C40.2029 42.7729 42.3186 43.4526 44.1525 42.7328C45.9977 42.0088 47.0526 40.0156 46.6131 38.082C46.1531 36.0546 44.3852 34.7568 42.2114 34.9605ZM17.1373 8.71414C17.3936 8.85777 17.5482 8.95628 17.7126 9.03358C19.4806 9.86478 21.3753 10.0743 23.2924 10.1242C25.2029 10.174 27.1145 10.1721 29.0253 10.198C29.4063 10.2031 29.7866 10.2325 30.2395 10.2541C28.9413 8.53832 24.5832 5.03771 22.8521 4.30148C20.8412 5.56398 18.9076 6.97011 17.1373 8.71414ZM31.2512 35.7928C31.2677 38.3116 33.3221 40.3287 35.8338 40.2918C38.2995 40.2561 40.3132 38.2193 40.3151 35.7583C40.3175 33.2467 38.276 31.2205 35.751 31.2283C33.204 31.2366 31.2343 33.2345 31.2512 35.7928ZM21.0496 3.17439C20.291 2.81922 19.6933 2.5657 19.1211 2.26352C18.6247 2.00097 18.193 2.05474 17.7095 2.3165C15.2563 3.64571 13.1022 5.34107 11.2852 7.46224C11.1023 7.67573 10.9241 7.90256 10.7055 8.07524C10.3139 8.38488 9.85158 8.35623 9.50584 8.03481C9.16127 7.71419 9.12163 7.32292 9.31628 6.91909C9.40969 6.72601 9.5698 6.56354 9.70834 6.39439C10.9273 4.90506 12.3393 3.62138 13.8788 2.47269C14.0649 2.33416 14.2419 2.18228 14.5429 1.94014H2.41278C0.956025 7.81308 2.91472 15.5662 6.2976 19.4208C8.12757 16.2467 10.206 13.2732 12.6226 10.5453C15.0664 7.78718 17.7837 5.33636 21.0496 3.17439ZM39.6562 19.4765C43.4963 14.5529 44.8145 6.9501 43.4402 1.94485C41.4728 1.74745 23.6743 1.83458 23.0307 2.05042C30.0994 6.37438 35.4237 12.3584 39.6562 19.4765ZM10.5595 37.314C10.6816 36.9133 10.7569 36.7422 10.7836 36.5636C10.87 35.9749 10.9163 35.3796 11.0199 34.7945C11.1647 33.9774 11.9967 33.605 12.5469 34.1281C12.7455 34.3169 12.8487 34.6689 12.8801 34.9589C12.9982 36.0566 13.1811 37.1362 13.6422 38.1463C14.3957 39.797 15.608 40.8778 17.4583 41.1313C17.7998 41.1776 18.1447 41.1992 18.4842 41.2561C18.9924 41.3412 19.2797 41.6677 19.2907 42.1387C19.3017 42.6018 19.0207 42.9754 18.5364 43.0825C18.2942 43.1359 18.0368 43.1143 17.788 43.1414C16.9701 43.2301 16.1904 43.4247 15.4529 44.0134C18.39 46.3626 21.6693 47.1416 25.2786 46.4952C28.4762 45.9222 30.9015 44.119 32.8771 41.5849C29.7258 39.4014 28.6042 36.5679 29.6571 33.6211C30.1477 32.2491 30.993 31.142 32.2213 30.3477C33.9246 29.2461 35.7738 29.0573 37.7379 29.5906C37.7988 29.376 37.8639 29.2331 37.8765 29.086C38.07 26.8059 38.2517 24.525 38.4479 22.2452C38.5012 21.6264 38.3439 21.086 38.0354 20.5479C36.7533 18.313 35.3428 16.1678 33.7538 14.1385C32.4191 12.4333 32.4286 12.3674 30.2634 12.2422C27.8236 12.1009 25.3767 12.0609 22.9322 12.0209C20.5728 11.9824 18.3272 11.5229 16.2308 10.4119C16.0448 10.313 15.8407 10.247 15.6743 10.178C15.5746 10.2462 15.5153 10.2741 15.4734 10.3181C12.4684 13.4231 9.92928 16.8754 7.81714 20.6413C7.67272 20.8984 7.59816 21.2327 7.60287 21.5298C7.65389 25.0807 7.91565 28.6131 8.73272 32.0799C9.14204 33.8161 9.68087 35.5146 10.5595 37.314ZM3.93469 19.588C2.76206 17.6811 1.84923 15.8248 1.22995 13.841C-0.0560912 9.72233 -0.422241 5.54671 0.557302 1.30438C0.840255 0.0795631 0.945037 0.00420761 2.2095 0.00381851C15.6421 0.00303268 29.0739 0.0034256 42.5065 0.0034256C43.0085 0.0034256 43.5108 -0.00559998 44.0127 0.00577927C44.851 0.0246201 45.0849 0.174141 45.2619 0.975906C45.4711 1.92327 45.6838 2.88005 45.7654 3.84389C46.2273 9.29417 45.0896 14.3865 42.2573 19.0833C42.1773 19.216 42.1094 19.3557 42.0015 19.5554C43.8832 20.2143 44.3102 21.7826 44.5367 23.4979C44.7537 25.1395 44.6454 26.7588 44.269 28.3592C43.9087 29.8889 43.1859 31.2295 42.0333 32.3189C41.8971 32.4473 41.7644 32.5795 41.6334 32.7125C41.6129 32.733 41.6102 32.7702 41.5509 32.9339C42.1506 32.9559 42.7173 32.937 43.2726 33.0077C43.8259 33.0783 44.3679 33.2384 44.9428 33.3648C45.1767 32.8754 45.4036 32.4021 45.6233 31.9437C44.6214 30.0792 44.6709 28.803 45.7776 27.5927C46.6849 26.6002 48.1601 26.2914 49.4045 26.8325C50.8464 27.4601 51.3982 28.6166 51.2683 30.819C52.9122 32.0838 53.6665 33.7553 52.9201 35.8191C52.2298 37.7268 50.6882 38.518 48.684 38.5643C48.5321 41.5967 47.2398 43.8662 44.2035 44.6813C41.3743 45.4407 39.0993 44.4102 37.4813 42.0755C36.663 42.1132 35.9162 42.1689 35.1686 42.174C34.7746 42.1767 34.6361 42.4566 34.4485 42.6967C33.301 44.1661 31.9922 45.4611 30.4173 46.4768C25.6549 49.548 19.1827 49.2859 14.6889 45.8339C14.5185 45.7033 14.3443 45.5781 14.1257 45.416C13.5174 46.257 13.2509 47.1781 13.061 48.1235C12.9688 48.5834 12.946 49.0567 12.8805 49.5225C12.8024 50.0767 12.4555 50.4271 11.9865 50.4432C11.5269 50.4589 11.1317 50.1132 11.0262 49.5755C10.9838 49.3616 10.9901 49.1383 10.9708 48.9193C10.8735 47.813 10.5968 46.757 10.0753 45.7723C9.22916 44.1759 7.90034 43.3046 6.10294 43.1429C5.82313 43.1178 5.52958 43.1284 5.26782 43.0437C4.84241 42.9059 4.5987 42.5798 4.60459 42.1191C4.61087 41.6811 4.96407 41.3255 5.44795 41.2553C5.91261 41.1886 6.38707 41.1772 6.84427 41.0783C7.88661 40.8526 8.76058 40.3366 9.40772 39.4905C8.88342 38.2496 8.2767 37.0695 7.89014 35.8215C7.53419 34.6748 7.02048 33.9413 5.79958 33.5092C4.01003 32.8758 2.82485 31.4595 2.1106 29.6978C1.1338 27.2901 1.09652 24.8009 1.61455 22.2971C1.87396 21.044 2.52228 20.0279 3.93469 19.588Z" fill="white"/>
<path d="M52.2075 48.5406C52.1914 47.0391 51.0118 45.8888 49.493 45.8935C47.9907 45.8982 46.7969 47.0768 46.7883 48.5637C46.78 50.0805 48.0245 51.2924 49.5617 51.2649C51.0573 51.2378 52.2232 50.0374 52.2075 48.5406ZM49.5342 53.1726C46.9849 53.1859 44.9018 51.139 44.8873 48.6065C44.8727 46.0807 46.939 43.9831 49.4698 43.9541C51.9936 43.9254 54.0913 46.0018 54.1054 48.5421C54.1195 51.0962 52.0831 53.1593 49.5342 53.1726Z" fill="white"/>
<path d="M39.4642 47.7015C39.018 47.6807 38.6318 48.0339 38.5949 48.4954C38.5541 49.0131 38.9038 49.4141 39.4069 49.4267C39.8574 49.4377 40.2581 49.0872 40.2989 48.6465C40.3409 48.1874 39.9312 47.7231 39.4642 47.7015ZM36.6464 48.6081C36.6264 47.114 37.8528 45.8417 39.3531 45.7993C40.895 45.7562 42.1925 47.0002 42.2136 48.5429C42.2344 50.0691 40.9441 51.3697 39.4175 51.3618C37.9289 51.354 36.6672 50.0997 36.6464 48.6081Z" fill="white"/>
<path d="M7.42622 51.3611C7.11501 51.3611 6.80027 51.3901 6.49299 51.3548C5.89608 51.2857 5.52522 50.9031 5.526 50.4063C5.52679 49.8894 5.87371 49.5295 6.49966 49.4938C7.11933 49.4585 7.74528 49.4589 8.36456 49.506C8.9132 49.548 9.24481 49.9353 9.24167 50.4125C9.23892 50.8462 8.93125 51.2029 8.44972 51.3285C8.39007 51.3446 8.32767 51.3591 8.26645 51.3599C7.98624 51.363 7.70603 51.3611 7.42622 51.3611Z" fill="white"/>
<path d="M5.56444 47.6898C5.56444 48.001 5.59466 48.3161 5.55777 48.6226C5.49419 49.1544 5.1092 49.5143 4.65083 49.5229C4.20187 49.5316 3.74703 49.1768 3.70582 48.6588C3.65127 47.979 3.64774 47.2868 3.71367 46.6086C3.7639 46.0902 4.23601 45.7743 4.70616 45.8131C5.15473 45.8504 5.48948 46.1585 5.55188 46.664C5.59309 47.0011 5.55934 47.3476 5.55934 47.6898H5.56444Z" fill="white"/>
<path d="M1.86991 51.3979C1.47158 51.3681 1.12034 51.381 0.787938 51.308C0.29071 51.1989 0.0203156 50.8186 0.0430774 50.3614C0.0658393 49.8987 0.358996 49.5463 0.880555 49.5122C1.56655 49.4671 2.25843 49.4851 2.94639 49.5153C3.42949 49.5357 3.66064 49.8736 3.72382 50.3187C3.7874 50.7692 3.5119 51.1875 3.02958 51.2939C2.63675 51.3802 2.22272 51.3696 1.86991 51.3979Z" fill="white"/>
<path d="M5.55944 53.1192C5.55944 53.4614 5.59241 53.8072 5.5516 54.1443C5.48959 54.6556 5.16582 54.9563 4.71216 54.9963C4.27026 55.0351 3.79462 54.7675 3.75106 54.2966C3.68003 53.5309 3.68866 52.7484 3.75969 51.9823C3.80129 51.5365 4.20198 51.3183 4.64544 51.2991C5.07124 51.2802 5.44407 51.6283 5.54846 52.0941C5.56219 52.1546 5.57161 52.2174 5.572 52.279C5.57475 52.5592 5.57318 52.839 5.57318 53.1192H5.55944Z" fill="white"/>
<path d="M25.5719 37.6745C24.7619 37.3735 23.9534 37.0682 23.1403 36.7762C23.03 36.737 22.8825 36.7327 22.7737 36.7719C21.959 37.0639 21.1494 37.3708 20.3386 37.673C22.0964 38.6627 23.811 38.6612 25.5719 37.6745ZM22.957 40.3436C21.4489 40.3428 20.0258 40.0065 18.7696 39.1549C18.3387 38.8629 17.9259 38.4814 17.6425 38.0497C17.1496 37.299 17.506 36.5816 18.3631 36.3081C19.2543 36.0231 20.1608 35.7492 21.0011 35.3462C22.3165 34.7155 23.5633 34.7045 24.8839 35.3309C25.7548 35.7437 26.6923 36.0173 27.6091 36.3273C28.3704 36.5851 28.7189 37.2637 28.2951 37.9477C28.009 38.4108 27.5906 38.8354 27.1405 39.1466C25.8917 40.0096 24.4652 40.34 22.957 40.3436Z" fill="white"/>
<path d="M33.6749 25.0949C33.6859 25.5725 34.0014 25.5823 34.2404 25.6989C34.8098 25.9764 35.0171 26.4194 34.8338 26.9053C34.6599 27.366 34.1274 27.6784 33.5972 27.4688C33.0913 27.2691 32.5505 26.9732 32.2181 26.5631C31.8025 26.0494 31.3826 25.9709 30.7751 25.9822C29.7811 26.0007 28.7831 25.8845 27.7886 25.8049C27.5759 25.7876 27.3581 25.7075 27.1638 25.6133C26.7129 25.3955 26.521 24.9788 26.6329 24.5298C26.7404 24.0985 27.1419 23.8022 27.6254 23.8411C27.904 23.863 28.1767 23.9537 28.4534 24.0051C30.1127 24.3132 31.704 24.1774 33.1478 23.2241C33.7228 22.8446 34.2129 22.8466 34.7706 23.2869C35.1014 23.5487 35.5429 23.677 35.9448 23.8399C36.5354 24.0797 36.8042 24.4764 36.6779 24.9717C36.5476 25.4819 36.1292 25.7691 35.5174 25.6659C35.0928 25.5941 34.6886 25.4038 34.2742 25.2704C34.0905 25.2111 33.9033 25.1613 33.6749 25.0949Z" fill="white"/>
<path d="M12.2556 25.0922C11.9985 25.1652 11.8129 25.2134 11.63 25.2699C11.1854 25.4077 10.7506 25.6063 10.2957 25.6749C9.74198 25.7585 9.34325 25.4493 9.23258 24.9748C9.1172 24.4799 9.34247 24.111 9.86599 23.8701C10.3703 23.6378 10.8758 23.4011 11.3549 23.1213C11.7835 22.8705 12.1857 22.8591 12.5845 23.1299C14.2292 24.2468 16.0227 24.3391 17.8938 23.9184C18.0159 23.8909 18.136 23.8458 18.2596 23.8379C18.7498 23.8065 19.1446 24.0773 19.2584 24.5102C19.3773 24.9638 19.2132 25.4328 18.7525 25.5949C18.1984 25.7899 17.6089 25.9343 17.0246 25.9826C16.2805 26.0438 15.5243 26.016 14.777 25.9681C14.3925 25.9434 14.1456 26.0352 13.8921 26.3331C13.5926 26.6843 13.2328 27.0022 12.8474 27.2553C12.6021 27.4162 12.2654 27.4841 11.964 27.5037C11.5072 27.5332 11.1877 27.2793 11.0637 26.8354C10.9389 26.388 11.1179 26.0434 11.4911 25.7888C11.7462 25.6149 12.1861 25.6683 12.2556 25.0922Z" fill="white"/>
<path d="M31.8245 17.6009C32.4222 17.7229 33.0647 17.8426 33.7004 17.9898C33.9096 18.0385 34.1137 18.1397 34.3013 18.2484C34.8397 18.5616 35.0155 19.027 34.7953 19.5023C34.5901 19.9457 34.1663 20.1219 33.6102 19.9826C33.4595 19.9453 33.317 19.8755 33.1706 19.8213C32.2562 19.4827 31.3352 19.4736 30.4113 19.7766C29.3721 20.118 28.3377 20.4751 27.2949 20.806C26.4253 21.0823 25.9143 20.9104 25.72 20.3131C25.5329 19.7358 25.8609 19.2888 26.7184 19.0019C27.8738 18.6153 29.028 18.2245 30.1963 17.8811C30.6998 17.7327 31.2366 17.6982 31.8245 17.6009Z" fill="white"/>
<path d="M14.2224 17.5945C14.8625 17.7236 15.5155 17.8076 16.1391 17.9916C17.1869 18.3005 18.2159 18.6721 19.252 19.0198C19.3991 19.0693 19.5522 19.1148 19.686 19.1913C20.1342 19.4492 20.3006 19.8369 20.1777 20.2953C20.0608 20.7317 19.6813 20.9907 19.1684 20.9393C18.9235 20.9146 18.6821 20.8282 18.4455 20.7509C17.5542 20.4601 16.6614 20.1728 15.7769 19.8628C14.7035 19.4868 13.6404 19.4331 12.5753 19.884C12.4607 19.9327 12.3418 19.9778 12.2201 20.0025C11.6691 20.1147 11.2637 19.9087 11.0836 19.4339C10.9239 19.0128 11.0467 18.5281 11.5074 18.3193C12.0977 18.0525 12.7382 17.8888 13.3669 17.7189C13.6333 17.6474 13.9261 17.6741 14.2067 17.6561C14.2122 17.6353 14.2169 17.6149 14.2224 17.5945Z" fill="white"/>
<path d="M22.9205 32.9637C21.8523 32.9331 20.8609 32.6756 19.9564 32.1278C19.2904 31.724 19.1032 31.253 19.3732 30.7436C19.6401 30.2401 20.1871 30.0981 20.8358 30.4571C22.2467 31.2373 23.6371 31.2538 25.0393 30.4626C25.1209 30.4167 25.2037 30.3696 25.2913 30.3386C25.8152 30.1546 26.2924 30.3076 26.5149 30.726C26.737 31.1431 26.626 31.6525 26.1833 31.9653C25.2053 32.656 24.0943 32.9397 22.9205 32.9637Z" fill="white"/>
<path d="M22.9397 42.1683C23.2839 42.1683 23.6332 42.1325 23.9715 42.1765C24.4742 42.2416 24.7842 42.5996 24.7987 43.0485C24.8133 43.4975 24.5311 43.9315 24.0382 43.979C23.3263 44.0477 22.5987 44.0485 21.8864 43.9829C21.3774 43.9362 21.109 43.5355 21.1129 43.0705C21.1168 42.5689 21.4276 42.2322 22.0006 42.1655C22.3102 42.1298 22.6266 42.1592 22.9397 42.1592V42.1683Z" fill="white"/>
<path d="M7.35683 9.17286C7.87603 9.15795 8.31243 9.58061 8.31361 10.0998C8.31439 10.6226 7.88231 11.0499 7.36389 11.0382C6.87961 11.0272 6.48324 10.6402 6.45852 10.154C6.43183 9.63202 6.83801 9.18817 7.35683 9.17286Z" fill="white"/>
<path d="M32.9972 36.4583C32.9839 34.6389 34.6534 32.9616 36.4708 32.9675C37.1269 32.9699 37.5677 33.2964 37.6195 33.8258C37.665 34.2846 37.2918 34.7947 36.6576 34.8768C35.3868 35.0412 35.1004 35.372 34.8833 36.642C34.7758 37.2711 34.3422 37.6792 33.8453 37.6188C33.33 37.556 33.002 37.107 32.9972 36.4583Z" fill="white"/>
</svg>
