<svg width="159" height="188" viewBox="0 0 159 188" fill="none" xmlns="http://www.w3.org/2000/svg">
<path d="M130.026 20.6043C132.221 22.823 134.471 25.099 136.531 27.1803C138.791 24.9097 141.054 22.6377 143.081 20.603C140.862 18.391 138.647 16.1843 136.525 14.067C134.422 16.1817 132.219 18.3977 130.026 20.6043ZM128.162 79.0643C130.902 71.439 135.767 66.547 142.765 64.095C139.695 61.9843 136.382 60.311 133.887 57.8177C131.443 55.375 129.833 52.0977 127.735 49.007C125.329 56.371 120.149 60.923 113.002 63.743C122.301 68.3857 123.882 69.967 128.162 79.0643V79.0643ZM99.4595 0.177661C101.018 0.470995 102.573 0.798993 104.138 1.05099C112.949 2.46566 120.886 5.86832 127.898 11.4083C128.478 11.867 129.107 12.263 130.114 12.9697C130.921 11.2323 131.614 9.61899 132.405 8.05632C133.97 4.96166 137.579 4.283 139.781 6.67633C140.271 7.20833 140.682 7.89899 140.891 8.58966C142.065 12.471 144.577 14.947 148.417 16.2097C150.499 16.895 151.926 18.303 151.887 20.6603C151.85 22.995 150.414 24.2937 148.339 25.071C146.031 25.935 143.786 26.9123 142.498 29.4097C146.535 38.635 148.547 48.219 146.834 58.467C147.435 59.015 148.107 59.5217 148.649 60.143C151.077 62.9283 150.481 67.019 147.081 68.4523C144.842 69.3963 144.418 70.7937 144.262 72.8417C143.579 81.819 145.869 90.155 149.482 98.243C152.175 104.271 155.037 110.242 157.362 116.41C159.851 123.01 159.417 129.608 155.746 135.81C155.259 136.632 154.743 137.455 154.131 138.184C153.178 139.32 151.874 139.434 150.638 138.843C149.286 138.196 149.038 136.91 149.386 135.555C149.541 134.954 149.878 134.376 150.229 133.852C153.503 128.959 153.931 123.706 151.994 118.272C150.781 114.87 149.355 111.532 147.845 108.248C144.597 101.183 140.975 94.2443 139.565 86.5123C138.807 82.3603 138.55 78.1177 138.039 73.691C136.67 74.5003 135.937 75.9057 135.246 77.263C134.477 78.7763 133.89 80.3843 133.258 81.9657C132.343 84.2563 130.727 85.6457 128.23 85.7883C125.883 85.9203 124.057 84.5337 122.927 81.9203C122.801 81.627 122.67 81.3323 122.578 81.0283C120.753 75.071 116.87 71.1697 110.929 69.3003C110.221 69.0777 109.525 68.7817 108.87 68.4323C106.997 67.431 106.105 65.7777 106.131 63.7123C106.158 61.6457 107.094 60.0057 108.989 59.0603C109.938 58.587 110.946 58.2217 111.949 57.867C116.997 56.0737 120.389 52.639 122.201 47.6097C122.561 46.6083 122.895 45.5843 123.387 44.647C124.359 42.799 125.962 41.807 128.051 41.8043C130.267 41.8003 131.953 42.8217 132.898 44.8537C133.571 46.299 133.902 47.9443 134.762 49.255C136.143 51.363 137.801 53.299 139.426 55.235C139.769 55.643 140.477 55.7443 141.359 56.1417C142.343 48.9443 141.305 42.3643 138.933 35.9123C138.446 35.8897 138.139 35.8497 137.835 35.8657C134.397 36.0483 133.203 35.4563 132.026 32.187C130.731 28.587 128.334 26.4043 124.819 25.0457C120.331 23.3097 119.913 19.6563 123.677 16.5937C123.834 16.4657 123.929 16.263 124.191 15.907C120.67 12.7777 116.585 10.5963 112.189 9.06033C95.9021 3.371 80.9008 5.90432 67.4248 16.6323C63.6941 19.603 59.7568 20.5283 55.2035 19.8323C50.4128 19.1017 45.5835 19.2403 40.8981 20.315C37.6181 21.067 34.5035 22.5523 31.3248 23.7323C30.9315 23.8777 30.6021 24.1883 30.2195 24.3697C28.5768 25.1483 27.0328 24.875 26.2208 23.6857C25.3275 22.3777 25.6781 20.647 27.2941 19.5443C31.8835 16.4123 37.0475 14.675 42.5328 14.3217C47.4048 14.007 52.3181 14.1497 57.2061 14.3097C59.6768 14.3897 61.6928 13.915 63.6621 12.279C71.5715 5.70432 80.6808 1.855 90.9341 0.762999C91.6555 0.686999 92.3528 0.378995 93.0608 0.177661H99.4595Z" fill="white"/>
<path d="M91.9623 181.638C90.1169 177.994 87.7396 175.373 85.2543 172.841C82.2863 175.007 79.3583 178.827 78.5249 181.638H91.9623ZM79.6876 33.8315C76.0929 30.1035 70.8516 29.3141 66.2129 31.4955C61.9649 33.4941 59.0956 37.7995 59.6076 41.6381C65.5543 37.3741 72.1396 34.8808 79.6876 33.8315V33.8315ZM40.9063 79.5701C37.4223 80.4195 34.5596 82.1168 32.4809 84.9701C30.2356 88.0528 30.6303 91.3595 33.4316 93.8568C33.5383 93.5435 33.6116 93.2341 33.7436 92.9515C34.6156 91.0928 35.7063 90.3288 37.0516 90.6128C38.4729 90.9141 39.2543 92.0275 39.3583 93.9955C39.4089 94.9515 39.3756 95.9128 39.3836 96.8715C39.3969 98.4168 40.2676 98.8635 41.6196 98.6928C41.3849 92.4128 41.1529 86.1795 40.9063 79.5701ZM66.3223 153.394C69.5409 158.467 73.1783 162.805 78.5636 165.366C82.6329 167.302 86.8223 167.406 90.9383 165.629C96.6329 163.17 100.41 158.663 103.645 153.565C99.1743 150.511 98.8236 149.833 98.8169 144.471C98.8143 141.729 98.8169 138.986 98.8169 136.167C82.1169 141.149 86.6769 140.691 71.2969 136.219C71.2969 139.037 71.1556 141.781 71.3303 144.503C71.5889 148.509 70.4623 151.653 66.3223 153.394ZM77.8783 171.379C69.9996 168.154 64.8703 162.011 60.5289 154.943C54.7023 156.509 49.0343 158.029 43.8556 160.791C40.7876 162.427 37.7623 164.354 35.1943 166.678C30.9143 170.554 29.4889 175.689 29.9063 181.606H71.2663C73.5236 178.114 75.6463 174.831 77.8783 171.379V171.379ZM98.7983 181.573H140.109C140.716 174.53 138.302 169.017 132.974 164.854C126.097 159.482 117.849 157.309 109.554 154.911C105.186 162.093 100.014 168.179 92.1836 171.382C94.4449 174.866 96.5783 178.151 98.7983 181.573ZM118.514 107.775C115.346 106.919 112.536 106.33 109.841 105.406C94.8863 100.278 84.3889 85.7461 84.1943 69.8595C84.0889 61.2288 84.1836 52.5955 84.1489 43.9635C84.1423 42.5088 83.9423 41.0555 83.8249 39.5288C83.0143 39.4501 82.4943 39.3195 81.9903 39.3635C68.2116 40.5741 58.2023 47.3635 52.1703 59.8168C48.3916 67.6168 47.1689 75.9915 46.7543 84.5941C46.1676 96.7848 49.7863 107.498 57.3903 116.891C63.1143 123.963 70.0529 129.486 78.6969 132.674C82.8663 134.211 86.9836 134.27 91.1903 132.754C97.1023 130.625 102.24 127.273 106.846 123.077C111.601 118.746 115.601 113.818 118.514 107.775V107.775ZM35.0863 159.071C31.0503 156.775 27.3169 154.765 23.6983 152.565C17.2023 148.615 11.3943 143.786 5.99427 138.439C0.164934 132.666 -1.08707 126.011 2.10893 118.543C3.36227 115.613 4.91827 112.813 6.36493 109.967C6.7996 109.114 7.2876 108.281 7.82493 107.489C13.3289 99.3755 15.3329 90.5768 14.0156 80.7635C13.0809 73.8101 12.9249 66.7355 12.7236 59.7075C12.4836 51.3741 12.9383 43.0728 15.7196 35.0901C16.2436 33.5861 16.8329 32.0821 17.5956 30.6901C18.5476 28.9501 20.1623 28.4648 21.6076 29.2568C22.9009 29.9648 23.2583 31.3621 22.6743 33.1581C21.5916 36.4915 20.2676 39.7755 19.5369 43.1848C18.1449 49.6835 18.0689 56.3141 18.4596 62.9301C18.8356 69.3155 19.1423 75.7155 19.8503 82.0675C20.9196 91.6781 19.0036 100.471 13.7489 108.602C11.9036 111.458 10.3436 114.506 8.7756 117.53C7.9476 119.129 7.2836 120.831 6.72493 122.545C5.33826 126.798 6.25426 130.643 9.45693 133.695C13.0756 137.145 16.7943 140.522 20.7169 143.614C26.4316 148.117 32.8023 151.578 39.4676 154.493C40.6636 155.015 41.7449 155.307 43.1236 154.833C49.8596 152.511 56.6423 150.325 63.4076 148.086C64.0036 147.89 64.5929 147.675 65.5929 147.326C65.5929 144.854 65.6009 142.331 65.5903 139.809C65.5809 137.463 66.2209 134.818 65.3423 132.859C64.4796 130.937 62.0663 129.709 60.3303 128.179C53.5969 122.241 48.3169 115.238 44.8156 106.937C44.6116 106.451 44.3649 105.985 44.0956 105.417C42.6583 105.141 41.2196 104.865 39.3609 104.507C39.3609 105.975 39.4276 107.225 39.3463 108.466C39.2129 110.459 38.0743 111.617 36.4369 111.557C34.9103 111.502 33.8343 110.442 33.7089 108.586C33.5649 106.462 34.1889 104.059 33.3836 102.274C32.5849 100.503 30.2729 99.4808 28.8796 97.9048C23.8556 92.2195 24.1943 84.8781 29.6076 79.5421C32.4063 76.7861 35.7516 74.9141 39.5156 73.9488C41.4263 73.4595 42.2996 72.6435 42.6783 70.6381C44.1836 62.6808 47.1503 55.3061 52.2596 48.9301C53.2316 47.7168 53.2849 46.4315 53.2756 45.0368C53.2529 42.0475 53.3156 39.0875 54.4836 36.2381C57.8023 28.1435 66.2343 23.3181 74.5329 24.8421C83.4569 26.4821 89.7516 33.6941 89.8729 42.7035C89.9929 51.6595 89.8303 60.6181 89.9329 69.5755C90.1036 84.5261 100.376 97.4715 114.873 100.949C117.54 101.587 120.345 101.742 123.1 101.891C126.076 102.053 129.07 101.862 132.05 101.986C133.826 102.059 134.952 103.306 134.956 104.802C134.958 106.307 133.828 107.511 132.069 107.629C130.37 107.743 128.657 107.726 126.956 107.654C125.64 107.597 124.825 107.975 124.206 109.262C119.964 118.073 113.824 125.326 106.014 131.199C105.338 131.707 104.601 132.659 104.58 133.425C104.446 137.999 104.513 142.578 104.513 147.347C105.83 147.787 107.013 148.211 108.213 148.577C112.694 149.939 117.213 151.185 121.646 152.686C123.226 153.221 124.516 153.163 125.877 152.347C130.624 149.503 135.412 146.723 140.113 143.806C142.504 142.323 144.07 142.162 145.145 143.675C146.188 145.145 145.665 146.899 143.414 148.421C140.062 150.686 136.601 152.789 133.184 154.955C132.489 155.397 131.781 155.819 130.838 156.397C132.777 157.749 134.533 158.879 136.189 160.141C142.737 165.131 145.956 171.791 145.993 180.005C146.018 185.217 143.888 187.41 138.616 187.417C120.281 187.445 101.945 187.43 83.6103 187.43C66.8743 187.43 50.1383 187.43 33.4023 187.43C32.5489 187.43 31.6956 187.449 30.8449 187.421C26.3783 187.27 24.1809 185.091 24.0983 180.667C23.9449 172.605 26.8049 165.894 33.1143 160.751C33.6876 160.285 34.2409 159.793 35.0863 159.071" fill="white"/>
<path d="M85.0652 113.915C81.6025 113.768 78.1639 113.175 74.9612 111.588C73.0092 110.621 72.3825 109.34 73.0145 107.823C73.7225 106.127 75.1945 105.527 77.2252 106.435C82.5039 108.789 87.7025 108.727 92.9679 106.399C94.8639 105.56 96.2465 106.101 96.9825 107.633C97.7132 109.153 97.1479 110.583 95.2999 111.508C92.1105 113.107 88.6759 113.747 85.0652 113.915Z" fill="white"/>
<path d="M66.1289 69.4884C68.7823 70.2377 71.3236 70.8937 73.8196 71.6964C74.5929 71.9444 75.3089 72.5151 75.9249 73.0751C76.9716 74.0257 77.3343 75.1977 76.4943 76.4897C75.7036 77.7057 74.5556 78.1031 73.1849 77.6871C72.5836 77.5057 72.0423 77.1364 71.4649 76.8737C67.9876 75.2844 64.4996 75.2537 61.0076 76.8271C60.3343 77.1311 59.6916 77.5524 58.9876 77.7337C57.5943 78.0924 56.4903 77.5857 55.7823 76.3111C55.1063 75.0977 55.4716 74.0097 56.3703 73.1377C56.9649 72.5604 57.6956 72.0017 58.4689 71.7471C60.9583 70.9284 63.4943 70.2524 66.1289 69.4884Z" fill="white"/>
<path d="M69.0593 85.2917C69.0713 87.6117 67.8927 89.0744 66.0793 88.9931C64.402 88.9171 63.3367 87.5304 63.314 85.3904C63.2887 83.0637 64.446 81.6331 66.2967 81.7037C68.0193 81.7691 69.0487 83.1064 69.0593 85.2917Z" fill="white"/>
</svg>
