<svg width="52" height="60" viewBox="0 0 52 60" fill="none" xmlns="http://www.w3.org/2000/svg">
<path d="M41.9288 6.54498C42.632 7.25587 43.3531 7.98513 44.0132 8.65202C44.7373 7.92447 45.4623 7.19649 46.1117 6.54456C45.4008 5.8358 44.6912 5.12876 44.011 4.45034C43.3373 5.12791 42.6316 5.83794 41.9288 6.54498ZM41.3315 25.2763C42.2095 22.8331 43.7684 21.2656 46.0104 20.4799C45.027 19.8037 43.9653 19.2675 43.166 18.4686C42.3829 17.6859 41.8668 16.6358 41.1948 15.6456C40.4237 18.0051 38.764 19.4636 36.4741 20.3672C39.4535 21.8547 39.9602 22.3614 41.3315 25.2763ZM32.1348 2.28882e-05C32.6343 0.0940094 33.1324 0.199104 33.6339 0.27985C36.457 0.733128 39.0002 1.82338 41.2469 3.59847C41.4328 3.74543 41.6344 3.87232 41.957 4.09874C42.2154 3.54208 42.4376 3.02514 42.6909 2.52444C43.1925 1.53288 44.349 1.31543 45.0543 2.08228C45.2115 2.25274 45.3431 2.47403 45.4102 2.69533C45.7861 3.93896 46.591 4.7323 47.8214 5.13688C48.4887 5.35647 48.9458 5.80761 48.9334 6.56293C48.9215 7.31099 48.4614 7.72709 47.7966 7.97616C47.0571 8.253 46.3377 8.56615 45.925 9.36632C47.2186 12.3222 47.8633 15.3931 47.3143 18.6767C47.507 18.8522 47.7223 19.0146 47.8957 19.2137C48.6737 20.1061 48.4827 21.4168 47.3933 21.8761C46.676 22.1786 46.5402 22.6263 46.4902 23.2825C46.2714 26.1589 47.005 28.8299 48.1627 31.4214C49.0257 33.3528 49.9425 35.2659 50.6876 37.2422C51.4852 39.3569 51.3459 41.4712 50.1698 43.4582C50.0139 43.7218 49.8485 43.9854 49.6524 44.2191C49.347 44.5831 48.9292 44.6194 48.5331 44.4301C48.0999 44.2229 48.0205 43.8107 48.132 43.3766C48.1815 43.184 48.2896 42.999 48.402 42.8311C49.4512 41.2632 49.5884 39.5799 48.9676 37.839C48.5788 36.7488 48.1221 35.6795 47.6381 34.6272C46.5974 32.3634 45.4371 30.1402 44.9851 27.6627C44.7424 26.3324 44.66 24.973 44.4964 23.5546C44.0576 23.8139 43.8226 24.2642 43.6013 24.6991C43.3548 25.184 43.1669 25.6992 42.9644 26.2059C42.6713 26.9399 42.1535 27.385 41.3533 27.4308C40.6014 27.4731 40.0161 27.0287 39.6543 26.1914C39.6137 26.0974 39.5718 26.003 39.5423 25.9056C38.9575 23.9968 37.7134 22.7468 35.8098 22.1478C35.5829 22.0765 35.3599 21.9816 35.1501 21.8697C34.5499 21.5488 34.2641 21.0191 34.2726 20.3573C34.2812 19.6951 34.5811 19.1697 35.1882 18.8668C35.4923 18.7151 35.8153 18.5981 36.1366 18.4844C37.754 17.9098 38.8409 16.8093 39.4214 15.1978C39.5368 14.877 39.644 14.5489 39.8017 14.2486C40.1131 13.6564 40.6266 13.3386 41.2961 13.3377C42.0061 13.3365 42.5461 13.6637 42.849 14.3148C43.0648 14.7779 43.1707 15.3051 43.4463 15.725C43.8889 16.4004 44.4199 17.0208 44.9407 17.6411C45.0505 17.7718 45.2773 17.8043 45.5601 17.9316C45.8754 15.6255 45.5426 13.5172 44.7826 11.4499C44.6267 11.4426 44.5284 11.4298 44.431 11.4349C43.3292 11.4934 42.9468 11.3037 42.5696 10.2562C42.1548 9.10273 41.3866 8.40338 40.2605 7.96804C38.8225 7.41181 38.6883 6.24123 39.8944 5.25991C39.9448 5.2189 39.9751 5.15396 40.0593 5.0399C38.931 4.03722 37.622 3.33829 36.2135 2.84614C30.995 1.02321 26.1884 1.83492 21.8705 5.2723C20.6752 6.22414 19.4136 6.52063 17.9547 6.29763C16.4197 6.06351 14.8723 6.10794 13.3711 6.45228C12.3201 6.69323 11.3221 7.16915 10.3036 7.54723C10.1776 7.5938 10.0721 7.69334 9.94947 7.75144C9.42314 8.00094 8.92843 7.91336 8.66825 7.53228C8.38202 7.11318 8.49437 6.55865 9.01216 6.20535C10.4826 5.20182 12.1372 4.64515 13.8948 4.53194C15.4559 4.43112 17.0302 4.47683 18.5963 4.5281C19.388 4.55373 20.0339 4.40164 20.6649 3.87744C23.1992 1.77084 26.1179 0.537464 29.4032 0.187572C29.6343 0.163219 29.8578 0.0645332 30.0846 2.28882e-05H32.1348Z" fill="white"/>
<path d="M29.7327 58.1422C29.1414 56.9746 28.3797 56.1347 27.5833 55.3234C26.6323 56.0177 25.6942 57.2416 25.4272 58.1422H29.7327ZM25.7997 10.7831C24.6479 9.5886 22.9685 9.33569 21.4822 10.0346C20.1211 10.675 19.2018 12.0545 19.3658 13.2845C21.2712 11.9182 23.3812 11.1193 25.7997 10.7831ZM13.3737 25.4383C12.2574 25.7105 11.3401 26.2543 10.6741 27.1686C9.95466 28.1563 10.0811 29.2158 10.9787 30.016C11.0129 29.9156 11.0364 29.8165 11.0787 29.7259C11.3581 29.1304 11.7075 28.8856 12.1386 28.9766C12.594 29.0731 12.8444 29.4298 12.8777 30.0604C12.8939 30.3667 12.8832 30.6747 12.8858 30.9819C12.8901 31.4771 13.169 31.6202 13.6022 31.5655C13.527 29.5533 13.4527 27.5561 13.3737 25.4383ZM21.5173 49.0925C22.5486 50.718 23.714 52.1078 25.4396 52.9285C26.7434 53.5488 28.0857 53.5821 29.4046 53.0126C31.2292 52.2248 32.4395 50.7808 33.4759 49.1472C32.0435 48.1688 31.9311 47.9514 31.929 46.2336C31.9281 45.3548 31.929 44.476 31.929 43.5728C26.5781 45.1689 28.0392 45.0224 23.1112 43.5895C23.1112 44.4922 23.0659 45.3714 23.1219 46.2438C23.2048 47.5272 22.8438 48.5345 21.5173 49.0925ZM25.22 54.8552C22.6955 53.8218 21.052 51.8536 19.661 49.5889C17.7941 50.0905 15.978 50.5775 14.3187 51.4627C13.3356 51.9869 12.3663 52.6042 11.5435 53.3488C10.1721 54.5908 9.71542 56.236 9.84913 58.132H23.1014C23.8247 57.0131 24.5048 55.9613 25.22 54.8552ZM31.923 58.1213H45.1595C45.3538 55.8647 44.5806 54.0982 42.8734 52.7644C40.6698 51.0432 38.0271 50.3468 35.3694 49.5787C33.9698 51.8796 32.3126 53.8299 29.8036 54.8561C30.5281 55.9724 31.2117 57.025 31.923 58.1213ZM38.2402 34.4757C37.2252 34.2014 36.3246 34.0126 35.4612 33.7165C30.6695 32.0735 27.3061 27.4172 27.2437 22.3269C27.2099 19.5616 27.2403 16.7953 27.2292 14.0295C27.227 13.5634 27.1629 13.0978 27.1254 12.6086C26.8656 12.5834 26.699 12.5415 26.5375 12.5556C22.1226 12.9435 18.9155 15.1189 16.9828 19.1091C15.7721 21.6083 15.3803 24.2917 15.2474 27.0481C15.0595 30.9541 16.2189 34.3868 18.6554 37.3966C20.4894 39.6625 22.7126 41.4321 25.4823 42.4535C26.8182 42.9461 28.1374 42.9649 29.4853 42.4792C31.3796 41.7969 33.0256 40.7229 34.5017 39.3784C36.0251 37.9908 37.3068 36.4118 38.2402 34.4757ZM11.5089 50.9116C10.2157 50.1759 9.01948 49.5317 7.86001 48.8268C5.77861 47.5613 3.91766 46.014 2.18743 44.3008C0.319638 42.451 -0.0815192 40.3187 0.942519 37.9259C1.3441 36.9869 1.84267 36.0897 2.3062 35.178C2.44547 34.9046 2.60183 34.6376 2.774 34.3838C4.53755 31.7842 5.17966 28.965 4.75757 25.8207C4.45809 23.5928 4.4081 21.326 4.34359 19.0741C4.26669 16.404 4.41237 13.7441 5.30355 11.1864C5.47144 10.7045 5.66027 10.2226 5.90464 9.77658C6.20967 9.21906 6.72703 9.06355 7.19014 9.31732C7.60454 9.54417 7.71903 9.9919 7.53191 10.5674C7.18501 11.6354 6.76078 12.6876 6.52667 13.78C6.08066 15.8623 6.0563 17.9868 6.18148 20.1067C6.30195 22.1526 6.40021 24.2033 6.62707 26.2385C6.96969 29.3179 6.35578 32.1354 4.67212 34.7406C4.08085 35.6557 3.58101 36.6323 3.0786 37.6012C2.8133 38.1134 2.60055 38.659 2.42154 39.208C1.97724 40.5708 2.27074 41.8029 3.29691 42.7808C4.45638 43.886 5.64789 44.9681 6.90476 45.9589C8.73581 47.4016 10.7771 48.5106 12.9127 49.4445C13.2959 49.612 13.6424 49.7055 14.0841 49.5535C16.2424 48.8097 18.4157 48.109 20.5834 47.3917C20.7743 47.3289 20.9632 47.2602 21.2836 47.1482C21.2836 46.3562 21.2862 45.5479 21.2827 44.7396C21.2797 43.9881 21.4848 43.1405 21.2033 42.5129C20.9269 41.8969 20.1536 41.5034 19.5974 41.0134C17.4399 39.1106 15.7481 36.8668 14.6263 34.207C14.5609 34.0515 14.4819 33.9019 14.3956 33.7199C13.935 33.6315 13.4741 33.5431 12.8785 33.4286C12.8785 33.8989 12.8999 34.2992 12.8738 34.697C12.8311 35.3357 12.4663 35.7065 11.9416 35.6873C11.4525 35.6698 11.1077 35.3301 11.0676 34.7354C11.0214 34.0549 11.2214 33.285 10.9633 32.713C10.7074 32.1457 9.96662 31.818 9.52018 31.313C7.91042 29.4914 8.01894 27.1391 9.75344 25.4294C10.6502 24.5463 11.7221 23.9465 12.9281 23.6372C13.5403 23.4804 13.8201 23.219 13.9414 22.5764C14.4238 20.0268 15.3743 17.6639 17.0114 15.6209C17.3229 15.2321 17.34 14.8203 17.337 14.3734C17.3297 13.4156 17.3498 12.4672 17.724 11.5542C18.7874 8.96059 21.4891 7.4145 24.1481 7.90281C27.0074 8.42828 29.0243 10.7391 29.0632 13.6258C29.1017 16.4954 29.0495 19.3659 29.0824 22.2359C29.1371 27.0263 32.4284 31.1742 37.0735 32.2883C37.928 32.493 38.8268 32.5425 39.7094 32.5904C40.663 32.6421 41.6225 32.581 42.5774 32.6207C43.1464 32.6442 43.507 33.0437 43.5083 33.523C43.5091 34.0053 43.1468 34.3911 42.5833 34.4287C42.0391 34.4654 41.4901 34.4599 40.945 34.4368C40.5233 34.4184 40.2623 34.5398 40.064 34.952C38.7046 37.7751 36.7373 40.0991 34.2351 41.981C34.0185 42.1438 33.7822 42.4488 33.7754 42.6941C33.7327 44.1598 33.754 45.6269 33.754 47.1551C34.1761 47.296 34.5551 47.4319 34.9396 47.549C36.3755 47.9856 37.8233 48.3846 39.2438 48.8656C39.75 49.0369 40.1632 49.0186 40.5993 48.7571C42.1202 47.8459 43.6544 46.9551 45.1607 46.0204C45.9267 45.5453 46.4287 45.4936 46.7731 45.9785C47.1071 46.4493 46.9397 47.0115 46.2185 47.499C45.1445 48.2248 44.0354 48.8985 42.9405 49.5928C42.7179 49.7342 42.4911 49.8696 42.189 50.0546C42.8102 50.4878 43.3728 50.8501 43.9034 51.2542C46.0015 52.8533 47.0328 54.9872 47.0448 57.6189C47.0529 59.2889 46.3702 59.9916 44.681 59.9938C38.8063 60.0027 32.9312 59.998 27.0566 59.998C21.6941 59.998 16.3317 59.998 10.9693 59.998C10.6959 59.998 10.4225 60.004 10.1499 59.9951C8.71872 59.9468 8.01467 59.2487 7.98818 57.8312C7.93905 55.2478 8.85543 53.0976 10.877 51.4499C11.0607 51.3003 11.238 51.1427 11.5089 50.9116Z" fill="white"/>
<path d="M27.5227 36.4428C26.4133 36.3958 25.3115 36.2057 24.2853 35.6973C23.6598 35.3876 23.4591 34.977 23.6616 34.4909C23.8884 33.9474 24.3601 33.7552 25.0107 34.0461C26.7021 34.8006 28.3678 34.7805 30.0549 34.0346C30.6624 33.7659 31.1054 33.9393 31.3412 34.4302C31.5753 34.9172 31.3942 35.3752 30.8021 35.6717C29.7802 36.1839 28.6796 36.389 27.5227 36.4428Z" fill="white"/>
<path d="M21.4553 22.208C22.3055 22.4481 23.1198 22.6583 23.9195 22.9155C24.1673 22.9949 24.3967 23.1778 24.5941 23.3572C24.9295 23.6618 25.0457 24.0373 24.7765 24.4513C24.5232 24.8409 24.1553 24.9682 23.7162 24.8349C23.5235 24.7768 23.35 24.6585 23.1651 24.5743C22.0509 24.0651 20.9333 24.0553 19.8144 24.5594C19.5987 24.6568 19.3927 24.7918 19.1672 24.8499C18.7207 24.9648 18.367 24.8025 18.1401 24.3941C17.9235 24.0053 18.0406 23.6567 18.3285 23.3773C18.5191 23.1923 18.7532 23.0133 19.001 22.9317C19.7986 22.6694 20.6112 22.4528 21.4553 22.208Z" fill="white"/>
<path d="M22.3943 27.2716C22.3981 28.0149 22.0205 28.4836 21.4395 28.4575C20.902 28.4332 20.5607 27.9889 20.5534 27.3032C20.5453 26.5577 20.9161 26.0993 21.5091 26.1219C22.0611 26.1429 22.3909 26.5714 22.3943 27.2716Z" fill="white"/>
</svg>
