<svg width="65" height="65" viewBox="0 0 65 65" fill="none" xmlns="http://www.w3.org/2000/svg">
<path d="M35.3501 64.0292C34.0921 64.7084 32.9958 64.4836 32.032 63.4448C30.7849 64.132 29.6904 63.8789 28.7308 62.8749C28.5442 62.948 28.3806 63.0178 28.2133 63.0767C26.8851 63.5442 25.5107 62.8999 25.1455 61.5444C25.005 61.0236 24.7175 60.7728 24.3079 60.5353C21.9188 59.152 19.5348 57.7601 17.1495 56.3702C16.927 56.2406 16.6956 56.1199 16.4896 55.9668C16.1474 55.7118 16.064 55.3319 16.2549 55.0217C16.451 54.7027 16.7875 54.6263 17.2074 54.8129C17.3248 54.8653 17.4346 54.9346 17.5463 54.9996C20.2668 56.5842 22.9854 58.1716 25.7082 59.752C26.1343 59.9989 26.4312 60.2662 26.4204 60.8351C26.4091 61.4369 26.7777 61.7867 27.29 61.8319C27.8334 61.8795 28.2355 61.5515 28.3618 60.9387C28.4876 60.3312 28.3382 59.76 28.0964 59.208C28.0139 59.019 27.8928 58.847 27.816 58.6566C27.6835 58.3281 27.7722 58.0429 28.0559 57.837C28.3302 57.6385 28.7553 57.6762 28.9547 57.9854C29.2172 58.3927 29.4746 58.8343 29.5919 59.2971C29.7291 59.8373 29.7164 60.4165 29.7597 60.9793C29.7673 61.0797 29.7225 61.1829 29.7168 61.2856C29.681 61.9281 30.0331 62.381 30.6062 62.4352C31.1266 62.4852 31.6285 62.1152 31.6601 61.5293C31.6945 60.894 31.6191 60.2492 31.5498 59.6134C31.523 59.3645 31.3834 59.1279 31.2944 58.8857C31.0752 58.2932 31.1709 57.9298 31.5875 57.7752C32.0032 57.622 32.3676 57.7955 32.574 58.3818C32.7951 59.0082 32.9647 59.6624 33.059 60.319C33.1311 60.8228 33.0331 61.3488 33.0463 61.8644C33.0524 62.1123 33.0826 62.3914 33.2032 62.5973C33.3965 62.9268 33.7396 63.0965 34.1303 63.0211C34.5324 62.9433 34.8354 62.7203 34.9382 62.2863C35.1974 61.1933 35.0527 60.1337 34.6841 59.0921C34.6243 58.9224 34.5295 58.7622 34.4885 58.5883C34.3976 58.2041 34.5564 57.9048 34.9028 57.7776C35.2375 57.6555 35.5198 57.7451 35.7107 58.041C35.8214 58.2126 35.9034 58.4068 35.9718 58.6005C36.3729 59.7364 36.5656 60.8968 36.3738 62.102C36.3498 62.2547 36.3281 62.4097 36.3276 62.5639C36.3262 63.1247 36.6571 63.5287 37.1661 63.6027C37.677 63.6762 38.1328 63.3877 38.2502 62.8335C38.4392 61.9403 38.433 61.0335 38.2464 60.1403C38.1361 59.6124 37.9424 59.102 37.8118 58.5774C37.718 58.2018 37.8938 57.885 38.2261 57.7714C38.5626 57.656 38.8365 57.7597 39.034 58.0481C39.1061 58.1532 39.1702 58.2739 39.1985 58.3969C39.3823 59.1981 39.6321 59.9952 39.7065 60.8077C39.7579 61.37 39.9422 61.6867 40.4333 61.9332C41.483 62.4588 42.65 62.2924 43.4022 61.4558C44.1026 60.6772 43.9716 59.8118 43.1006 59.2382C41.7658 58.3592 40.4036 57.5132 39.1306 56.5498C36.7895 54.7776 34.8175 52.6307 33.0981 50.2524C32.9775 50.0856 32.854 49.9164 32.7654 49.7321C32.6141 49.4182 32.6673 49.1231 32.9402 48.8955C33.2004 48.6782 33.5793 48.706 33.856 48.9648C33.9668 49.0689 34.0502 49.2042 34.1397 49.3296C36.6943 52.9187 39.8644 55.8376 43.7133 57.9798C45.3818 58.9083 45.5665 60.8897 44.7214 62.019C44.3283 62.545 43.8584 62.9758 43.2547 63.2496C42.321 63.6729 41.368 63.7445 40.3933 63.4071C40.175 63.3317 39.9611 63.2463 39.6901 63.1445C39.3177 64.0335 38.7846 64.7546 37.7699 64.9502C36.7839 65.1406 36.0052 64.7749 35.3501 64.0292Z" fill="white"/>
<path d="M7.26903 36.4784C6.57429 35.2713 5.90737 34.1105 5.23762 32.9506C3.62522 30.157 2.01047 27.3649 0.398067 24.5709C0.282121 24.3701 0.156749 24.1707 0.0719108 23.9567C-0.0892819 23.5495 0.0389185 23.2116 0.389583 23.0405C0.705842 22.8859 1.03011 22.9599 1.25635 23.3153C1.64378 23.9242 1.99585 24.5563 2.35689 25.1817C4.3817 28.6907 6.39189 32.2082 8.44027 35.7036C8.80931 36.3328 8.79611 36.8055 8.34553 37.3796C7.38921 38.597 6.47155 39.8465 5.57132 41.1063C3.62522 43.8325 4.35389 47.2708 7.2464 48.9883C9.68645 50.4371 12.1458 51.8544 14.5958 53.2872C14.7734 53.3909 14.9667 53.4819 15.1147 53.619C15.3668 53.8523 15.4408 54.1483 15.25 54.4575C15.0661 54.754 14.7909 54.8709 14.4529 54.754C14.2847 54.6955 14.1263 54.6027 13.9708 54.5127C11.4954 53.0728 9.01198 51.6461 6.54837 50.1864C2.92908 48.0419 2.02508 43.6109 4.5 40.2184C5.39646 38.9891 6.30988 37.7727 7.26903 36.4784Z" fill="white"/>
<path d="M32.8339 47.4395C32.66 47.6412 32.5332 47.9132 32.3358 47.982C32.134 48.0527 31.8347 47.9768 31.6302 47.867C31.469 47.7807 31.3738 47.5535 31.2715 47.3763C27.4387 40.7401 23.6082 34.1024 19.7778 27.4648C19.1717 26.4147 18.5618 25.3669 17.9604 24.3144C17.596 23.6763 17.6399 23.2761 18.0806 23.0494C18.485 22.842 18.7923 23.0037 19.1542 23.6301C23.5941 31.3169 28.0326 39.0042 32.4691 46.6924C32.5955 46.9111 32.6921 47.1468 32.8339 47.4395Z" fill="white"/>
<path d="M27.7509 48.817C28.1147 48.817 28.3688 48.8086 28.6219 48.8185C29.1818 48.8397 29.4849 49.0734 29.4971 49.4816C29.5098 49.91 29.1785 50.1707 28.5851 50.1895C28.3334 50.198 28.0817 50.191 27.7509 50.191C27.7509 50.7259 27.7523 51.1836 27.7504 51.6417C27.7494 51.8222 27.7603 52.006 27.732 52.1828C27.6707 52.5655 27.4016 52.8162 27.0717 52.8275C26.7106 52.8398 26.4142 52.5711 26.3873 52.1413C26.3557 51.6266 26.3741 51.1091 26.3661 50.5935C26.3652 50.494 26.343 50.3946 26.3246 50.2475C26.1121 50.2277 25.916 50.1985 25.719 50.1933C24.9512 50.174 24.6293 49.9822 24.6137 49.5221C24.5972 49.0494 24.9229 48.835 25.678 48.8147C25.8792 48.809 26.0805 48.7902 26.3708 48.7713C26.3708 48.2863 26.3685 47.8282 26.3718 47.3706C26.3732 47.1641 26.3666 46.9553 26.3986 46.7526C26.4533 46.4025 26.6809 46.2026 27.0307 46.1875C27.3856 46.172 27.6344 46.3723 27.7018 46.7079C27.7617 47.0076 27.7438 47.3234 27.7494 47.6321C27.756 47.9903 27.7509 48.3486 27.7509 48.817Z" fill="white"/>
<path d="M43.4979 42.613C43.8848 42.613 44.1931 42.5951 44.4985 42.6173C44.9411 42.6493 45.2027 42.9052 45.2126 43.2752C45.2225 43.6466 44.9708 43.9153 44.532 43.9766C44.3543 44.0006 44.1714 43.9813 43.9918 43.9916C43.8424 43.9992 43.6944 44.0209 43.4602 44.0454C43.4602 44.5011 43.4607 44.9324 43.4602 45.3641C43.4597 45.5447 43.4696 45.7256 43.4526 45.9048C43.4112 46.3497 43.1628 46.6136 42.7947 46.6221C42.4473 46.6296 42.1164 46.3459 42.0867 45.9415C42.0514 45.4542 42.0745 44.963 42.0684 44.4733C42.067 44.348 42.0509 44.2226 42.0358 44.0251C41.7469 44.0124 41.4736 44.0044 41.2007 43.9869C40.6412 43.9511 40.3452 43.7126 40.34 43.3012C40.3353 42.8836 40.6299 42.6371 41.1823 42.6116C41.4373 42.6003 41.6932 42.6097 42.0396 42.6097C42.0505 42.1441 42.0608 41.717 42.0707 41.2895C42.0759 41.0577 42.0542 40.822 42.0915 40.5958C42.1584 40.1843 42.4723 39.9439 42.8461 39.9779C43.1929 40.0099 43.4192 40.2399 43.4484 40.6589C43.4762 41.0694 43.4555 41.4828 43.4616 41.8952C43.4649 42.0969 43.4814 42.2987 43.4979 42.613Z" fill="white"/>
<path d="M1.75191 56.9778C1.75191 56.5291 1.75144 56.1237 1.75191 55.7174C1.75238 55.5115 1.74154 55.3041 1.75898 55.0995C1.79857 54.6362 2.02434 54.394 2.40517 54.3798C2.80815 54.3657 3.09189 54.6362 3.13242 55.1141C3.15834 55.4214 3.14043 55.732 3.14138 56.0417C3.14232 56.3236 3.14185 56.6059 3.14185 56.9886C3.4746 56.999 3.77201 57.0013 4.06847 57.0188C4.58787 57.0489 4.85417 57.2686 4.86925 57.6664C4.88574 58.0891 4.59447 58.3554 4.04867 58.3903C3.77342 58.4082 3.49581 58.3936 3.14185 58.3936C3.14185 58.9012 3.14279 59.3334 3.1409 59.7661C3.13996 59.9721 3.15646 60.1818 3.12441 60.384C3.06219 60.7762 2.71907 61.0538 2.375 61.0217C2.03659 60.9901 1.78915 60.7422 1.76464 60.3411C1.73683 59.8783 1.75568 59.4131 1.7505 58.9493C1.74861 58.7985 1.73494 58.6481 1.72363 58.4393C1.44131 58.4228 1.19292 58.4068 0.945006 58.396C0.32663 58.3682 0.00141617 58.1419 2.1956e-06 57.714C-0.000940452 57.3049 0.301649 56.9537 0.910128 57.0098C1.15804 57.0329 1.41162 56.9933 1.75191 56.9778Z" fill="white"/>
<path d="M29.0968 32.4027C28.7569 32.3999 28.4515 32.7176 28.469 33.056C28.4859 33.3765 28.7541 33.6315 29.0807 33.6366C29.4474 33.6423 29.7118 33.3652 29.6939 32.9942C29.6784 32.6652 29.4158 32.4051 29.0968 32.4027ZM31.0895 32.9989C31.1013 34.1245 30.2336 35.0171 29.1156 35.0285C28.0104 35.0398 27.0804 34.1414 27.0639 33.0475C27.0474 31.9776 27.9873 31.0194 29.0671 31.0057C30.1704 30.9916 31.0777 31.8852 31.0895 32.9989Z" fill="white"/>
<path d="M11.2912 56.4655C11.2912 56.1261 10.9725 55.8203 10.6379 55.8382C10.3212 55.8551 10.0704 56.128 10.0671 56.4589C10.0638 56.8001 10.2981 57.0528 10.6318 57.0702C10.9942 57.0891 11.2912 56.8166 11.2912 56.4655ZM12.6717 56.482C12.6632 57.6042 11.7516 58.4927 10.6308 58.47C9.55055 58.4488 8.66729 57.559 8.65692 56.4815C8.64608 55.3852 9.5793 54.4379 10.6699 54.4393C11.7766 54.4412 12.6806 55.3631 12.6717 56.482Z" fill="white"/>
<path d="M10.4041 38.7706C10.3636 38.2399 10.6092 37.5154 10.9843 36.8278C11.0814 36.6491 11.1997 36.4733 11.3421 36.3291C11.5829 36.0845 11.8704 36.0213 12.1787 36.2216C12.4822 36.4196 12.5496 36.7081 12.4426 37.0309C12.3875 37.1982 12.2701 37.3448 12.1853 37.5027C11.4203 38.9228 11.763 40.5093 13.0469 41.4943C13.637 41.9473 13.7652 42.3154 13.4621 42.691C13.1906 43.0276 12.7598 43.0097 12.231 42.609C11.0522 41.714 10.4268 40.5314 10.4041 38.7706Z" fill="white"/>
<path d="M54.614 22.1811C54.7653 22.7787 54.8713 23.2185 54.9887 23.6554C55.3653 25.0581 55.7631 26.4555 56.1199 27.8629C56.4253 29.0676 55.8903 30.2398 54.8308 30.796C53.7859 31.3446 52.5001 31.149 51.7469 30.2379C51.4354 29.8613 51.2351 29.3674 51.0776 28.8956C50.8326 28.1608 50.6667 27.3996 50.3584 26.654C50.3414 26.8189 50.3094 26.9839 50.3089 27.1493C50.3047 28.5576 50.307 29.966 50.3051 31.3743C50.3042 32.0082 50.2099 32.6176 49.8159 33.1431C49.1763 33.9977 48.319 34.3752 47.2745 34.1801C46.1735 33.975 45.4722 33.2888 45.2257 32.1854C45.1559 31.8739 45.1489 31.5444 45.147 31.2225C45.1385 29.9297 45.1446 28.6363 45.1418 27.3435C45.1413 27.1258 45.1229 26.908 44.9848 26.6785C44.8199 27.2912 44.6563 27.9049 44.4885 28.5171C44.4089 28.806 44.3344 29.0973 44.2331 29.3792C43.7768 30.647 42.4618 31.3516 41.1798 31.0241C39.9054 30.6989 39.0561 29.4282 39.3007 28.1118C39.4477 27.3209 39.6876 26.5451 39.9143 25.7707C40.0444 25.3262 40.3673 25.1415 40.7443 25.2268C41.1421 25.3173 41.3448 25.6623 41.2298 26.1435C41.0691 26.8161 40.8575 27.4759 40.6963 28.1485C40.4743 29.0733 41.1181 29.8236 42.0042 29.6907C42.55 29.6087 42.8493 29.2477 42.9911 28.7452C43.1915 28.0349 43.3767 27.3209 43.5662 26.6078C44.0587 24.7588 44.5493 22.9088 45.0423 21.0598C45.0899 20.8817 45.131 20.6993 45.204 20.5315C45.3643 20.1648 45.6306 20.0078 45.9633 20.071C46.3036 20.136 46.4799 20.3627 46.5138 20.6941C46.5374 20.9231 46.536 21.155 46.536 21.386C46.5374 24.6183 46.536 27.8507 46.5388 31.083C46.5393 31.3592 46.5364 31.641 46.5883 31.9102C46.6934 32.4607 47.1779 32.8457 47.7185 32.8505C48.2568 32.8547 48.7465 32.4743 48.8572 31.9238C48.911 31.6556 48.9081 31.3733 48.9086 31.0971C48.9114 27.8648 48.91 24.6325 48.9114 21.4001C48.9114 21.1692 48.9025 20.9359 48.9317 20.7082C48.9803 20.325 49.2136 20.0846 49.5407 20.0625C49.8805 20.0389 50.1176 20.1964 50.2387 20.514C50.2957 20.6639 50.3367 20.8209 50.3787 20.9764C51.063 23.514 51.7413 26.0535 52.4374 28.5878C52.5138 28.8664 52.6509 29.1539 52.8376 29.3702C53.1491 29.7312 53.6907 29.8123 54.1092 29.6087C54.5334 29.4032 54.8086 29.0737 54.7954 28.5779C54.7898 28.3507 54.7483 28.1198 54.6899 27.8992C54.0211 25.3809 53.3461 22.864 52.6745 20.3462C52.6274 20.169 52.5793 19.989 52.5609 19.807C52.5322 19.5275 52.6528 19.2683 52.9078 19.1915C53.1265 19.125 53.4107 19.1396 53.6233 19.2254C53.8222 19.3056 53.9687 19.5219 54.1318 19.685C55.5364 21.0876 56.9395 22.4917 58.3426 23.8958C58.3916 23.9448 58.4383 23.9957 58.4887 24.0433C59.0034 24.5335 59.5893 24.5938 60.0309 24.2035C60.4579 23.826 60.4711 23.2175 60.0352 22.6534C58.567 20.7549 57.0983 18.8559 55.6094 16.9739C55.3191 16.6063 55.1904 16.2386 55.1947 15.7734C55.2121 13.9268 55.1918 12.0792 55.205 10.2321C55.213 9.1226 54.8968 8.13989 54.1516 7.3113C53.9221 7.05585 53.8212 6.78106 53.8231 6.43511C53.8339 4.61109 53.8278 2.78707 53.8288 0.963043C53.8292 0.824947 53.8231 0.682606 53.8528 0.549694C53.9296 0.202328 54.2143 -0.0140114 54.5527 0.0062561C54.8968 0.0269966 55.1089 0.22401 55.1824 0.548279C55.2225 0.725025 55.2093 0.91497 55.2097 1.09926C55.2116 2.69233 55.2173 4.28588 55.2055 5.87895C55.2031 6.2183 55.2809 6.49356 55.493 6.76881C56.2372 7.73314 56.5855 8.83981 56.586 10.0563C56.5865 11.8341 56.594 13.6124 56.5808 15.3898C56.578 15.7786 56.6723 16.0892 56.9188 16.4013C58.3502 18.2111 59.767 20.0328 61.1762 21.8601C61.9996 22.9277 61.9435 24.2469 61.0645 25.1339C60.1167 26.0898 58.6495 26.1101 57.6455 25.15C56.8118 24.3525 56.0096 23.5215 55.1914 22.708C55.0471 22.5648 54.8911 22.4337 54.614 22.1811Z" fill="white"/>
<path d="M45.0094 3.22985C45.009 3.99151 44.9953 4.75317 45.0141 5.51436C45.0259 5.97908 44.8633 6.29534 44.4415 6.52016C43.5135 7.01505 42.8093 7.76163 42.445 8.73727C42.0222 9.86939 41.2469 10.5627 40.2057 11.1203C38.3166 12.1327 36.4846 13.2502 34.6248 14.3163C34.1596 14.5831 33.8292 14.9437 33.7269 15.4791C33.4823 16.7512 34.629 17.7848 35.8516 17.3535C37.0026 16.9477 38.1262 16.4656 39.2631 16.0202C39.6062 15.8858 39.9484 15.7444 40.3 15.6365C42.0321 15.1053 43.668 16.5796 43.3127 18.3612C43.1911 18.9702 43.0209 19.5716 42.8423 20.1673C42.6985 20.6467 42.3432 20.8564 41.9699 20.7348C41.5768 20.6066 41.4057 20.2724 41.5188 19.7832C41.622 19.3345 41.754 18.8924 41.8803 18.4494C42.0132 17.9842 42.0589 17.5331 41.6555 17.1697C41.2553 16.8082 40.8203 16.8846 40.3641 17.0712C39.1268 17.576 37.8807 18.0601 36.6425 18.562C35.689 18.9485 34.7482 18.9612 33.8424 18.4508C31.8746 17.3427 31.7511 14.5859 33.6345 13.3204C34.5319 12.7171 35.4972 12.2152 36.4346 11.6717C37.7105 10.9313 38.9864 10.1904 40.2689 9.46075C40.5418 9.30521 40.7284 9.10961 40.8533 8.81598C41.4132 7.50146 42.1527 6.31843 43.3951 5.53038C43.6638 5.3607 43.619 5.09912 43.6195 4.85026C43.6223 3.62765 43.6195 2.40456 43.6223 1.18147C43.6228 0.974092 43.6181 0.762468 43.6577 0.561686C43.7312 0.192638 43.9956 -0.00955963 44.3387 0.000337601C44.679 0.0102348 44.9227 0.227516 44.9859 0.600334C45.0127 0.758228 45.0085 0.922249 45.009 1.08391C45.0108 1.79891 45.0099 2.51438 45.0094 3.22985Z" fill="white"/>
<path d="M31.6472 26.0214C31.4506 25.9974 31.2621 25.9979 31.0882 25.9474C30.7672 25.8546 30.5711 25.6203 30.582 25.2871C30.5923 24.96 30.7747 24.6956 31.1169 24.6602C31.5025 24.6202 31.8984 24.6178 32.2839 24.6565C32.6256 24.6909 32.8057 24.9487 32.8156 25.2833C32.8255 25.6189 32.6459 25.8631 32.3197 25.9474C32.1006 26.004 31.8649 25.9997 31.6472 26.0214Z" fill="white"/>
<path d="M36.2722 26.0168C36.1176 25.9975 35.8824 25.9984 35.6656 25.9352C35.3366 25.8386 35.2037 25.5827 35.2235 25.2438C35.2419 24.9285 35.4007 24.7013 35.7099 24.6636C36.0714 24.6193 36.4438 24.6056 36.8058 24.6391C37.1993 24.6754 37.4543 24.9884 37.4406 25.3258C37.4284 25.635 37.1805 25.9084 36.8274 25.9763C36.671 26.0064 36.5079 26.0008 36.2722 26.0168Z" fill="white"/>
<path d="M59.0921 31.4729C58.9078 31.4729 58.7193 31.4993 58.5411 31.4667C58.2155 31.4088 58.0071 31.2113 57.9784 30.8639C57.9496 30.5194 58.1019 30.2319 58.4266 30.1814C58.8503 30.115 59.2981 30.1079 59.7213 30.1711C60.0362 30.2182 60.2157 30.4991 60.1903 30.8446C60.1653 31.1835 59.973 31.4022 59.6426 31.4634C59.4649 31.4964 59.2759 31.4696 59.0921 31.4696V31.4729Z" fill="white"/>
<path d="M59.0985 3.61685C59.2597 3.61685 59.4219 3.6046 59.5812 3.61921C59.9219 3.65126 60.126 3.84733 60.184 4.18244C60.2401 4.50624 60.0516 4.87435 59.716 4.92761C59.3139 4.99123 58.8888 4.99171 58.4849 4.93562C58.1319 4.8866 57.948 4.5595 57.9787 4.21874C58.0098 3.86996 58.22 3.66304 58.6154 3.61733C58.7747 3.59894 58.9373 3.6145 59.0985 3.6145V3.61685Z" fill="white"/>
<path d="M60.7293 6.61149C60.7293 6.42767 60.7156 6.24292 60.7321 6.06098C60.7642 5.71079 60.9914 5.53216 61.3166 5.48079C61.6413 5.42847 61.9736 5.63255 62.0349 5.98416C62.0971 6.34095 62.1032 6.71707 62.0688 7.07857C62.0316 7.46836 61.7139 7.71297 61.3646 7.70119C61.0093 7.68894 60.7632 7.43536 60.7218 7.02484C60.7086 6.88863 60.7199 6.74912 60.7199 6.61149H60.7293Z" fill="white"/>
<path d="M60.724 33.111C60.7235 32.9503 60.7136 32.7886 60.7254 32.6293C60.7509 32.2904 60.9285 32.0759 61.2712 32.0189C61.6195 31.9614 61.9636 32.1198 62.0178 32.4667C62.0833 32.8876 62.0819 33.3349 62.0164 33.7557C61.9669 34.0725 61.6761 34.237 61.3395 34.2219C61.0044 34.2068 60.7725 33.966 60.7273 33.5922C60.7084 33.4343 60.724 33.2717 60.724 33.111Z" fill="white"/>
<path d="M63.6905 5.00287C63.4883 4.98354 63.2767 4.99203 63.0811 4.93924C62.7469 4.84875 62.5273 4.51788 62.5819 4.20869C62.639 3.88677 62.8186 3.64923 63.165 3.62519C63.5081 3.60162 63.8545 3.59974 64.1972 3.62236C64.5384 3.64498 64.7359 3.85472 64.7811 4.19502C64.8269 4.53814 64.6454 4.84592 64.3089 4.93971C64.1133 4.99344 63.9007 4.98354 63.6905 5.00287Z" fill="white"/>
<path d="M63.6965 31.4715C63.5131 31.4715 63.326 31.4941 63.1464 31.4668C62.809 31.4163 62.6289 31.1835 62.5785 30.8611C62.5337 30.5769 62.7331 30.2215 63.0352 30.1791C63.4594 30.1202 63.9029 30.1136 64.3266 30.1706C64.658 30.2159 64.7998 30.5091 64.7871 30.846C64.7748 31.1642 64.5693 31.4107 64.246 31.464C64.0674 31.4936 63.8798 31.4691 63.6965 31.4691V31.4715Z" fill="white"/>
<path d="M34.7103 27.6314C34.699 27.8223 34.7117 28.0113 34.6721 28.1881C34.5972 28.5232 34.288 28.7409 33.958 28.7079C33.6229 28.674 33.383 28.4878 33.3467 28.1541C33.3081 27.7908 33.3081 27.4165 33.3467 27.0531C33.384 26.7053 33.6894 26.4828 34.0273 26.497C34.3681 26.5116 34.592 26.6996 34.6702 27.0211C34.7183 27.2181 34.6994 27.4321 34.7103 27.6314Z" fill="white"/>
<path d="M34.7078 22.9921C34.6998 23.175 34.7144 23.3621 34.6786 23.5393C34.614 23.8631 34.2897 24.1101 33.9871 24.0974C33.6751 24.0842 33.3777 23.8301 33.341 23.4936C33.3084 23.1995 33.3122 22.8988 33.3301 22.6023C33.357 22.1461 33.6044 21.8963 33.9989 21.8906C34.3925 21.8845 34.6503 22.1348 34.696 22.5802C34.7097 22.7159 34.6979 22.8545 34.6979 22.9921C34.7012 22.9921 34.7045 22.9921 34.7078 22.9921Z" fill="white"/>
<path d="M60.7295 1.99515C60.7295 1.81275 60.7126 1.62799 60.7333 1.44794C60.7724 1.11142 60.9751 0.911104 61.3111 0.871513C61.6486 0.831922 61.9498 0.983217 61.9993 1.29947C62.0681 1.73875 62.0714 2.20536 61.9965 2.64228C61.9441 2.95005 61.6387 3.10794 61.3003 3.0594C60.969 3.01227 60.7663 2.8129 60.73 2.47401C60.7135 2.31612 60.7272 2.15493 60.7272 1.99515H60.7295Z" fill="white"/>
<path d="M60.7237 28.4917C60.7237 28.33 60.712 28.1679 60.7261 28.0081C60.7567 27.6687 60.9391 27.4552 61.2832 27.402C61.6334 27.3482 61.9638 27.5113 62.0222 27.8672C62.0878 28.2673 62.0887 28.6934 62.0288 29.095C61.9779 29.4395 61.6202 29.6318 61.295 29.5762C60.9613 29.5187 60.7591 29.3189 60.7275 28.9753C60.7124 28.8155 60.7247 28.6533 60.7247 28.4917H60.7237Z" fill="white"/>
<path d="M41.3625 22.3191C41.7711 22.3135 42.061 22.6066 42.0468 23.0101C42.0341 23.357 41.7197 23.6742 41.3832 23.6784C41.0264 23.6836 40.6725 23.3193 40.6875 22.9625C40.7026 22.6 40.9915 22.3243 41.3625 22.3191Z" fill="white"/>
</svg>
