<svg width="184" height="185" viewBox="0 0 184 185" fill="none" xmlns="http://www.w3.org/2000/svg">
<path d="M100.71 181.356C97.1511 183.277 94.0497 182.641 91.3231 179.703C87.7951 181.647 84.6991 180.931 81.9844 178.091C81.4564 178.297 80.9937 178.495 80.5204 178.661C76.7631 179.984 72.8751 178.161 71.8417 174.327C71.4444 172.853 70.6311 172.144 69.4724 171.472C62.7137 167.559 55.9697 163.621 49.2217 159.689C48.5924 159.323 47.9377 158.981 47.3551 158.548C46.3871 157.827 46.1511 156.752 46.6911 155.875C47.2457 154.972 48.1977 154.756 49.3857 155.284C49.7177 155.432 50.0284 155.628 50.3444 155.812C58.0404 160.295 65.7311 164.785 73.4337 169.256C74.6391 169.955 75.4791 170.711 75.4484 172.32C75.4164 174.023 76.4591 175.012 77.9084 175.14C79.4457 175.275 80.5831 174.347 80.9404 172.613C81.2964 170.895 80.8737 169.279 80.1897 167.717C79.9564 167.183 79.6137 166.696 79.3964 166.157C79.0217 165.228 79.2724 164.421 80.0751 163.839C80.8511 163.277 82.0537 163.384 82.6177 164.259C83.3604 165.411 84.0884 166.66 84.4204 167.969C84.8084 169.497 84.7724 171.136 84.8951 172.728C84.9164 173.012 84.7897 173.304 84.7737 173.595C84.6724 175.412 85.6684 176.693 87.2897 176.847C88.7617 176.988 90.1817 175.941 90.2711 174.284C90.3684 172.487 90.1551 170.663 89.9591 168.864C89.8831 168.16 89.4884 167.491 89.2364 166.805C88.6164 165.129 88.8871 164.101 90.0657 163.664C91.2417 163.231 92.2724 163.721 92.8564 165.38C93.4817 167.152 93.9617 169.003 94.2284 170.86C94.4324 172.285 94.1551 173.773 94.1924 175.232C94.2097 175.933 94.2951 176.723 94.6364 177.305C95.1831 178.237 96.1537 178.717 97.2591 178.504C98.3964 178.284 99.2537 177.653 99.5444 176.425C100.278 173.333 99.8684 170.336 98.8257 167.389C98.6564 166.909 98.3884 166.456 98.2724 165.964C98.0151 164.877 98.4644 164.031 99.4444 163.671C100.391 163.325 101.19 163.579 101.73 164.416C102.043 164.901 102.275 165.451 102.468 165.999C103.603 169.212 104.148 172.495 103.606 175.904C103.538 176.336 103.476 176.775 103.475 177.211C103.471 178.797 104.407 179.94 105.847 180.149C107.292 180.357 108.582 179.541 108.914 177.973C109.448 175.447 109.431 172.881 108.903 170.355C108.591 168.861 108.043 167.417 107.674 165.933C107.408 164.871 107.906 163.975 108.846 163.653C109.798 163.327 110.572 163.62 111.131 164.436C111.335 164.733 111.516 165.075 111.596 165.423C112.116 167.689 112.823 169.944 113.034 172.243C113.179 173.833 113.7 174.729 115.09 175.427C118.059 176.913 121.36 176.443 123.488 174.076C125.47 171.873 125.099 169.425 122.635 167.803C118.859 165.316 115.006 162.923 111.404 160.197C104.782 155.184 99.2031 149.111 94.3391 142.383C93.9977 141.911 93.6484 141.432 93.3977 140.911C92.9697 140.023 93.1204 139.188 93.8924 138.544C94.6284 137.929 95.7004 138.008 96.4831 138.74C96.7964 139.035 97.0324 139.417 97.2857 139.772C104.512 149.925 113.48 158.183 124.368 164.243C129.088 166.869 129.611 172.475 127.22 175.669C126.108 177.157 124.779 178.376 123.071 179.151C120.43 180.348 117.734 180.551 114.976 179.596C114.359 179.383 113.754 179.141 112.987 178.853C111.934 181.368 110.426 183.408 107.555 183.961C104.766 184.5 102.563 183.465 100.71 181.356Z" fill="white"/>
<path d="M21.2709 103.417C19.3056 100.003 17.4189 96.7187 15.5243 93.4373C10.9629 85.5347 6.39492 77.636 1.83359 69.732C1.50559 69.164 1.15092 68.6 0.910922 67.9947C0.454922 66.8427 0.817589 65.8867 1.80959 65.4027C2.70426 64.9653 3.62159 65.1747 4.26159 66.18C5.35759 67.9027 6.35359 69.6907 7.37492 71.46C13.1029 81.3867 18.7896 91.3373 24.5843 101.225C25.6283 103.005 25.5909 104.343 24.3163 105.967C21.6109 109.411 19.0149 112.945 16.4683 116.509C10.9629 124.221 13.0243 133.948 21.2069 138.807C28.1096 142.905 35.0669 146.915 41.9976 150.968C42.5003 151.261 43.0469 151.519 43.4656 151.907C44.1789 152.567 44.3883 153.404 43.8483 154.279C43.3283 155.117 42.5496 155.448 41.5936 155.117C41.1176 154.952 40.6696 154.689 40.2296 154.435C33.2269 150.361 26.2016 146.325 19.2323 142.196C8.99359 136.129 6.43626 123.595 13.4376 113.997C15.9736 110.52 18.5576 107.079 21.2709 103.417Z" fill="white"/>
<path d="M93.5919 134.425C93.0999 134.996 92.7412 135.765 92.1825 135.96C91.6119 136.16 90.7652 135.945 90.1865 135.635C89.7305 135.391 89.4612 134.748 89.1719 134.247C78.3292 115.473 67.4932 96.6959 56.6572 77.9186C54.9425 74.9479 53.2172 71.9839 51.5159 69.0066C50.4852 67.2012 50.6092 66.0692 51.8559 65.4279C52.9999 64.8412 53.8692 65.2986 54.8932 67.0706C67.4532 88.8159 80.0092 110.563 92.5599 132.312C92.9172 132.931 93.1905 133.597 93.5919 134.425Z" fill="white"/>
<path d="M79.2123 138.322C80.2416 138.322 80.9603 138.298 81.6763 138.326C83.2603 138.386 84.1176 139.048 84.1523 140.202C84.1883 141.414 83.251 142.152 81.5723 142.205C80.8603 142.229 80.1483 142.209 79.2123 142.209C79.2123 143.722 79.2163 145.017 79.211 146.313C79.2083 146.824 79.239 147.344 79.159 147.844C78.9856 148.926 78.2243 149.636 77.291 149.668C76.2696 149.702 75.431 148.942 75.355 147.726C75.2656 146.27 75.3176 144.806 75.295 143.348C75.2923 143.066 75.2296 142.785 75.1776 142.369C74.5763 142.313 74.0216 142.23 73.4643 142.216C71.2923 142.161 70.3816 141.618 70.3376 140.317C70.291 138.98 71.2123 138.373 73.3483 138.316C73.9176 138.3 74.487 138.246 75.3083 138.193C75.3083 136.821 75.3016 135.525 75.311 134.23C75.315 133.646 75.2963 133.056 75.387 132.482C75.5416 131.492 76.1856 130.926 77.175 130.884C78.179 130.84 78.883 131.406 79.0736 132.356C79.243 133.204 79.1923 134.097 79.2083 134.97C79.227 135.984 79.2123 136.997 79.2123 138.322Z" fill="white"/>
<path d="M123.759 120.772C124.854 120.772 125.726 120.721 126.59 120.784C127.842 120.874 128.582 121.598 128.61 122.645C128.638 123.696 127.926 124.456 126.685 124.629C126.182 124.697 125.665 124.642 125.157 124.672C124.734 124.693 124.315 124.754 123.653 124.824C123.653 126.113 123.654 127.333 123.653 128.554C123.651 129.065 123.679 129.577 123.631 130.084C123.514 131.342 122.811 132.089 121.77 132.113C120.787 132.134 119.851 131.332 119.767 130.188C119.667 128.809 119.733 127.42 119.715 126.034C119.711 125.68 119.666 125.325 119.623 124.766C118.806 124.73 118.033 124.708 117.261 124.658C115.678 124.557 114.841 123.882 114.826 122.718C114.813 121.537 115.646 120.84 117.209 120.768C117.93 120.736 118.654 120.762 119.634 120.762C119.665 119.445 119.694 118.237 119.722 117.028C119.737 116.372 119.675 115.705 119.781 115.065C119.97 113.901 120.858 113.221 121.915 113.317C122.897 113.408 123.537 114.058 123.619 115.244C123.698 116.405 123.639 117.574 123.657 118.741C123.666 119.312 123.713 119.882 123.759 120.772Z" fill="white"/>
<path d="M5.66346 161.408C5.66346 160.139 5.66213 158.992 5.66346 157.843C5.6648 157.26 5.63413 156.674 5.68346 156.095C5.79546 154.784 6.43413 154.099 7.51146 154.059C8.65146 154.019 9.45413 154.784 9.5688 156.136C9.64213 157.006 9.59146 157.884 9.59413 158.76C9.5968 159.558 9.59546 160.356 9.59546 161.439C10.5368 161.468 11.3781 161.475 12.2168 161.524C13.6861 161.61 14.4395 162.231 14.4821 163.356C14.5288 164.552 13.7048 165.306 12.1608 165.404C11.3821 165.455 10.5968 165.414 9.59546 165.414C9.59546 166.85 9.59813 168.072 9.5928 169.296C9.59013 169.879 9.6368 170.472 9.54613 171.044C9.37013 172.154 8.39946 172.939 7.42613 172.848C6.4688 172.759 5.7688 172.058 5.69946 170.923C5.6208 169.614 5.67413 168.298 5.65946 166.986C5.65413 166.559 5.61546 166.134 5.58346 165.543C4.7848 165.496 4.08213 165.451 3.3808 165.42C1.63146 165.342 0.711465 164.702 0.707465 163.491C0.704798 162.334 1.5608 161.34 3.28213 161.499C3.98346 161.564 4.7008 161.452 5.66346 161.408Z" fill="white"/>
<path d="M83.0196 91.8875C82.0582 91.8795 81.1942 92.7782 81.2436 93.7355C81.2916 94.6422 82.0502 95.3635 82.9742 95.3782C84.0116 95.3942 84.7596 94.6102 84.7089 93.5608C84.6649 92.6302 83.9222 91.8942 83.0196 91.8875ZM88.6569 93.5742C88.6902 96.7582 86.2356 99.2835 83.0729 99.3155C79.9462 99.3475 77.3156 96.8062 77.2689 93.7115C77.2222 90.6848 79.8809 87.9742 82.9356 87.9355C86.0569 87.8955 88.6236 90.4235 88.6569 93.5742" fill="white"/>
<path d="M32.6491 159.959C32.6491 158.999 31.7478 158.134 30.8011 158.184C29.9051 158.232 29.1958 159.004 29.1864 159.94C29.1771 160.906 29.8398 161.62 30.7838 161.67C31.8091 161.723 32.6491 160.952 32.6491 159.959ZM36.5544 160.006C36.5304 163.18 33.9518 165.694 30.7811 165.63C27.7251 165.57 25.2264 163.052 25.1971 160.004C25.1664 156.903 27.8064 154.223 30.8918 154.227C34.0224 154.232 36.5798 156.84 36.5544 160.006" fill="white"/>
<path d="M30.14 109.902C30.0254 108.4 30.72 106.351 31.7814 104.406C32.056 103.9 32.3907 103.403 32.7934 102.995C33.4747 102.303 34.288 102.124 35.16 102.691C36.0187 103.251 36.2094 104.067 35.9067 104.98C35.7507 105.454 35.4187 105.868 35.1787 106.315C33.0147 110.332 33.984 114.82 37.616 117.607C39.2854 118.888 39.648 119.93 38.7907 120.992C38.0227 121.944 36.804 121.894 35.308 120.76C31.9734 118.228 30.204 114.883 30.14 109.902Z" fill="white"/>
<path d="M155.206 62.9715C155.634 64.6622 155.934 65.9062 156.266 67.1422C157.331 71.1102 158.456 75.0635 159.466 79.0448C160.33 82.4528 158.816 85.7688 155.819 87.3422C152.863 88.8942 149.226 88.3408 147.095 85.7635C146.214 84.6982 145.647 83.3008 145.202 81.9662C144.508 79.8875 144.039 77.7342 143.167 75.6248C143.119 76.0915 143.028 76.5582 143.027 77.0262C143.015 81.0102 143.022 84.9942 143.016 88.9782C143.014 90.7715 142.747 92.4955 141.632 93.9822C139.823 96.3995 137.398 97.4675 134.443 96.9155C131.328 96.3355 129.344 94.3942 128.647 91.2728C128.45 90.3915 128.43 89.4595 128.424 88.5488C128.4 84.8915 128.418 81.2328 128.41 77.5755C128.408 76.9595 128.356 76.3435 127.966 75.6942C127.499 77.4275 127.036 79.1635 126.562 80.8955C126.336 81.7128 126.126 82.5368 125.839 83.3342C124.548 86.9208 120.828 88.9142 117.202 87.9875C113.596 87.0675 111.194 83.4728 111.886 79.7488C112.302 77.5115 112.98 75.3168 113.622 73.1262C113.99 71.8688 114.903 71.3462 115.97 71.5875C117.095 71.8435 117.668 72.8195 117.343 74.1808C116.888 76.0835 116.29 77.9502 115.834 79.8528C115.206 82.4688 117.027 84.5915 119.534 84.2155C121.078 83.9835 121.924 82.9622 122.326 81.5408C122.892 79.5315 123.416 77.5115 123.952 75.4942C125.346 70.2635 126.734 65.0302 128.128 59.7995C128.263 59.2955 128.379 58.7795 128.586 58.3048C129.039 57.2675 129.792 56.8235 130.734 57.0022C131.696 57.1862 132.195 57.8275 132.291 58.7648C132.358 59.4128 132.354 60.0688 132.354 60.7222C132.358 69.8662 132.354 79.0102 132.362 88.1542C132.363 88.9355 132.355 89.7328 132.502 90.4942C132.799 92.0515 134.17 93.1408 135.699 93.1542C137.222 93.1662 138.607 92.0902 138.92 90.5328C139.072 89.7742 139.064 88.9755 139.066 88.1942C139.074 79.0502 139.07 69.9062 139.074 60.7622C139.074 60.1088 139.048 59.4488 139.131 58.8048C139.268 57.7208 139.928 57.0408 140.854 56.9782C141.815 56.9115 142.486 57.3568 142.828 58.2555C142.99 58.6795 143.106 59.1235 143.224 59.5635C145.16 66.7422 147.079 73.9262 149.048 81.0955C149.264 81.8835 149.652 82.6968 150.18 83.3088C151.062 84.3302 152.594 84.5595 153.778 83.9835C154.978 83.4022 155.756 82.4702 155.719 81.0675C155.703 80.4248 155.586 79.7715 155.42 79.1475C153.528 72.0235 151.619 64.9035 149.719 57.7808C149.586 57.2795 149.45 56.7702 149.398 56.2555C149.316 55.4648 149.658 54.7315 150.379 54.5142C150.998 54.3262 151.802 54.3675 152.403 54.6102C152.966 54.8368 153.38 55.4488 153.842 55.9102C157.815 59.8782 161.784 63.8502 165.754 67.8222C165.892 67.9608 166.024 68.1048 166.167 68.2395C167.623 69.6262 169.28 69.7968 170.53 68.6928C171.738 67.6248 171.775 65.9035 170.542 64.3075C166.388 58.9368 162.234 53.5648 158.022 48.2408C157.2 47.2008 156.836 46.1608 156.848 44.8448C156.898 39.6208 156.84 34.3942 156.878 29.1688C156.9 26.0302 156.006 23.2502 153.898 20.9062C153.248 20.1835 152.963 19.4062 152.968 18.4275C152.999 13.2675 152.982 8.10749 152.984 2.9475C152.986 2.55683 152.968 2.15416 153.052 1.77816C153.27 0.795497 154.075 0.183497 155.032 0.24083C156.006 0.299497 156.606 0.856832 156.814 1.77417C156.927 2.27417 156.89 2.8115 156.891 3.33283C156.896 7.8395 156.912 12.3475 156.879 16.8542C156.872 17.8142 157.092 18.5928 157.692 19.3715C159.798 22.0995 160.783 25.2302 160.784 28.6715C160.786 33.7008 160.807 38.7315 160.77 43.7595C160.762 44.8595 161.028 45.7382 161.726 46.6208C165.775 51.7408 169.783 56.8942 173.77 62.0635C176.099 65.0835 175.94 68.8155 173.454 71.3248C170.772 74.0288 166.622 74.0862 163.782 71.3702C161.423 69.1142 159.154 66.7635 156.839 64.4622C156.431 64.0568 155.99 63.6862 155.206 62.9715Z" fill="white"/>
<path d="M128.035 9.36016C128.034 11.5148 127.995 13.6695 128.049 15.8228C128.082 17.1375 127.622 18.0322 126.429 18.6682C123.803 20.0682 121.811 22.1802 120.781 24.9402C119.585 28.1428 117.391 30.1042 114.446 31.6815C109.102 34.5455 103.919 37.7068 98.6579 40.7228C97.3419 41.4775 96.4072 42.4975 96.1179 44.0122C95.4259 47.6108 98.6699 50.5348 102.129 49.3148C105.385 48.1668 108.563 46.8028 111.779 45.5428C112.75 45.1628 113.718 44.7628 114.713 44.4575C119.613 42.9548 124.241 47.1255 123.235 52.1655C122.891 53.8882 122.41 55.5895 121.905 57.2748C121.498 58.6308 120.493 59.2242 119.437 58.8802C118.325 58.5175 117.841 57.5722 118.161 56.1882C118.453 54.9188 118.826 53.6682 119.183 52.4148C119.559 51.0988 119.689 49.8228 118.547 48.7948C117.415 47.7722 116.185 47.9882 114.894 48.5162C111.394 49.9442 107.869 51.3135 104.366 52.7335C101.669 53.8268 99.0072 53.8628 96.4446 52.4188C90.8779 49.2842 90.5286 41.4855 95.8566 37.9055C98.3952 36.1988 101.126 34.7788 103.778 33.2415C107.387 31.1468 110.997 29.0508 114.625 26.9868C115.397 26.5468 115.925 25.9935 116.278 25.1628C117.862 21.4442 119.954 18.0975 123.469 15.8682C124.229 15.3882 124.102 14.6482 124.103 13.9442C124.111 10.4855 124.103 7.02549 124.111 3.56549C124.113 2.97882 124.099 2.38016 124.211 1.81216C124.419 0.768157 125.167 0.196155 126.138 0.224155C127.101 0.252155 127.79 0.866825 127.969 1.92149C128.045 2.36816 128.033 2.83216 128.034 3.28949C128.039 5.31216 128.037 7.33616 128.035 9.36016Z" fill="white"/>
<path d="M90.2344 73.8354C89.6784 73.7674 89.1451 73.7687 88.6531 73.6261C87.7451 73.3634 87.1904 72.7007 87.2211 71.7581C87.2504 70.8327 87.7664 70.0847 88.7344 69.9847C89.8251 69.8714 90.9451 69.8647 92.0357 69.9741C93.0024 70.0714 93.5117 70.8007 93.5397 71.7474C93.5677 72.6967 93.0597 73.3874 92.1371 73.6261C91.5171 73.7861 90.8504 73.7741 90.2344 73.8354Z" fill="white"/>
<path d="M103.318 73.8223C102.881 73.7677 102.216 73.7703 101.602 73.5917C100.672 73.3183 100.296 72.5943 100.352 71.6357C100.404 70.7437 100.853 70.101 101.728 69.9943C102.75 69.869 103.804 69.8303 104.828 69.925C105.941 70.0277 106.662 70.913 106.624 71.8677C106.589 72.7423 105.888 73.5157 104.889 73.7077C104.446 73.793 103.985 73.777 103.318 73.8223Z" fill="white"/>
<path d="M167.874 89.2572C167.352 89.2572 166.819 89.3319 166.315 89.2399C165.394 89.0759 164.804 88.5172 164.723 87.5346C164.642 86.5599 165.072 85.7466 165.991 85.6039C167.19 85.4159 168.456 85.3959 169.654 85.5746C170.544 85.7079 171.052 86.5026 170.98 87.4799C170.91 88.4386 170.366 89.0572 169.431 89.2306C168.928 89.3239 168.394 89.2479 167.874 89.2479V89.2572Z" fill="white"/>
<path d="M167.892 10.4551C168.348 10.4551 168.807 10.4204 169.257 10.4617C170.221 10.5524 170.799 11.1071 170.963 12.0551C171.121 12.9711 170.588 14.0124 169.639 14.1631C168.501 14.3431 167.299 14.3444 166.156 14.1857C165.157 14.0471 164.637 13.1217 164.724 12.1577C164.812 11.1711 165.407 10.5857 166.525 10.4564C166.976 10.4044 167.436 10.4484 167.892 10.4484V10.4551Z" fill="white"/>
<path d="M172.505 18.9266C172.505 18.4066 172.467 17.8839 172.513 17.3692C172.604 16.3786 173.247 15.8732 174.167 15.7279C175.085 15.5799 176.025 16.1572 176.199 17.1519C176.375 18.1612 176.392 19.2252 176.295 20.2479C176.189 21.3506 175.291 22.0426 174.303 22.0092C173.297 21.9746 172.601 21.2572 172.484 20.0959C172.447 19.7106 172.479 19.3159 172.479 18.9266H172.505Z" fill="white"/>
<path d="M172.49 93.8913C172.489 93.4367 172.461 92.9793 172.494 92.5287C172.566 91.57 173.069 90.9633 174.038 90.802C175.024 90.6393 175.997 91.0873 176.15 92.0687C176.336 93.2593 176.332 94.5247 176.146 95.7153C176.006 96.6113 175.184 97.0767 174.232 97.034C173.284 96.9913 172.628 96.31 172.5 95.2527C172.446 94.806 172.49 94.346 172.49 93.8913Z" fill="white"/>
<path d="M180.882 14.3758C180.31 14.3211 179.712 14.3451 179.158 14.1958C178.213 13.9398 177.592 13.0038 177.746 12.1291C177.908 11.2185 178.416 10.5465 179.396 10.4785C180.366 10.4118 181.346 10.4065 182.316 10.4705C183.281 10.5345 183.84 11.1278 183.968 12.0905C184.097 13.0611 183.584 13.9318 182.632 14.1971C182.078 14.3491 181.477 14.3211 180.882 14.3758Z" fill="white"/>
<path d="M180.899 89.2534C180.38 89.2534 179.851 89.3174 179.343 89.2401C178.388 89.0974 177.879 88.4387 177.736 87.5267C177.61 86.7227 178.174 85.7174 179.028 85.5974C180.228 85.4307 181.483 85.4121 182.682 85.5734C183.619 85.7014 184.02 86.5307 183.984 87.4841C183.95 88.3841 183.368 89.0814 182.454 89.2321C181.948 89.3161 181.418 89.2467 180.899 89.2467V89.2534Z" fill="white"/>
<path d="M98.8997 78.39C98.8677 78.93 98.9037 79.4647 98.7917 79.9647C98.5797 80.9127 97.7051 81.5287 96.7717 81.4353C95.8237 81.3393 95.1451 80.8127 95.0424 79.8687C94.9331 78.8407 94.9331 77.782 95.0424 76.754C95.1477 75.77 96.0117 75.1407 96.9677 75.1807C97.9317 75.222 98.5651 75.754 98.7864 76.6633C98.9224 77.2207 98.8691 77.826 98.8997 78.39Z" fill="white"/>
<path d="M98.8927 65.2657C98.87 65.7831 98.9113 66.3124 98.81 66.8137C98.6273 67.7297 97.71 68.4284 96.854 68.3924C95.9713 68.3551 95.13 67.6364 95.026 66.6844C94.934 65.8524 94.9447 65.0017 94.9953 64.1631C95.0713 62.8724 95.7713 62.1657 96.8873 62.1497C98.0007 62.1324 98.73 62.8404 98.8593 64.1004C98.898 64.4844 98.8647 64.8764 98.8647 65.2657C98.874 65.2657 98.8833 65.2657 98.8927 65.2657Z" fill="white"/>
<path d="M172.506 5.86725C172.506 5.35125 172.458 4.82858 172.517 4.31925C172.627 3.36725 173.201 2.80058 174.151 2.68858C175.106 2.57658 175.958 3.00458 176.098 3.89925C176.293 5.14192 176.302 6.46192 176.09 7.69792C175.942 8.56858 175.078 9.01525 174.121 8.87792C173.183 8.74458 172.61 8.18058 172.507 7.22192C172.461 6.77525 172.499 6.31925 172.499 5.86725H172.506Z" fill="white"/>
<path d="M172.49 80.8236C172.49 80.3663 172.456 79.9076 172.496 79.4556C172.583 78.4956 173.099 77.8916 174.072 77.7409C175.063 77.5889 175.998 78.0503 176.163 79.0569C176.348 80.1889 176.351 81.3943 176.182 82.5303C176.038 83.5049 175.026 84.0489 174.106 83.8916C173.162 83.7289 172.59 83.1636 172.5 82.1916C172.458 81.7396 172.492 81.2809 172.492 80.8236H172.49Z" fill="white"/>
<path d="M117.718 63.362C118.874 63.346 119.694 64.1754 119.654 65.3167C119.618 66.298 118.729 67.1954 117.777 67.2074C116.767 67.222 115.766 66.1914 115.809 65.182C115.851 64.1567 116.669 63.3767 117.718 63.362Z" fill="white"/>
</svg>
