<svg width="41" height="55" viewBox="0 0 41 55" fill="none" xmlns="http://www.w3.org/2000/svg">
<path d="M10.7612 51.5153C10.5682 52.0892 10.4172 52.5375 10.243 53.0545H12.2674C11.7253 52.5006 11.2876 52.0535 10.7612 51.5153ZM26.3463 53.0137C27.0265 53.1384 27.6298 53.1949 28.2974 52.9533C28.1287 52.4748 27.98 52.0539 27.7996 51.542C27.2705 52.0782 26.8414 52.5124 26.3463 53.0137ZM20.1422 53.058C20.1422 52.1712 20.1622 51.3372 20.1359 50.5049C20.1155 49.8491 19.7887 49.5211 19.2549 49.5357C18.7297 49.5498 18.4292 49.8871 18.4131 50.5488C18.3931 51.3745 18.4084 52.201 18.4084 53.058H20.1422ZM3.04096 25.2653C3.62188 25.0598 4.08787 24.8951 4.49227 24.7523C4.70644 23.3943 4.90884 22.1117 5.11595 20.7976C4.16161 20.4344 3.2461 19.9598 2.11329 19.9096C2.1937 21.7449 2.53221 23.4759 3.04096 25.2653ZM33.752 13.6176C34.5314 14.7574 35.2955 15.7482 35.9215 16.8207C36.875 18.4548 37.3806 20.2685 37.8035 22.103C37.8486 22.298 37.9439 22.4816 38.08 22.8389C38.4028 21.2985 38.5182 19.9394 38.4268 18.5591C38.3554 17.4796 38.0969 16.4574 37.5372 15.5282C36.7817 14.2761 35.6963 13.4497 34.3023 13.0049C34.063 13.2712 33.8775 13.4783 33.752 13.6176ZM31.4381 16.3915C33.3935 18.8933 33.7484 21.8175 34.0144 24.6856C34.8659 25.0598 35.6289 25.3948 36.4632 25.7611C36.3384 24.9178 36.2474 24.1121 36.096 23.3178C35.643 20.9357 34.9695 18.6289 33.577 16.6006C33.2519 16.1272 32.8486 15.7075 32.4332 15.2054C32.0582 15.6521 31.7797 15.9844 31.4381 16.3915ZM8.10448 16.53C6.41154 15.0975 4.87628 13.3861 2.34668 13.1076C1.98503 14.7006 1.81989 16.2758 1.99091 17.7758C3.41477 18.2108 4.69232 18.6011 5.96359 18.9894C6.6716 18.1759 7.38392 17.3576 8.10448 16.53ZM32.1418 12.4734C33.1004 11.6124 33.0338 11.5041 32.8447 10.4333C32.1481 6.49395 29.8938 3.80706 26.1377 2.41812C25.485 2.17688 24.7985 1.97331 23.9693 2.04117C24.7197 3.64703 25.3806 5.2015 26.1632 6.69165C26.7284 7.76797 27.3889 8.80978 28.1264 9.77549C29.1364 11.0993 30.4838 11.9984 32.1418 12.4734ZM5.22774 7.26629C4.253 8.45088 3.4944 9.72372 2.96251 11.2005C3.34142 11.3221 3.65992 11.43 3.98118 11.5269C5.41641 11.9591 6.67905 12.693 7.75891 13.7282C8.93644 14.8571 10.2595 15.7031 11.8873 16.0205C12.7785 16.1942 13.6599 16.4139 14.5487 16.5975C14.7303 16.6347 14.9261 16.603 15.3375 16.603C13.2119 15.1148 11.9442 13.2183 10.7117 11.2864C10.3764 10.7608 9.99433 10.2576 9.58482 9.78648C8.44848 8.4799 7.127 7.46673 5.22774 7.26629ZM6.85399 5.62513C9.43537 6.56535 11.0977 8.34693 12.4537 10.478C12.8067 11.0323 13.1809 11.5724 13.5387 12.1239C15.6823 15.4254 18.7281 16.5578 22.5302 15.8647C22.6973 15.8341 22.8522 15.7392 23.1366 15.6247C21.4421 14.7665 20.1018 13.6485 19.0258 12.2474C18.246 11.2319 17.5478 10.1524 16.8351 9.0871C15.949 7.7617 15.11 6.40413 14.2035 5.09324C13.4512 4.00475 12.3251 3.47012 11.0616 3.20889C10.862 3.1677 10.6153 3.16064 10.4368 3.24105C9.15178 3.82158 7.96366 4.55312 6.85399 5.62513ZM30.8156 14.1475C30.0115 13.665 29.2862 13.2904 28.6269 12.8229C26.7088 11.4622 25.461 9.55466 24.4337 7.4887C23.6128 5.83577 22.8251 4.16597 22.0273 2.50127C21.8382 2.10785 21.6021 1.86073 21.1028 1.87172C19.1941 1.91408 17.2839 1.90662 15.3748 1.94428C14.9182 1.9533 14.4632 2.06352 14.056 2.12079C14.9233 3.14103 15.8015 4.10399 16.5947 5.13286C17.127 5.824 17.5251 6.61712 18.0083 7.34866C18.8524 8.62778 19.6479 9.94691 20.587 11.1539C22.1057 13.1057 24.0709 14.3573 26.6052 14.5864C27.7168 14.6868 28.8226 14.8516 30.0958 15.0069C30.2449 14.8288 30.5202 14.5005 30.8156 14.1475ZM32.0296 35.8344C31.7946 35.8058 31.6731 35.778 31.5511 35.778C30.5806 35.7788 30.3233 36.0267 30.2951 36.9884C30.2869 37.2709 30.2818 37.5537 30.2943 37.8353C30.3288 38.5919 30.0029 39.1654 29.4145 39.6087C28.8885 40.0044 28.3715 40.4135 27.8294 40.7858C26.4624 41.7237 25.1363 41.2035 24.7636 39.5981C24.5424 38.6449 24.3937 38.5045 23.4433 38.5013C20.6846 38.4923 17.9256 38.4935 15.1661 38.5006C14.16 38.5033 14.0019 38.6449 13.7744 39.6345C13.4175 41.1867 12.0991 41.7135 10.7741 40.8152C10.2038 40.4288 9.66013 40.0017 9.11059 39.5859C8.5183 39.1383 8.2347 38.5413 8.25785 37.7953C8.26883 37.4509 8.2755 37.1042 8.25353 36.7605C8.20999 36.0831 7.93934 35.8207 7.24977 35.7811C7.03835 35.7689 6.82418 35.807 6.54686 35.8266C6.53235 36.1651 6.50803 36.4711 6.50725 36.7774C6.50372 38.377 6.601 39.9836 6.48214 41.5742C6.32171 43.7237 7.05522 45.3582 8.66108 46.795C10.7145 48.6331 12.613 50.6441 14.5809 52.5775C14.9261 52.9168 15.3003 53.2098 15.8306 52.9996C16.3856 52.7799 16.5103 52.3128 16.5084 51.777C16.5064 51.3066 16.497 50.8359 16.5154 50.366C16.5778 48.7723 17.7334 47.6101 19.2569 47.5952C20.7847 47.5803 21.9563 48.7292 22.0226 50.3221C22.0465 50.8862 22.0198 51.4518 22.0489 52.015C22.0712 52.4461 22.2591 52.8003 22.68 52.9851C23.1091 53.1734 23.4735 53.0412 23.7999 52.7454C23.9391 52.6191 24.074 52.4881 24.2082 52.3563C26.2871 50.3119 28.3413 48.2412 30.4543 46.2325C31.5777 45.1644 32.1014 43.9155 32.0798 42.3822C32.0531 40.5006 32.0755 38.6186 32.072 36.737C32.0712 36.4589 32.0465 36.1812 32.0296 35.8344ZM26.7268 39.1737C27.7957 38.5935 28.5461 37.9797 28.4405 36.5625C28.3295 35.0715 29.5016 34.0101 31.0317 33.8916C31.7491 33.8363 32.4732 33.8693 33.193 33.8367C34.2152 33.7901 35.0644 33.3633 35.743 32.5996C37.4622 30.6642 36.5471 27.4968 33.9755 26.8488C33.9755 27.3662 34.0101 27.8608 33.9669 28.3484C33.9065 29.0341 33.4378 29.391 32.8216 29.2823C32.3332 29.1964 32.1014 28.9101 32.0853 28.2425C32.0602 27.2081 32.0971 26.1722 32.0688 25.1379C32.0096 22.9303 31.7586 20.7557 30.7266 18.7529C29.704 16.7677 28.0667 16.1197 25.9329 16.8054C24.5914 17.236 23.2456 17.6565 21.8908 18.0413C19.4789 18.7262 17.0269 18.9717 14.5448 18.5112C13.2841 18.2779 12.0344 17.9766 10.7918 17.6581C10.3524 17.5455 10.0147 17.5942 9.65464 17.8566C8.75051 18.5156 8.0378 19.335 7.51532 20.3199C6.79398 21.6794 6.51431 23.1449 6.50803 24.6711C6.50293 25.8631 6.52294 27.0552 6.49509 28.2464C6.47861 28.9505 6.13422 29.2949 5.5533 29.2965C4.97317 29.298 4.65898 28.9564 4.62525 28.2449C4.60406 27.7887 4.62132 27.3305 4.62132 26.852C2.08741 27.4215 1.11424 30.5203 2.73501 32.4996C3.47988 33.4096 4.45462 33.8269 5.61292 33.8575C6.33309 33.8764 7.05914 33.8465 7.77225 33.9262C9.10236 34.0748 10.041 35.106 10.1277 36.4424C10.1516 36.8174 10.114 37.1979 10.1548 37.5701C10.1767 37.7686 10.2552 38.0142 10.396 38.1365C10.8369 38.5186 11.3201 38.852 11.863 39.2623C11.943 38.9693 11.9838 38.7947 12.0383 38.6245C12.4298 37.4003 13.3943 36.6174 14.6891 36.6052C17.7612 36.5774 20.8341 36.568 23.9062 36.6111C25.1476 36.6284 26.0196 37.3058 26.4758 38.4794C26.564 38.7061 26.6417 38.9375 26.7268 39.1737ZM34.8503 11.0982C35.559 11.4806 36.2467 11.7924 36.8715 12.2004C38.7657 13.4348 39.8765 15.216 40.206 17.431C40.7206 20.8906 40.0997 24.1749 38.4432 27.2529C38.1891 27.7251 38.1287 28.1272 38.2828 28.6646C39.143 31.668 37.594 34.5032 34.5977 35.5057C34.4192 35.565 34.2442 35.6328 33.9846 35.7274V36.73C33.9846 38.7065 33.9908 40.683 33.9822 42.6592C33.974 44.5035 33.3397 46.0811 31.9904 47.3693C31.1086 48.211 30.2657 49.0936 29.3568 50.0063C29.6059 50.7767 29.8464 51.5506 30.106 52.3183C30.5948 53.7641 29.8338 54.9083 28.3135 54.9942C28.126 55.0048 27.9373 54.9977 27.749 54.9977C22.1038 54.9981 16.4586 55.0004 10.8137 54.9934C10.4101 54.9926 9.99001 54.9824 9.60718 54.8737C8.57988 54.5819 8.068 53.6201 8.36885 52.5916C8.57125 51.9005 8.79523 51.2145 9.04862 50.5406C9.20434 50.1264 9.11765 49.8443 8.79836 49.5458C8.0425 48.8394 7.32979 48.0875 6.57942 47.3752C5.28226 46.1431 4.61309 44.6502 4.61819 42.8545C4.62407 40.847 4.61858 38.8391 4.61779 36.8312C4.61779 36.4875 4.61779 36.1443 4.61779 35.7556C4.29968 35.6438 4.01256 35.5422 3.72504 35.4418C0.323077 34.2521 -1.05999 30.1594 0.976561 27.1807C1.32174 26.6755 1.35547 26.2707 1.20328 25.7184C0.186182 22.0277 -0.27667 18.2708 0.170492 14.4542C0.658448 10.2925 2.53967 6.81678 5.68784 4.06477C8.73011 1.40572 12.2941 0.0371704 16.3495 0.0132446C18.5135 0.000297546 20.678 0.0410957 22.8412 0.00187302C28.8045 -0.106388 34.1976 4.48094 34.7953 10.7765C34.8044 10.8691 34.8267 10.9609 34.8503 11.0982Z" fill="white"/>
<path d="M25.7079 25.6863C24.9556 25.6863 24.2037 25.6871 23.4513 25.6859C23.2634 25.6855 23.0728 25.6965 22.8881 25.6702C22.3621 25.5957 22.0004 25.2086 21.9981 24.7406C21.9961 24.2703 22.353 23.8784 22.8806 23.8082C23.1277 23.7757 23.3811 23.7914 23.6318 23.791C25.0109 23.7898 26.39 23.7902 27.7692 23.7906C27.9881 23.791 28.2097 23.778 28.427 23.8016C29.0275 23.8671 29.366 24.2373 29.3425 24.7806C29.3209 25.2792 28.9922 25.6471 28.434 25.6691C27.5268 25.704 26.6168 25.6781 25.7079 25.6781V25.6863Z" fill="white"/>
<path d="M12.8377 25.6862C12.054 25.6862 11.2703 25.6901 10.487 25.6834C10.2689 25.6814 10.0335 25.6944 9.8378 25.6187C9.42868 25.459 9.1698 25.1519 9.19569 24.6812C9.21922 24.2564 9.47536 23.9826 9.85349 23.8508C10.0527 23.7814 10.2861 23.7936 10.5042 23.7932C12.0713 23.7889 13.6387 23.7857 15.2057 23.7928C16.1114 23.7967 16.5437 24.1156 16.5382 24.7459C16.5323 25.3704 16.0977 25.6775 15.1884 25.685C14.4047 25.6913 13.621 25.6862 12.8377 25.6862Z" fill="white"/>
<path d="M26.7709 29.3439C26.612 29.5789 26.5132 29.7824 26.3626 29.9346C25.9299 30.3724 25.3266 30.3853 24.9842 29.8781C24.7053 29.4651 24.4253 29.3031 23.931 29.2976C23.2748 29.2902 22.9426 28.9434 22.93 28.4209C22.9171 27.8734 23.296 27.4792 23.9726 27.4603C25.1301 27.4286 26.29 27.4286 27.4479 27.4647C28.0763 27.4843 28.423 27.8589 28.4317 28.3825C28.4407 28.9195 28.1163 29.2388 27.473 29.3098C27.2561 29.3333 27.0368 29.3317 26.7709 29.3439Z" fill="white"/>
<path d="M13.9118 29.3489C13.7894 29.5626 13.7199 29.7439 13.6003 29.8804C13.1661 30.3762 12.5032 30.4118 12.1615 29.86C11.8823 29.4089 11.5708 29.2873 11.0974 29.3061C10.649 29.3238 10.3046 29.1214 10.1532 28.6789C9.95986 28.1145 10.3274 27.5135 10.9934 27.4837C12.2447 27.4276 13.5015 27.4367 14.7539 27.4798C15.3054 27.499 15.6341 27.9238 15.6282 28.409C15.6227 28.9009 15.298 29.2324 14.7265 29.3045C14.4789 29.3355 14.2271 29.3328 13.9118 29.3489Z" fill="white"/>
<path d="M19.3174 32.9235C19.661 32.9408 20.0093 32.931 20.3479 32.9828C20.8064 33.053 21.0598 33.3613 21.1135 33.8143C21.1676 34.2693 20.8962 34.7294 20.409 34.7793C19.6681 34.8554 18.9083 34.8542 18.1662 34.7816C17.6751 34.7334 17.4127 34.2886 17.4409 33.83C17.4691 33.3758 17.7751 33.0608 18.2831 32.9655C18.3446 32.9541 18.4078 32.9467 18.4702 32.9463C18.7522 32.9443 19.0342 32.9455 19.3166 32.9455C19.3166 32.938 19.317 32.931 19.3174 32.9235Z" fill="white"/>
<path d="M19.2665 40.2424C20.0189 40.2424 20.7716 40.2385 21.5243 40.2444C21.7424 40.2463 21.9668 40.2483 22.177 40.2981C22.674 40.415 22.9568 40.7719 22.9517 41.2262C22.9458 41.6788 22.6559 42.0275 22.1578 42.1452C21.9773 42.1876 21.7851 42.1895 21.5976 42.1899C20.0612 42.1934 18.5248 42.1981 16.9883 42.1891C16.1038 42.184 15.63 41.8522 15.6021 41.2532C15.5731 40.6225 16.074 40.2565 17.0087 40.2444C17.7611 40.2346 18.5138 40.2424 19.2665 40.2424Z" fill="white"/>
<path d="M19.3155 43.9381C19.6266 43.9381 19.9408 43.9094 20.2475 43.9443C20.7763 44.0047 21.1163 44.3848 21.1214 44.8669C21.1273 45.347 20.7904 45.7691 20.2687 45.8059C19.6191 45.8518 18.9617 45.851 18.3118 45.8071C17.7771 45.7706 17.4457 45.3733 17.441 44.8885C17.4355 44.3986 17.7595 44.0134 18.291 43.9494C18.6279 43.9086 18.9739 43.942 19.3155 43.942V43.9381Z" fill="white"/>
</svg>
