<svg width="138" height="188" viewBox="0 0 138 188" fill="none" xmlns="http://www.w3.org/2000/svg">
<path d="M36.754 175.948C36.098 177.899 35.5846 179.423 34.9926 181.18H41.874C40.0313 179.297 38.5433 177.777 36.754 175.948ZM89.7313 181.041C92.0433 181.465 94.094 181.657 96.3633 180.836C95.79 179.209 95.2847 177.779 94.6713 176.039C92.8727 177.861 91.414 179.337 89.7313 181.041ZM68.642 181.192C68.642 178.177 68.71 175.343 68.6206 172.513C68.5513 170.284 67.4406 169.169 65.626 169.219C63.8406 169.267 62.8193 170.413 62.7646 172.663C62.6966 175.469 62.7486 178.279 62.7486 181.192H68.642ZM10.5113 86.7187C12.486 86.02 14.07 85.46 15.4446 84.9747C16.1726 80.3587 16.8606 75.9987 17.5646 71.5321C14.3206 70.2974 11.2086 68.6841 7.35798 68.5134C7.63131 74.7521 8.78198 80.636 10.5113 86.7187V86.7187ZM114.905 47.1254C117.554 51.0001 120.151 54.3681 122.279 58.0134C125.521 63.5681 127.239 69.7334 128.677 75.9694C128.83 76.632 129.154 77.256 129.617 78.4707C130.714 73.2347 131.106 68.6147 130.795 63.9227C130.553 60.2534 129.674 56.7787 127.771 53.62C125.203 49.364 121.514 46.5547 116.775 45.0427C115.962 45.948 115.331 46.6521 114.905 47.1254V47.1254ZM107.039 56.5547C113.686 65.0587 114.893 74.9987 115.797 84.748C118.691 86.02 121.285 87.1587 124.121 88.404C123.697 85.5374 123.387 82.7987 122.873 80.0987C121.333 72.0014 119.043 64.16 114.31 57.2654C113.205 55.656 111.834 54.2294 110.422 52.5227C109.147 54.0414 108.201 55.1707 107.039 56.5547ZM27.7233 57.0254C21.9686 52.156 16.75 46.3387 8.15131 45.392C6.92198 50.8067 6.36065 56.1614 6.94198 61.26C11.782 62.7387 16.1246 64.0654 20.446 65.3854C22.8526 62.6201 25.274 59.8387 27.7233 57.0254V57.0254ZM109.431 43.2361C112.69 40.3094 112.463 39.9414 111.821 36.3014C109.453 22.9107 101.79 13.7774 89.022 9.05606C86.8033 8.23606 84.47 7.54406 81.6513 7.77473C84.202 13.2334 86.4486 18.5174 89.1086 23.5827C91.03 27.2414 93.2753 30.7827 95.782 34.0654C99.2153 38.5654 103.795 41.6214 109.431 43.2361V43.2361ZM17.9446 25.5361C14.6313 29.5627 12.0526 33.8894 10.2446 38.9094C11.5326 39.3227 12.6153 39.6894 13.7073 40.0187C18.586 41.488 22.878 43.9827 26.5486 47.5014C30.5513 51.3387 35.0486 54.2147 40.582 55.2934C43.6113 55.8841 46.6073 56.6307 49.6286 57.2547C50.246 57.3814 50.9113 57.2734 52.31 57.2734C45.0846 52.2147 40.7753 45.7681 36.586 39.2014C35.446 37.4147 34.1473 35.704 32.7553 34.1027C28.8926 29.6614 24.4006 26.2174 17.9446 25.5361V25.5361ZM23.4726 19.9574C32.2473 23.1534 37.898 29.2094 42.5073 36.4534C43.7073 38.3374 44.9793 40.1734 46.1953 42.048C53.482 53.2707 63.8353 57.12 76.7593 54.764C77.3273 54.66 77.854 54.3374 78.8206 53.948C73.0606 51.0307 68.5046 47.2307 64.8473 42.468C62.1966 39.016 59.8233 35.3467 57.4006 31.7254C54.3886 27.22 51.5366 22.6054 48.4553 18.1494C45.898 14.4494 42.07 12.632 37.7753 11.744C37.0966 11.604 36.258 11.5801 35.6513 11.8534C31.2833 13.8267 27.2446 16.3134 23.4726 19.9574V19.9574ZM104.923 48.9267C102.19 47.2867 99.7247 46.0134 97.4833 44.4241C90.9633 39.7987 86.722 33.3147 83.23 26.2921C80.4393 20.6734 77.762 14.9974 75.05 9.33872C74.4073 8.00138 73.6046 7.16139 71.9073 7.19872C65.4193 7.34272 58.926 7.31738 52.4366 7.44538C50.8846 7.47605 49.338 7.85071 47.954 8.04538C50.902 11.5134 53.8873 14.7867 56.5833 18.284C58.3926 20.6334 59.746 23.3294 61.3886 25.816C64.258 30.164 66.962 34.648 70.154 38.7507C75.3166 45.3854 81.9967 49.64 90.6113 50.4187C94.39 50.76 98.1486 51.3201 102.477 51.8481C102.983 51.2427 103.919 50.1267 104.923 48.9267V48.9267ZM109.05 122.645C108.251 122.548 107.838 122.453 107.423 122.453C104.125 122.456 103.25 123.299 103.154 126.568C103.126 127.528 103.109 128.489 103.151 129.447C103.269 132.019 102.161 133.968 100.161 135.475C98.3726 136.82 96.6153 138.211 94.7726 139.476C90.126 142.664 85.618 140.896 84.3513 135.439C83.5993 132.199 83.094 131.721 79.8633 131.711C70.486 131.68 61.1073 131.684 51.7273 131.708C48.3073 131.717 47.77 132.199 46.9966 135.563C45.7833 140.839 41.302 142.629 36.798 139.576C34.8593 138.263 33.0113 136.811 31.1433 135.397C29.13 133.876 28.166 131.847 28.2446 129.311C28.282 128.14 28.3046 126.961 28.23 125.793C28.082 123.491 27.162 122.599 24.818 122.464C24.0993 122.423 23.3713 122.552 22.4286 122.619C22.3793 123.769 22.2966 124.809 22.294 125.851C22.282 131.288 22.6126 136.749 22.2086 142.156C21.6633 149.463 24.1566 155.019 29.6153 159.903C36.5953 166.151 43.0486 172.987 49.738 179.559C50.9113 180.712 52.1833 181.708 53.986 180.993C55.8726 180.247 56.2966 178.659 56.29 176.837C56.2833 175.239 56.2513 173.639 56.314 172.041C56.526 166.624 60.454 162.673 65.6326 162.623C70.826 162.572 74.8086 166.477 75.034 171.892C75.1153 173.809 75.0246 175.732 75.1233 177.647C75.1993 179.112 75.838 180.316 77.2686 180.944C78.7273 181.584 79.966 181.135 81.0753 180.129C81.5486 179.7 82.0073 179.255 82.4633 178.807C89.53 171.857 96.5126 164.819 103.695 157.991C107.514 154.36 109.294 150.115 109.221 144.903C109.13 138.507 109.206 132.109 109.194 125.713C109.191 124.768 109.107 123.824 109.05 122.645V122.645ZM91.0247 133.996C94.658 132.024 97.2086 129.937 96.85 125.12C96.4726 120.052 100.457 116.444 105.658 116.041C108.097 115.853 110.558 115.965 113.005 115.855C116.479 115.696 119.366 114.245 121.673 111.649C127.517 105.071 124.406 94.3041 115.665 92.1014C115.665 93.8601 115.782 95.5414 115.635 97.1987C115.43 99.5294 113.837 100.743 111.742 100.373C110.082 100.081 109.294 99.108 109.239 96.8387C109.154 93.3227 109.279 89.8014 109.183 86.2854C108.982 78.7814 108.129 71.3894 104.621 64.5814C101.145 57.8334 95.5793 55.6307 88.326 57.9614C83.766 59.4254 79.1913 60.8547 74.586 62.1627C66.3873 64.4907 58.0526 65.3254 49.6153 63.76C45.33 62.9667 41.082 61.9427 36.858 60.86C35.3646 60.4774 34.2166 60.6427 32.9926 61.5347C29.9193 63.7747 27.4966 66.56 25.7206 69.908C23.2686 74.5294 22.318 79.5107 22.2966 84.6987C22.2793 88.7507 22.3473 92.8027 22.2526 96.852C22.1966 99.2454 21.026 100.416 19.0513 100.421C17.0793 100.427 16.0113 99.2654 15.8966 96.8467C15.8246 95.296 15.8833 93.7387 15.8833 92.112C7.26998 94.048 3.96198 104.581 9.47131 111.309C12.0033 114.403 15.3166 115.821 19.254 115.925C21.702 115.989 24.17 115.888 26.594 116.159C31.1153 116.664 34.306 120.169 34.6006 124.712C34.682 125.987 34.554 127.28 34.6926 128.545C34.7673 129.22 35.034 130.055 35.5126 130.471C37.0113 131.769 38.654 132.903 40.4993 134.297C40.7713 133.301 40.91 132.708 41.0953 132.129C42.426 127.968 45.7046 125.307 50.106 125.265C60.5486 125.171 70.994 125.139 81.4366 125.285C85.6566 125.344 88.6207 127.647 90.1713 131.636C90.4713 132.407 90.7353 133.193 91.0247 133.996V133.996ZM118.638 38.5614C121.047 39.8614 123.385 40.9214 125.509 42.308C131.947 46.504 135.723 52.5587 136.843 60.0881C138.593 71.848 136.482 83.0121 130.851 93.4747C129.987 95.08 129.782 96.4467 130.306 98.2734C133.23 108.483 127.965 118.12 117.779 121.528C117.173 121.729 116.578 121.96 115.695 122.281V125.689C115.695 132.408 115.717 139.127 115.687 145.844C115.659 152.113 113.503 157.476 108.917 161.855C105.919 164.716 103.054 167.716 99.9647 170.819C100.811 173.437 101.629 176.068 102.511 178.677C104.173 183.592 101.586 187.481 96.418 187.773C95.7806 187.809 95.1393 187.785 94.4993 187.785C75.31 187.787 56.1206 187.795 36.9326 187.771C35.5606 187.768 34.1326 187.733 32.8313 187.364C29.3393 186.372 27.5993 183.103 28.622 179.607C29.31 177.257 30.0713 174.925 30.9326 172.635C31.462 171.227 31.1673 170.268 30.082 169.253C27.5126 166.852 25.09 164.296 22.5393 161.875C18.13 157.687 15.8553 152.612 15.8726 146.508C15.8926 139.684 15.874 132.859 15.8713 126.033C15.8713 124.865 15.8713 123.699 15.8713 122.377C14.79 121.997 13.814 121.652 12.8366 121.311C1.27265 117.267 -3.42869 103.355 3.49398 93.2294C4.66731 91.512 4.78198 90.136 4.26464 88.2587C0.807311 75.7134 -0.766022 62.9427 0.753978 49.9694C2.41264 35.8227 8.80731 24.0081 19.5086 14.6534C29.85 5.61473 41.9646 0.962712 55.75 0.881379C63.106 0.837379 70.4633 0.976057 77.8166 0.842724C98.0873 0.474724 116.419 16.068 118.451 37.468C118.482 37.7827 118.558 38.0947 118.638 38.5614" fill="white"/>
<path d="M87.5612 88.1497C85.0039 88.1497 82.4479 88.1524 79.8905 88.1484C79.2519 88.1471 78.6039 88.1844 77.9759 88.0951C76.1879 87.8417 74.9585 86.5257 74.9505 84.9351C74.9439 83.3364 76.1572 82.0044 77.9505 81.7657C78.7905 81.6551 79.6519 81.7084 80.5039 81.7071C85.1919 81.7031 89.8799 81.7044 94.5679 81.7057C95.3119 81.7071 96.0652 81.6631 96.8039 81.7431C98.8452 81.9657 99.9959 83.2244 99.9159 85.0711C99.8425 86.7657 98.7252 88.0164 96.8279 88.0911C93.7439 88.2097 90.6505 88.1217 87.5612 88.1217V88.1497Z" fill="white"/>
<path d="M43.8126 88.1492C41.1486 88.1492 38.4846 88.1625 35.8219 88.1398C35.0806 88.1332 34.2806 88.1772 33.6152 87.9198C32.2246 87.3772 31.3446 86.3332 31.4326 84.7332C31.5126 83.2892 32.3832 82.3585 33.6686 81.9105C34.3459 81.6745 35.1392 81.7158 35.8806 81.7145C41.2072 81.6998 46.5352 81.6892 51.8619 81.7132C54.9406 81.7265 56.4099 82.8105 56.3912 84.9532C56.3712 87.0758 54.8939 88.1198 51.8032 88.1452C49.1392 88.1665 46.4752 88.1492 43.8126 88.1492Z" fill="white"/>
<path d="M91.1745 100.583C90.6345 101.381 90.2985 102.073 89.7865 102.591C88.3159 104.079 86.2652 104.123 85.1012 102.399C84.1532 100.995 83.2012 100.444 81.5212 100.425C79.2905 100.4 78.1612 99.2215 78.1185 97.4455C78.0745 95.5841 79.3625 94.2441 81.6625 94.1801C85.5972 94.0721 89.5399 94.0721 93.4759 94.1948C95.6119 94.2615 96.7905 95.5348 96.8199 97.3148C96.8505 99.1401 95.7479 100.225 93.5612 100.467C92.8239 100.547 92.0785 100.541 91.1745 100.583Z" fill="white"/>
<path d="M47.4635 100.6C47.0475 101.326 46.8115 101.942 46.4049 102.406C44.9289 104.092 42.6755 104.213 41.5142 102.337C40.5649 100.804 39.5062 100.39 37.8969 100.454C36.3729 100.514 35.2022 99.8262 34.6875 98.3222C34.0302 96.4036 35.2795 94.3609 37.5435 94.2596C41.7969 94.0689 46.0689 94.0996 50.3262 94.2462C52.2009 94.3116 53.3182 95.7556 53.2982 97.4049C53.2795 99.0769 52.1755 100.204 50.2329 100.449C49.3915 100.554 48.5355 100.545 47.4635 100.6Z" fill="white"/>
<path d="M65.8385 112.751C67.0065 112.809 68.1905 112.776 69.3412 112.952C70.8998 113.191 71.7612 114.239 71.9438 115.779C72.1278 117.325 71.2052 118.889 69.5492 119.059C67.0305 119.317 64.4478 119.313 61.9252 119.067C60.2558 118.903 59.3638 117.391 59.4598 115.832C59.5558 114.288 60.5958 113.217 62.3225 112.893C62.5318 112.855 62.7465 112.829 62.9585 112.828C63.9172 112.821 64.8758 112.825 65.8358 112.825C65.8358 112.8 65.8372 112.776 65.8385 112.751" fill="white"/>
<path d="M65.6655 137.629C68.2228 137.629 70.7815 137.616 73.3402 137.636C74.0815 137.642 74.8442 137.649 75.5588 137.818C77.2482 138.216 78.2095 139.429 78.1922 140.973C78.1722 142.512 77.1868 143.697 75.4935 144.097C74.8802 144.241 74.2268 144.248 73.5895 144.249C68.3668 144.261 63.1442 144.277 57.9215 144.246C54.9148 144.229 53.3042 143.101 53.2095 141.065C53.1108 138.921 54.8135 137.677 57.9908 137.636C60.5482 137.602 63.1068 137.629 65.6655 137.629Z" fill="white"/>
<path d="M65.8321 150.191C66.8895 150.191 67.9575 150.094 69.0001 150.213C70.7975 150.418 71.9535 151.71 71.9708 153.349C71.9908 154.981 70.8455 156.415 69.0721 156.541C66.8641 156.697 64.6295 156.694 62.4201 156.545C60.6028 156.421 59.4761 155.07 59.4601 153.422C59.4415 151.757 60.5428 150.447 62.3495 150.23C63.4948 150.091 64.6708 150.205 65.8321 150.205V150.191Z" fill="white"/>
</svg>
