<svg width="174" height="188" viewBox="0 0 174 188" fill="none" xmlns="http://www.w3.org/2000/svg">
<path d="M38.6626 179.479H56.6707V172.831H38.6626V179.479ZM20.76 152.996C20.76 157.212 20.7586 161.033 20.7613 164.856C20.764 167.941 20.692 171.031 20.8026 174.112C20.904 176.889 22.3186 178.931 24.5906 179.409C26.6253 179.839 28.7413 179.989 30.92 179.208C30.92 177.304 30.9026 175.501 30.924 173.699C30.9906 168.023 33.9227 165.065 39.596 165.019C44.3827 164.979 49.168 165.023 53.9546 164.997C54.8626 164.992 55.7693 164.839 56.6813 164.753V152.996H20.76ZM8.68263 16.74H86.3146C86.4866 15.9187 86.6733 15.2161 86.78 14.5014C87.6013 8.91606 86.6506 7.79334 81.0573 7.792C58.8093 7.78667 36.5626 7.78934 14.316 7.792C13.4653 7.792 12.6066 7.75471 11.764 7.84938C9.35464 8.12138 8.33865 9.19603 8.33998 11.6067C8.34131 13.192 8.54397 14.776 8.68263 16.74V16.74ZM113.487 135.519C98.9853 135.519 84.4853 135.508 69.984 135.524C65.4853 135.529 64.3253 136.704 64.3146 141.231C64.2973 149.444 64.4413 157.659 64.2746 165.868C64.1013 174.316 70.3946 179.804 78.0093 179.737C101.677 179.531 125.351 179.528 149.019 179.736C157.017 179.807 162.904 173.8 162.683 166.159C162.465 158.699 162.637 151.227 162.636 143.761C162.636 142.375 162.696 140.983 162.607 139.603C162.443 137.021 161.181 135.772 158.587 135.549C157.74 135.476 156.883 135.519 156.029 135.519C141.848 135.517 127.668 135.517 113.487 135.519V135.519ZM9.45064 24.6667C13.1386 64.9973 16.804 105.075 20.4586 145.055C24.868 145.821 54.5947 145.591 56.9467 144.755C56.2067 140.327 57.5666 135.925 57.1 131.308C56.4373 124.764 56.8026 118.096 57.0146 111.489C57.1813 106.271 61.3333 102.395 66.6 102.204C69.7947 102.089 72.996 102.191 76.1946 102.16C77.016 102.152 77.8346 102.015 78.8133 101.921C81.1706 76.12 83.5147 50.488 85.8747 24.6667H9.45064ZM162.443 127.576C162.504 126.801 162.62 125.975 162.627 125.147C162.651 122.268 162.607 119.387 162.641 116.508C162.727 109.62 162.799 109.724 156.068 109.767C148.284 109.815 140.501 109.779 132.717 109.777C131.971 109.777 131.223 109.808 130.479 109.763C127.783 109.596 126.215 108.189 126.211 105.972C126.208 103.768 127.816 102.281 130.463 102.193C132.699 102.117 134.94 102.172 137.179 102.172C144.643 102.171 152.108 102.132 159.571 102.187C165.876 102.233 170.016 106.255 170.136 112.56C170.252 118.637 170.504 124.747 170.021 130.787C169.776 133.856 170.065 136.803 170.112 139.812C170.251 148.876 170.285 157.947 170.128 167.009C169.923 178.836 161.325 187.192 149.443 187.201C108.605 187.232 67.768 187.224 26.9306 187.204C18.6293 187.2 13.3973 181.991 13.2466 173.619C13.1653 169.14 13.1026 164.655 13.252 160.18C13.596 149.909 12.384 139.737 11.4746 129.545C10.5013 118.611 9.5013 107.676 8.49064 96.7427C7.5293 86.3427 6.51731 75.9467 5.56398 65.544C4.60131 55.0347 3.69198 44.5213 2.74265 34.0107C2.16798 27.6427 1.55463 21.2787 0.973301 14.9094C0.867968 13.7427 0.777307 12.5681 0.77864 11.3974C0.781307 5.25472 5.18531 0.626709 11.2786 0.332042C11.8106 0.306709 12.344 0.314708 12.8773 0.314708C36.1213 0.314708 59.3667 0.34272 82.6107 0.293387C87.552 0.28272 91.4013 2.05741 93.4853 6.62941C94.2507 8.30807 94.712 10.3614 94.5613 12.1814C93.5333 24.6094 92.284 37.0174 91.1466 49.436C89.7866 64.2974 88.468 79.164 87.128 94.028C86.9 96.5667 86.656 99.104 86.3826 102.029C87.7466 102.083 88.8747 102.152 90.0027 102.167C92.4547 102.196 94.916 102.077 97.356 102.249C99.396 102.393 100.676 103.927 100.731 105.841C100.785 107.816 99.6533 109.271 97.596 109.656C96.6653 109.829 95.6853 109.772 94.728 109.773C86.0906 109.78 77.4547 109.769 68.8187 109.781C64.8133 109.788 64.3333 110.255 64.3146 114.133C64.2946 118.592 64.3106 123.051 64.3106 127.417C67.02 128.147 159.1 128.251 162.443 127.576" fill="white"/>
<path d="M119.394 74.0314C122.303 74.4727 124.695 75.0727 127.106 75.1634C140.102 75.6487 151.799 67.83 156.458 55.6007C157.87 51.89 159.549 48.3594 162.115 45.2954C162.566 44.758 162.925 44.142 163.461 43.3687C153.193 37.098 142.843 36.2927 132.366 41.89C123.631 46.5554 118.491 53.9354 117.203 63.8714C118.057 63.5194 118.614 62.8967 119.271 62.4114C121.662 60.646 123.994 58.7714 126.531 57.2434C128.251 56.2074 130.211 56.982 131.238 58.61C132.267 60.2434 131.958 62.1034 130.351 63.4567C129.705 64.002 128.93 64.3927 128.231 64.878C124.898 67.198 121.889 69.8354 119.394 74.0314ZM115.807 80.79C115.306 83.23 114.903 85.3074 114.445 87.3687C114.095 88.9314 113.23 90.1114 111.609 90.5074C110.137 90.8674 108.671 90.506 107.933 89.2327C107.341 88.2154 106.983 86.7994 107.155 85.6554C107.534 83.1447 108.393 80.7114 108.902 78.2154C109.214 76.6914 109.569 75.062 109.349 73.5607C107.21 58.982 114.103 44.1274 126.737 36.3647C140.347 27.9994 157.227 28.9394 169.81 38.7714C170.481 39.294 171.153 39.8314 171.742 40.4407C173.586 42.3434 173.551 44.4047 171.707 46.326C170.162 47.9354 168.379 49.3874 167.151 51.2127C165.681 53.3954 164.471 55.8154 163.525 58.278C156.518 76.5154 137.298 86.402 118.437 81.386C117.735 81.1994 117.021 81.0634 115.807 80.79" fill="white"/>
<path d="M117.208 105.844C117.278 107.927 115.519 109.744 113.46 109.717C111.582 109.695 109.812 107.963 109.747 106.083C109.676 104.084 111.528 102.196 113.539 102.217C115.468 102.239 117.143 103.893 117.208 105.844Z" fill="white"/>
<path d="M47.7156 68.4422C46.1583 70.2662 44.9143 71.7062 43.6889 73.1608C42.8649 74.1368 41.9929 75.0848 41.2676 76.1328C38.9209 79.5155 39.4569 83.8315 42.4969 86.5448C45.3263 89.0688 49.4983 89.1822 52.4796 86.8155C55.6263 84.3182 56.5356 79.8648 54.2356 76.4982C52.3849 73.7875 50.1103 71.3675 47.7156 68.4422ZM47.0596 95.9382C41.4383 95.8528 36.8689 93.0902 34.0849 87.7475C31.3716 82.5422 31.4849 77.1568 34.8556 72.2995C37.3956 68.6395 40.3836 65.2675 43.3876 61.9635C45.8129 59.2955 49.4276 59.2782 51.8716 61.9195C54.8316 65.1195 57.7823 68.3875 60.2756 71.9515C63.8009 76.9902 64.0316 82.5502 61.1169 87.9728C58.2556 93.2982 53.6236 95.9382 47.0596 95.9382" fill="white"/>
<path d="M130.382 153.544H96.8002V161.468C101.164 162.084 128.011 161.908 130.382 161.255V153.544ZM113.099 169.398C106.915 169.399 100.73 169.411 94.5456 169.395C90.0522 169.383 89.0189 168.383 88.9949 164.015C88.9709 159.642 88.9642 155.267 88.9989 150.895C89.0309 146.995 90.2402 145.802 94.2282 145.795C107.131 145.772 120.032 145.77 132.935 145.796C136.723 145.804 137.967 147.014 138.016 150.739C138.076 155.324 138.078 159.912 138.015 164.498C137.964 168.251 136.778 169.372 132.932 169.39C126.322 169.419 119.711 169.398 113.099 169.398Z" fill="white"/>
</svg>
