<svg width="47" height="50" viewBox="0 0 47 50" fill="none" xmlns="http://www.w3.org/2000/svg">
<path d="M10.1333 47.9289H14.9501V46.1506H10.1333V47.9289ZM5.34465 40.8452C5.34465 41.9729 5.3443 42.9951 5.34501 44.0176C5.34572 44.8428 5.32647 45.6692 5.35607 46.4934C5.38317 47.2363 5.76157 47.7823 6.36928 47.9103C6.91352 48.0252 7.47952 48.0655 8.06227 47.8565C8.06227 47.3472 8.05763 46.865 8.06334 46.3828C8.08117 44.8646 8.86543 44.0736 10.3829 44.0611C11.6633 44.0504 12.9433 44.0621 14.2236 44.0554C14.4665 44.0539 14.709 44.0129 14.953 43.9901V40.8452H5.34465ZM2.11418 4.39919H22.8793C22.9254 4.17949 22.9753 3.99156 23.0038 3.8004C23.2235 2.30643 22.9692 2.00612 21.4731 2.00576C15.5222 2.00433 9.57158 2.00505 3.621 2.00576C3.39346 2.00576 3.16378 1.99578 2.93838 2.02111C2.29393 2.09386 2.02217 2.38131 2.02253 3.02612C2.02288 3.45017 2.07709 3.87385 2.11418 4.39919ZM30.1474 36.1704C26.2685 36.1704 22.39 36.1675 18.5112 36.1718C17.3079 36.1732 16.9976 36.4874 16.9947 37.6982C16.9901 39.8951 17.0286 42.0924 16.984 44.2883C16.9377 46.548 18.621 48.0159 20.6578 47.9981C26.9886 47.9428 33.3208 47.9421 39.6515 47.9977C41.791 48.0166 43.3656 46.4099 43.3064 44.366C43.2483 42.3706 43.2943 40.372 43.2939 38.3751C43.2939 38.0042 43.31 37.6319 43.2861 37.2628C43.2422 36.5723 42.9048 36.2381 42.2108 36.1786C41.9843 36.1589 41.755 36.1704 41.5268 36.1704C37.7335 36.17 33.9406 36.17 30.1474 36.1704ZM2.31961 6.51943C3.30608 17.3072 4.28649 28.0271 5.26405 38.7211C6.44347 38.9261 14.3948 38.8644 15.0239 38.6408C14.826 37.4564 15.1898 36.2791 15.0649 35.0441C14.8877 33.2937 14.9854 31.5101 15.0421 29.7429C15.0867 28.347 16.1973 27.3103 17.606 27.2593C18.4606 27.2286 19.3168 27.2557 20.1724 27.2475C20.3921 27.2454 20.6111 27.2086 20.8729 27.1837C21.5034 20.2823 22.1304 13.4262 22.7617 6.51943H2.31961ZM43.2422 34.0458C43.2586 33.8386 43.2897 33.6175 43.2914 33.396C43.2979 32.626 43.2861 31.8553 43.2954 31.0853C43.3182 29.2429 43.3374 29.2707 41.5371 29.2822C39.455 29.295 37.3733 29.2854 35.2912 29.285C35.0915 29.285 34.8914 29.2932 34.6924 29.2811C33.9713 29.2365 33.5519 28.8603 33.5508 28.2672C33.5501 27.6776 33.9802 27.28 34.6881 27.2564C35.2862 27.2361 35.8858 27.2507 36.4846 27.2507C38.481 27.2504 40.4779 27.24 42.474 27.2546C44.1606 27.2671 45.268 28.3428 45.3 30.0293C45.3311 31.6549 45.3985 33.289 45.2694 34.9046C45.2038 35.7256 45.2812 36.5138 45.2936 37.3187C45.3307 39.7432 45.34 42.1694 45.2979 44.5935C45.243 47.757 42.9434 49.9921 39.765 49.9945C28.8417 50.0028 17.9184 50.0006 6.99519 49.9953C4.77474 49.9942 3.37527 48.6008 3.33497 46.3614C3.31321 45.1635 3.29645 43.9637 3.3364 42.7668C3.42841 40.0196 3.10422 37.2988 2.86099 34.5726C2.60064 31.6478 2.33316 28.7229 2.06282 25.7985C1.80568 23.0167 1.535 20.2359 1.28 17.4534C1.0225 14.6423 0.779271 11.8302 0.525341 9.01878C0.371628 7.31546 0.207569 5.6132 0.0520723 3.90952C0.0238976 3.59746 -0.000352758 3.28327 3.88468e-06 2.97014C0.00071717 1.32708 1.17871 0.0891724 2.80857 0.0103531C2.95087 0.00357819 3.09352 0.00571823 3.23618 0.00571823C9.45354 0.00571823 15.6712 0.0132103 21.8886 1.52588e-05C23.2103 -0.00283813 24.2399 0.471859 24.7974 1.69479C25.0021 2.1438 25.1255 2.69303 25.0852 3.17985C24.8102 6.50412 24.476 9.82302 24.1718 13.1448C23.808 17.1199 23.4553 21.0965 23.0969 25.0724C23.0359 25.7514 22.9706 26.4301 22.8975 27.2126C23.2624 27.2268 23.5641 27.2454 23.8658 27.2493C24.5217 27.2571 25.18 27.2254 25.8327 27.2714C26.3784 27.3099 26.7207 27.7201 26.7354 28.2322C26.75 28.7604 26.4472 29.1495 25.8969 29.2526C25.648 29.2989 25.3858 29.2836 25.1298 29.2839C22.8194 29.2857 20.5095 29.2829 18.1995 29.2861C17.1281 29.2879 16.9997 29.4127 16.9947 30.4502C16.9894 31.6428 16.9937 32.8354 16.9937 34.0034C17.7184 34.1985 42.3481 34.2263 43.2422 34.0458Z" fill="white"/>
<path d="M31.7275 19.7236C32.5057 19.8417 33.1455 20.0022 33.7903 20.0264C37.2665 20.1562 40.3953 18.0649 41.6414 14.7938C42.0191 13.8012 42.4681 12.8568 43.1546 12.0373C43.2752 11.8935 43.3711 11.7288 43.5145 11.5219C40.768 9.84463 37.9997 9.62922 35.1972 11.1264C32.8609 12.3743 31.486 14.3483 31.1415 17.006C31.3697 16.9119 31.5188 16.7453 31.6946 16.6155C32.3341 16.1433 32.9579 15.6419 33.6366 15.2331C34.0966 14.956 34.6209 15.1632 34.8955 15.5987C35.1708 16.0356 35.0881 16.5331 34.6583 16.8951C34.4854 17.041 34.2782 17.1455 34.0913 17.2753C33.1997 17.8958 32.3947 18.6013 31.7275 19.7236ZM30.7681 21.5315C30.634 22.1841 30.5263 22.7398 30.4036 23.2911C30.3102 23.7091 30.0787 24.0247 29.645 24.1307C29.2513 24.227 28.8593 24.1303 28.6618 23.7897C28.5034 23.5176 28.4078 23.1388 28.4538 22.8328C28.5551 22.1613 28.7848 21.5104 28.921 20.8428C29.0045 20.4351 29.0994 19.9993 29.0405 19.5977C28.4685 15.6982 30.3123 11.7248 33.6915 9.64848C37.3321 7.4109 41.8472 7.66233 45.2128 10.2922C45.3922 10.432 45.572 10.5757 45.7296 10.7387C46.2228 11.2477 46.2136 11.799 45.7203 12.313C45.307 12.7434 44.8302 13.1318 44.5017 13.62C44.1083 14.2039 43.7848 14.8512 43.5316 15.5099C41.6575 20.3881 36.5165 23.0326 31.4714 21.6909C31.2838 21.6409 31.0926 21.6046 30.7681 21.5315Z" fill="white"/>
<path d="M31.1429 28.2329C31.1614 28.79 30.691 29.2761 30.1404 29.269C29.6379 29.2629 29.1646 28.7996 29.1471 28.2968C29.1282 27.7622 29.6236 27.2571 30.1614 27.2629C30.6775 27.2686 31.1254 27.7112 31.1429 28.2329Z" fill="white"/>
<path d="M12.5548 18.2286C12.1383 18.7165 11.8055 19.1017 11.4778 19.4908C11.2573 19.7518 11.0241 20.0054 10.8301 20.2857C10.2024 21.1905 10.3458 22.345 11.1589 23.0708C11.9157 23.7459 13.0316 23.7762 13.8291 23.1432C14.6708 22.4752 14.914 21.284 14.2988 20.3835C13.8038 19.6584 13.1953 19.0111 12.5548 18.2286ZM12.3793 25.5833C10.8757 25.5605 9.65352 24.8215 8.90885 23.3925C8.18309 22.0001 8.2134 20.5596 9.11499 19.2604C9.7944 18.2814 10.5936 17.3795 11.3972 16.4957C12.0459 15.7821 13.0127 15.7774 13.6665 16.4839C14.4582 17.3399 15.2475 18.214 15.9144 19.1673C16.8574 20.5151 16.9191 22.0023 16.1394 23.4527C15.3741 24.8772 14.1351 25.5833 12.3793 25.5833Z" fill="white"/>
<path d="M34.6665 40.9919H25.6841V43.1114C26.8514 43.2762 34.0324 43.2291 34.6665 43.0544V40.9919ZM30.0437 45.2324C28.3896 45.2327 26.7351 45.2359 25.081 45.2317C23.8791 45.2284 23.6027 44.961 23.5963 43.7926C23.5899 42.6228 23.5881 41.4527 23.5974 40.2832C23.6059 39.2401 23.9294 38.9209 24.9961 38.9191C28.4473 38.913 31.8982 38.9123 35.3495 38.9194C36.3627 38.9216 36.6954 39.2451 36.7086 40.2415C36.7247 41.468 36.725 42.6952 36.7083 43.9217C36.6947 44.9257 36.3773 45.2256 35.3487 45.2302C33.5805 45.2381 31.8123 45.2324 30.0437 45.2324Z" fill="white"/>
</svg>
